<svg width="402" height="40" viewBox="0 0 402 40" fill="none" xmlns="http://www.w3.org/2000/svg">
<mask id="path-1-outside-1_3_34" maskUnits="userSpaceOnUse" x="5" y="2" width="391" height="32" fill="black">
<rect fill="white" x="5" y="2" width="391" height="32"/>
<path d="M28.9665 21.25H22.8665V24.6H30.2915V25.6H31.3165V28.4H30.2915V29.4H9.8415V28.4H8.8165V25.6H9.8415V24.6H17.2665V21.25H11.1415V20.25H10.1415V8.225H11.1415V7.225H14.5415V8.225H15.5665V10.125H24.5665V8.225H25.5665V7.225H28.9665V8.225H29.9915V20.25H28.9665V21.25ZM24.5665 14.575H15.5665V16.75H24.5665V14.575ZM37.6835 8.225V7.225H56.0585V8.225H57.0585V13.5H56.0585V14.5H37.6835V13.5H36.6835V8.225H37.6835ZM41.9335 10.35V11.375H51.8085V10.35H41.9335ZM35.6085 16.05H36.4585V15.2H57.2585V16.05H58.1085V17.875H57.2585V18.725H49.7085V19.6H56.1835V20.425H57.0085V25.375H56.1835V26.2H41.9585V26.95H56.8335V27.725H57.6335V29.25H56.8335V30H37.4335V29.175H36.6335V24.175H37.4335V23.35H51.6585V22.625H37.4335V21.85H36.6335V20.375H37.4335V19.6H44.0085V18.725H36.4585V17.875H35.6085V16.05ZM66.7505 12.35H63.3005V11.45H62.3755V9.325H63.3005V8.4H66.7505V6.55H67.8005V5.7H71.4255V6.55H72.4755V8.4H75.9255V9.325H76.8505V11.45H75.9255V12.35H72.4755V13.225H73.5005V13.925H74.6005V14.7H75.7755V15.55H77.0005V18.225H76.0755V19.075H73.1755V18.225H72.1255V17.45H71.1255V16.725H70.1755V16.025H69.1505V16.725H68.2255V17.45H67.2005V18.225H66.1755V19.075H63.1505V18.225H62.2255V15.55H63.4505V14.7H64.6255V13.925H65.7255V13.225H66.7505V12.35ZM82.9255 8.225H83.8755V10.675H85.4005V11.6H86.1005V14.425H85.4005V15.325H83.8755V18.225H82.9255V19.225H79.4255V18.225H78.4255V8.225H79.4255V7.225H82.9255V8.225ZM83.2755 20.25V21.125H84.2005V23.4H83.2755V24.25H79.0255V24.875H80.3005V25.5H81.6755V26.2H83.1005V27.025H84.2005V29.4H83.1005V30.1H78.7505V29.4H77.3005V28.575H75.8755V27.825H74.5005V27.075H73.0505V27.825H71.6755V28.575H70.2505V29.4H68.8005V30.1H64.4505V29.4H63.3505V27.025H64.4505V26.2H65.8755V25.5H67.2505V24.875H68.5255V24.25H64.2755V23.4H63.3505V21.125H64.2755V20.25H83.2755ZM91.5175 7.225H109.367V8.225H110.367V20.55H109.367V21.55H105.942V20.55H104.942V12.05H91.5175V11.05H90.5175V8.225H91.5175V7.225ZM110.667 24.6V25.6H111.692V28.4H110.667V29.4H90.2175V28.4H89.1925V25.6H90.2175V24.6H96.0425V17.975H97.0425V16.975H100.492V17.975H101.517V24.6H110.667ZM145.717 20.95H139.517V24.6H146.942V25.6H147.967V28.4H146.942V29.4H126.492V28.4H125.467V25.6H126.492V24.6H133.917V20.95H127.792V19.95H126.792V8.225H127.792V7.225H145.567V8.225H146.567V10.975H145.567V12H132.217V16.175H145.717V17.175H146.717V19.95H145.717V20.95ZM166.859 24.25V28.075H165.884V29.15H162.859V28.075H161.909V26.925H160.984V25.85H160.134V24.825H158.934V25.85H158.084V26.925H157.159V28.075H156.184V29.15H153.059V28.075H152.084V24.25H152.959V23.175H153.909V22.125H154.784V21.15H155.634V20.3H156.434V8.25H157.459V7.225H161.484V8.25H162.509V20.3H163.284V21.15H164.159V22.125H165.034V23.175H165.959V24.25H166.859ZM164.934 18.725V17.725H163.934V14.925H164.934V13.925H168.609V8.225H169.609V7.225H173.134V8.225H174.134V29H173.134V30H169.609V29H168.609V18.725H164.934ZM192.801 7.225V8.225H193.801V14.825H192.801V15.825H189.501V14.825H188.501V11.65H180.651V10.7H179.651V8.15H180.651V7.225H192.801ZM199.651 7.225V8.225H200.626V12.5H202.051V13.425H202.751V16.3H202.051V17.2H200.626V21.75H199.651V22.75H196.226V21.75H195.226V8.225H196.226V7.225H199.651ZM193.501 16.875V17.875H194.401V20.25H193.501V21.25H179.676V20.25H178.751V17.875H179.676V16.875H182.001V13.875H183.001V12.95H186.251V13.875H187.251V16.875H193.501ZM181.201 30V29H180.176V23.25H181.201V22.25H184.651V23.25H185.651V25.65H200.176V26.65H201.176V29H200.176V30H181.201ZM207.043 20.925V19.925H206.043V17.175H207.043V16.175H214.043V11.95H207.043V10.95H206.043V8.225H207.043V7.225H218.418V8.225H219.443V28.175H218.418V29.175H215.068V28.175H214.043V20.925H207.043ZM226.368 7.225V8.225H227.318V15.575H228.943V16.475H229.693V19.525H228.943V20.425H227.318V29H226.368V30H222.768V29H221.793V8.225H222.768V7.225H226.368ZM243.485 8.075H244.11V10.975H243.485V11.825H242.56V16.35H243.31V15.45H244.835V8.225H245.735V7.225H248.435V8.225H249.36V29H248.435V30H245.735V29H244.835V20.25H243.31V19.35H242.56V24.4H243.485V25.3H244.11V28.2H243.485V29.05H233.01V28.2H232.285V25.3H233.01V24.4H233.96V11.825H233.01V10.975H232.285V8.075H233.01V7.225H243.485V8.075ZM254.06 29V30H251.335V29H250.41V8.225H251.335V7.225H254.06V8.225H254.96V29H254.06ZM238.71 11.825H237.785V24.4H238.71V11.825ZM271.134 17.825V16.825H270.134V14.325H271.134V13.325H284.684V11.775H271.134V10.775H270.134V8.225H271.134V7.225H289.084V8.225H290.084V18.675H289.084V19.675H285.684V18.875H284.684V17.825H271.134ZM269.934 25.2V24.225H268.909V21.475H269.934V20.45H290.384V21.475H291.409V24.225H290.384V25.2H282.984V29.15H281.984V30.15H278.334V29.15H277.334V25.2H269.934ZM316.576 16.7H309.726V17.975H317.351V18.825H318.201V21.25H317.351V22.1H296.551V21.25H295.701V18.825H296.551V17.975H304.176V16.7H297.326V15.85H296.526V13.725H297.326V12.85H299.451V11.075H297.326V10.225H296.526V8.075H297.326V7.225H316.576V8.075H317.376V10.225H316.576V11.075H314.476V12.85H316.576V13.725H317.376V15.85H316.576V16.7ZM308.976 11.075H304.951V12.85H308.976V11.075ZM297.726 30V29H296.726V23.875H297.726V22.95H301.176V23.875H302.176V25.8H316.576V26.8H317.576V29H316.576V30H297.726ZM344.876 8.225H345.876V18.6H344.876V19.6H333.451V18.6H332.451V8.225H333.451V7.225H336.551V8.225H337.551V10.05H340.776V8.225H341.776V7.225H344.876V8.225ZM352.501 7.225V8.225H353.451V11.025H354.926V11.925H355.676V14.825H354.926V15.725H353.451V18.675H352.501V19.675H349.001V18.675H348.001V8.225H349.001V7.225H352.501ZM337.476 13.85V15.7H340.826V13.85H337.476ZM334.076 21.9V20.9H352.926V21.8H353.926V23.95H352.926V24.875H338.476V26H353.076V26.9H354.076V29.1H353.076V30H334.076V29H333.076V21.9H334.076ZM362.918 11.925H359.743V10.925H358.743V8.225H359.743V7.225H372.193V8.225H373.218V10.925H372.193V11.925H369.043V21.075H370.043V22.125H371.143V23.275H372.293V24.5H373.368V28.075H372.418V29.15H369.418V28.075H368.418V27.025H367.443V26.05H366.593V25.15H365.493V26.05H364.643V27.025H363.668V28.075H362.668V29.15H359.543V28.075H358.593V24.5H359.668V23.275H360.818V22.125H361.918V21.075H362.918V11.925ZM379.293 8.225H380.243V15.575H381.868V16.475H382.618V19.525H381.868V20.425H380.243V29H379.293V30H375.693V29H374.718V8.225H375.693V7.225H379.293V8.225ZM391.135 8.125H392.11V21.75H391.185V22.65H387.535V21.75H386.635V8.125H387.61V7.225H391.135V8.125ZM391.185 25.35H392.11V29.1H391.185V30H387.535V29.1H386.635V25.35H387.535V24.45H391.185V25.35Z"/>
</mask>
<path d="M28.9665 21.25H22.8665V24.6H30.2915V25.6H31.3165V28.4H30.2915V29.4H9.8415V28.4H8.8165V25.6H9.8415V24.6H17.2665V21.25H11.1415V20.25H10.1415V8.225H11.1415V7.225H14.5415V8.225H15.5665V10.125H24.5665V8.225H25.5665V7.225H28.9665V8.225H29.9915V20.25H28.9665V21.25ZM24.5665 14.575H15.5665V16.75H24.5665V14.575ZM37.6835 8.225V7.225H56.0585V8.225H57.0585V13.5H56.0585V14.5H37.6835V13.5H36.6835V8.225H37.6835ZM41.9335 10.35V11.375H51.8085V10.35H41.9335ZM35.6085 16.05H36.4585V15.2H57.2585V16.05H58.1085V17.875H57.2585V18.725H49.7085V19.6H56.1835V20.425H57.0085V25.375H56.1835V26.2H41.9585V26.95H56.8335V27.725H57.6335V29.25H56.8335V30H37.4335V29.175H36.6335V24.175H37.4335V23.35H51.6585V22.625H37.4335V21.85H36.6335V20.375H37.4335V19.6H44.0085V18.725H36.4585V17.875H35.6085V16.05ZM66.7505 12.35H63.3005V11.45H62.3755V9.325H63.3005V8.4H66.7505V6.55H67.8005V5.7H71.4255V6.55H72.4755V8.4H75.9255V9.325H76.8505V11.45H75.9255V12.35H72.4755V13.225H73.5005V13.925H74.6005V14.7H75.7755V15.55H77.0005V18.225H76.0755V19.075H73.1755V18.225H72.1255V17.45H71.1255V16.725H70.1755V16.025H69.1505V16.725H68.2255V17.45H67.2005V18.225H66.1755V19.075H63.1505V18.225H62.2255V15.55H63.4505V14.7H64.6255V13.925H65.7255V13.225H66.7505V12.35ZM82.9255 8.225H83.8755V10.675H85.4005V11.6H86.1005V14.425H85.4005V15.325H83.8755V18.225H82.9255V19.225H79.4255V18.225H78.4255V8.225H79.4255V7.225H82.9255V8.225ZM83.2755 20.25V21.125H84.2005V23.4H83.2755V24.25H79.0255V24.875H80.3005V25.5H81.6755V26.2H83.1005V27.025H84.2005V29.4H83.1005V30.1H78.7505V29.4H77.3005V28.575H75.8755V27.825H74.5005V27.075H73.0505V27.825H71.6755V28.575H70.2505V29.4H68.8005V30.1H64.4505V29.4H63.3505V27.025H64.4505V26.2H65.8755V25.5H67.2505V24.875H68.5255V24.25H64.2755V23.4H63.3505V21.125H64.2755V20.25H83.2755ZM91.5175 7.225H109.367V8.225H110.367V20.55H109.367V21.55H105.942V20.55H104.942V12.05H91.5175V11.05H90.5175V8.225H91.5175V7.225ZM110.667 24.6V25.6H111.692V28.4H110.667V29.4H90.2175V28.4H89.1925V25.6H90.2175V24.6H96.0425V17.975H97.0425V16.975H100.492V17.975H101.517V24.6H110.667ZM145.717 20.95H139.517V24.6H146.942V25.6H147.967V28.4H146.942V29.4H126.492V28.4H125.467V25.6H126.492V24.6H133.917V20.95H127.792V19.95H126.792V8.225H127.792V7.225H145.567V8.225H146.567V10.975H145.567V12H132.217V16.175H145.717V17.175H146.717V19.95H145.717V20.95ZM166.859 24.25V28.075H165.884V29.15H162.859V28.075H161.909V26.925H160.984V25.85H160.134V24.825H158.934V25.85H158.084V26.925H157.159V28.075H156.184V29.15H153.059V28.075H152.084V24.25H152.959V23.175H153.909V22.125H154.784V21.15H155.634V20.3H156.434V8.25H157.459V7.225H161.484V8.25H162.509V20.3H163.284V21.15H164.159V22.125H165.034V23.175H165.959V24.25H166.859ZM164.934 18.725V17.725H163.934V14.925H164.934V13.925H168.609V8.225H169.609V7.225H173.134V8.225H174.134V29H173.134V30H169.609V29H168.609V18.725H164.934ZM192.801 7.225V8.225H193.801V14.825H192.801V15.825H189.501V14.825H188.501V11.65H180.651V10.7H179.651V8.15H180.651V7.225H192.801ZM199.651 7.225V8.225H200.626V12.5H202.051V13.425H202.751V16.3H202.051V17.2H200.626V21.75H199.651V22.75H196.226V21.75H195.226V8.225H196.226V7.225H199.651ZM193.501 16.875V17.875H194.401V20.25H193.501V21.25H179.676V20.25H178.751V17.875H179.676V16.875H182.001V13.875H183.001V12.95H186.251V13.875H187.251V16.875H193.501ZM181.201 30V29H180.176V23.25H181.201V22.25H184.651V23.25H185.651V25.65H200.176V26.65H201.176V29H200.176V30H181.201ZM207.043 20.925V19.925H206.043V17.175H207.043V16.175H214.043V11.95H207.043V10.95H206.043V8.225H207.043V7.225H218.418V8.225H219.443V28.175H218.418V29.175H215.068V28.175H214.043V20.925H207.043ZM226.368 7.225V8.225H227.318V15.575H228.943V16.475H229.693V19.525H228.943V20.425H227.318V29H226.368V30H222.768V29H221.793V8.225H222.768V7.225H226.368ZM243.485 8.075H244.11V10.975H243.485V11.825H242.56V16.35H243.31V15.45H244.835V8.225H245.735V7.225H248.435V8.225H249.36V29H248.435V30H245.735V29H244.835V20.25H243.31V19.35H242.56V24.4H243.485V25.3H244.11V28.2H243.485V29.05H233.01V28.2H232.285V25.3H233.01V24.4H233.96V11.825H233.01V10.975H232.285V8.075H233.01V7.225H243.485V8.075ZM254.06 29V30H251.335V29H250.41V8.225H251.335V7.225H254.06V8.225H254.96V29H254.06ZM238.71 11.825H237.785V24.4H238.71V11.825ZM271.134 17.825V16.825H270.134V14.325H271.134V13.325H284.684V11.775H271.134V10.775H270.134V8.225H271.134V7.225H289.084V8.225H290.084V18.675H289.084V19.675H285.684V18.875H284.684V17.825H271.134ZM269.934 25.2V24.225H268.909V21.475H269.934V20.45H290.384V21.475H291.409V24.225H290.384V25.2H282.984V29.15H281.984V30.15H278.334V29.15H277.334V25.2H269.934ZM316.576 16.7H309.726V17.975H317.351V18.825H318.201V21.25H317.351V22.1H296.551V21.25H295.701V18.825H296.551V17.975H304.176V16.7H297.326V15.85H296.526V13.725H297.326V12.85H299.451V11.075H297.326V10.225H296.526V8.075H297.326V7.225H316.576V8.075H317.376V10.225H316.576V11.075H314.476V12.85H316.576V13.725H317.376V15.85H316.576V16.7ZM308.976 11.075H304.951V12.85H308.976V11.075ZM297.726 30V29H296.726V23.875H297.726V22.95H301.176V23.875H302.176V25.8H316.576V26.8H317.576V29H316.576V30H297.726ZM344.876 8.225H345.876V18.6H344.876V19.6H333.451V18.6H332.451V8.225H333.451V7.225H336.551V8.225H337.551V10.05H340.776V8.225H341.776V7.225H344.876V8.225ZM352.501 7.225V8.225H353.451V11.025H354.926V11.925H355.676V14.825H354.926V15.725H353.451V18.675H352.501V19.675H349.001V18.675H348.001V8.225H349.001V7.225H352.501ZM337.476 13.85V15.7H340.826V13.85H337.476ZM334.076 21.9V20.9H352.926V21.8H353.926V23.95H352.926V24.875H338.476V26H353.076V26.9H354.076V29.1H353.076V30H334.076V29H333.076V21.9H334.076ZM362.918 11.925H359.743V10.925H358.743V8.225H359.743V7.225H372.193V8.225H373.218V10.925H372.193V11.925H369.043V21.075H370.043V22.125H371.143V23.275H372.293V24.5H373.368V28.075H372.418V29.15H369.418V28.075H368.418V27.025H367.443V26.05H366.593V25.15H365.493V26.05H364.643V27.025H363.668V28.075H362.668V29.15H359.543V28.075H358.593V24.5H359.668V23.275H360.818V22.125H361.918V21.075H362.918V11.925ZM379.293 8.225H380.243V15.575H381.868V16.475H382.618V19.525H381.868V20.425H380.243V29H379.293V30H375.693V29H374.718V8.225H375.693V7.225H379.293V8.225ZM391.135 8.125H392.11V21.75H391.185V22.65H387.535V21.75H386.635V8.125H387.61V7.225H391.135V8.125ZM391.185 25.35H392.11V29.1H391.185V30H387.535V29.1H386.635V25.35H387.535V24.45H391.185V25.35Z" fill="white"/>
<path d="M28.9665 21.25V24.25H31.9665V21.25H28.9665ZM22.8665 21.25V18.25H19.8665V21.25H22.8665ZM22.8665 24.6H19.8665V27.6H22.8665V24.6ZM30.2915 24.6H33.2915V21.6H30.2915V24.6ZM30.2915 25.6H27.2915V28.6H30.2915V25.6ZM31.3165 25.6H34.3165V22.6H31.3165V25.6ZM31.3165 28.4V31.4H34.3165V28.4H31.3165ZM30.2915 28.4V25.4H27.2915V28.4H30.2915ZM30.2915 29.4V32.4H33.2915V29.4H30.2915ZM9.8415 29.4H6.8415V32.4H9.8415V29.4ZM9.8415 28.4H12.8415V25.4H9.8415V28.4ZM8.8165 28.4H5.8165V31.4H8.8165V28.4ZM8.8165 25.6V22.6H5.8165V25.6H8.8165ZM9.8415 25.6V28.6H12.8415V25.6H9.8415ZM9.8415 24.6V21.6H6.8415V24.6H9.8415ZM17.2665 24.6V27.6H20.2665V24.6H17.2665ZM17.2665 21.25H20.2665V18.25H17.2665V21.25ZM11.1415 21.25H8.1415V24.25H11.1415V21.25ZM11.1415 20.25H14.1415V17.25H11.1415V20.25ZM10.1415 20.25H7.1415V23.25H10.1415V20.25ZM10.1415 8.225V5.225H7.1415V8.225H10.1415ZM11.1415 8.225V11.225H14.1415V8.225H11.1415ZM11.1415 7.225V4.225H8.1415V7.225H11.1415ZM14.5415 7.225H17.5415V4.225H14.5415V7.225ZM14.5415 8.225H11.5415V11.225H14.5415V8.225ZM15.5665 8.225H18.5665V5.225H15.5665V8.225ZM15.5665 10.125H12.5665V13.125H15.5665V10.125ZM24.5665 10.125V13.125H27.5665V10.125H24.5665ZM24.5665 8.225V5.225H21.5665V8.225H24.5665ZM25.5665 8.225V11.225H28.5665V8.225H25.5665ZM25.5665 7.225V4.225H22.5665V7.225H25.5665ZM28.9665 7.225H31.9665V4.225H28.9665V7.225ZM28.9665 8.225H25.9665V11.225H28.9665V8.225ZM29.9915 8.225H32.9915V5.225H29.9915V8.225ZM29.9915 20.25V23.25H32.9915V20.25H29.9915ZM28.9665 20.25V17.25H25.9665V20.25H28.9665ZM24.5665 14.575H27.5665V11.575H24.5665V14.575ZM15.5665 14.575V11.575H12.5665V14.575H15.5665ZM15.5665 16.75H12.5665V19.75H15.5665V16.75ZM24.5665 16.75V19.75H27.5665V16.75H24.5665ZM28.9665 18.25H22.8665V24.25H28.9665V18.25ZM19.8665 21.25V24.6H25.8665V21.25H19.8665ZM22.8665 27.6H30.2915V21.6H22.8665V27.6ZM27.2915 24.6V25.6H33.2915V24.6H27.2915ZM30.2915 28.6H31.3165V22.6H30.2915V28.6ZM28.3165 25.6V28.4H34.3165V25.6H28.3165ZM31.3165 25.4H30.2915V31.4H31.3165V25.4ZM27.2915 28.4V29.4H33.2915V28.4H27.2915ZM30.2915 26.4H9.8415V32.4H30.2915V26.4ZM12.8415 29.4V28.4H6.8415V29.4H12.8415ZM9.8415 25.4H8.8165V31.4H9.8415V25.4ZM11.8165 28.4V25.6H5.8165V28.4H11.8165ZM8.8165 28.6H9.8415V22.6H8.8165V28.6ZM12.8415 25.6V24.6H6.8415V25.6H12.8415ZM9.8415 27.6H17.2665V21.6H9.8415V27.6ZM20.2665 24.6V21.25H14.2665V24.6H20.2665ZM17.2665 18.25H11.1415V24.25H17.2665V18.25ZM14.1415 21.25V20.25H8.1415V21.25H14.1415ZM11.1415 17.25H10.1415V23.25H11.1415V17.25ZM13.1415 20.25V8.225H7.1415V20.25H13.1415ZM10.1415 11.225H11.1415V5.225H10.1415V11.225ZM14.1415 8.225V7.225H8.1415V8.225H14.1415ZM11.1415 10.225H14.5415V4.225H11.1415V10.225ZM11.5415 7.225V8.225H17.5415V7.225H11.5415ZM14.5415 11.225H15.5665V5.225H14.5415V11.225ZM12.5665 8.225V10.125H18.5665V8.225H12.5665ZM15.5665 13.125H24.5665V7.125H15.5665V13.125ZM27.5665 10.125V8.225H21.5665V10.125H27.5665ZM24.5665 11.225H25.5665V5.225H24.5665V11.225ZM28.5665 8.225V7.225H22.5665V8.225H28.5665ZM25.5665 10.225H28.9665V4.225H25.5665V10.225ZM25.9665 7.225V8.225H31.9665V7.225H25.9665ZM28.9665 11.225H29.9915V5.225H28.9665V11.225ZM26.9915 8.225V20.25H32.9915V8.225H26.9915ZM29.9915 17.25H28.9665V23.25H29.9915V17.25ZM25.9665 20.25V21.25H31.9665V20.25H25.9665ZM24.5665 11.575H15.5665V17.575H24.5665V11.575ZM12.5665 14.575V16.75H18.5665V14.575H12.5665ZM15.5665 19.75H24.5665V13.75H15.5665V19.75ZM27.5665 16.75V14.575H21.5665V16.75H27.5665ZM37.6835 8.225V11.225H40.6835V8.225H37.6835ZM37.6835 7.225V4.225H34.6835V7.225H37.6835ZM56.0585 7.225H59.0585V4.225H56.0585V7.225ZM56.0585 8.225H53.0585V11.225H56.0585V8.225ZM57.0585 8.225H60.0585V5.225H57.0585V8.225ZM57.0585 13.5V16.5H60.0585V13.5H57.0585ZM56.0585 13.5V10.5H53.0585V13.5H56.0585ZM56.0585 14.5V17.5H59.0585V14.5H56.0585ZM37.6835 14.5H34.6835V17.5H37.6835V14.5ZM37.6835 13.5H40.6835V10.5H37.6835V13.5ZM36.6835 13.5H33.6835V16.5H36.6835V13.5ZM36.6835 8.225V5.225H33.6835V8.225H36.6835ZM41.9335 10.35V7.35H38.9335V10.35H41.9335ZM41.9335 11.375H38.9335V14.375H41.9335V11.375ZM51.8085 11.375V14.375H54.8085V11.375H51.8085ZM51.8085 10.35H54.8085V7.35H51.8085V10.35ZM35.6085 16.05V13.05H32.6085V16.05H35.6085ZM36.4585 16.05V19.05H39.4585V16.05H36.4585ZM36.4585 15.2V12.2H33.4585V15.2H36.4585ZM57.2585 15.2H60.2585V12.2H57.2585V15.2ZM57.2585 16.05H54.2585V19.05H57.2585V16.05ZM58.1085 16.05H61.1085V13.05H58.1085V16.05ZM58.1085 17.875V20.875H61.1085V17.875H58.1085ZM57.2585 17.875V14.875H54.2585V17.875H57.2585ZM57.2585 18.725V21.725H60.2585V18.725H57.2585ZM49.7085 18.725V15.725H46.7085V18.725H49.7085ZM49.7085 19.6H46.7085V22.6H49.7085V19.6ZM56.1835 19.6H59.1835V16.6H56.1835V19.6ZM56.1835 20.425H53.1835V23.425H56.1835V20.425ZM57.0085 20.425H60.0085V17.425H57.0085V20.425ZM57.0085 25.375V28.375H60.0085V25.375H57.0085ZM56.1835 25.375V22.375H53.1835V25.375H56.1835ZM56.1835 26.2V29.2H59.1835V26.2H56.1835ZM41.9585 26.2V23.2H38.9585V26.2H41.9585ZM41.9585 26.95H38.9585V29.95H41.9585V26.95ZM56.8335 26.95H59.8335V23.95H56.8335V26.95ZM56.8335 27.725H53.8335V30.725H56.8335V27.725ZM57.6335 27.725H60.6335V24.725H57.6335V27.725ZM57.6335 29.25V32.25H60.6335V29.25H57.6335ZM56.8335 29.25V26.25H53.8335V29.25H56.8335ZM56.8335 30V33H59.8335V30H56.8335ZM37.4335 30H34.4335V33H37.4335V30ZM37.4335 29.175H40.4335V26.175H37.4335V29.175ZM36.6335 29.175H33.6335V32.175H36.6335V29.175ZM36.6335 24.175V21.175H33.6335V24.175H36.6335ZM37.4335 24.175V27.175H40.4335V24.175H37.4335ZM37.4335 23.35V20.35H34.4335V23.35H37.4335ZM51.6585 23.35V26.35H54.6585V23.35H51.6585ZM51.6585 22.625H54.6585V19.625H51.6585V22.625ZM37.4335 22.625H34.4335V25.625H37.4335V22.625ZM37.4335 21.85H40.4335V18.85H37.4335V21.85ZM36.6335 21.85H33.6335V24.85H36.6335V21.85ZM36.6335 20.375V17.375H33.6335V20.375H36.6335ZM37.4335 20.375V23.375H40.4335V20.375H37.4335ZM37.4335 19.6V16.6H34.4335V19.6H37.4335ZM44.0085 19.6V22.6H47.0085V19.6H44.0085ZM44.0085 18.725H47.0085V15.725H44.0085V18.725ZM36.4585 18.725H33.4585V21.725H36.4585V18.725ZM36.4585 17.875H39.4585V14.875H36.4585V17.875ZM35.6085 17.875H32.6085V20.875H35.6085V17.875ZM40.6835 8.225V7.225H34.6835V8.225H40.6835ZM37.6835 10.225H56.0585V4.225H37.6835V10.225ZM53.0585 7.225V8.225H59.0585V7.225H53.0585ZM56.0585 11.225H57.0585V5.225H56.0585V11.225ZM54.0585 8.225V13.5H60.0585V8.225H54.0585ZM57.0585 10.5H56.0585V16.5H57.0585V10.5ZM53.0585 13.5V14.5H59.0585V13.5H53.0585ZM56.0585 11.5H37.6835V17.5H56.0585V11.5ZM40.6835 14.5V13.5H34.6835V14.5H40.6835ZM37.6835 10.5H36.6835V16.5H37.6835V10.5ZM39.6835 13.5V8.225H33.6835V13.5H39.6835ZM36.6835 11.225H37.6835V5.225H36.6835V11.225ZM38.9335 10.35V11.375H44.9335V10.35H38.9335ZM41.9335 14.375H51.8085V8.375H41.9335V14.375ZM54.8085 11.375V10.35H48.8085V11.375H54.8085ZM51.8085 7.35H41.9335V13.35H51.8085V7.35ZM35.6085 19.05H36.4585V13.05H35.6085V19.05ZM39.4585 16.05V15.2H33.4585V16.05H39.4585ZM36.4585 18.2H57.2585V12.2H36.4585V18.2ZM54.2585 15.2V16.05H60.2585V15.2H54.2585ZM57.2585 19.05H58.1085V13.05H57.2585V19.05ZM55.1085 16.05V17.875H61.1085V16.05H55.1085ZM58.1085 14.875H57.2585V20.875H58.1085V14.875ZM54.2585 17.875V18.725H60.2585V17.875H54.2585ZM57.2585 15.725H49.7085V21.725H57.2585V15.725ZM46.7085 18.725V19.6H52.7085V18.725H46.7085ZM49.7085 22.6H56.1835V16.6H49.7085V22.6ZM53.1835 19.6V20.425H59.1835V19.6H53.1835ZM56.1835 23.425H57.0085V17.425H56.1835V23.425ZM54.0085 20.425V25.375H60.0085V20.425H54.0085ZM57.0085 22.375H56.1835V28.375H57.0085V22.375ZM53.1835 25.375V26.2H59.1835V25.375H53.1835ZM56.1835 23.2H41.9585V29.2H56.1835V23.2ZM38.9585 26.2V26.95H44.9585V26.2H38.9585ZM41.9585 29.95H56.8335V23.95H41.9585V29.95ZM53.8335 26.95V27.725H59.8335V26.95H53.8335ZM56.8335 30.725H57.6335V24.725H56.8335V30.725ZM54.6335 27.725V29.25H60.6335V27.725H54.6335ZM57.6335 26.25H56.8335V32.25H57.6335V26.25ZM53.8335 29.25V30H59.8335V29.25H53.8335ZM56.8335 27H37.4335V33H56.8335V27ZM40.4335 30V29.175H34.4335V30H40.4335ZM37.4335 26.175H36.6335V32.175H37.4335V26.175ZM39.6335 29.175V24.175H33.6335V29.175H39.6335ZM36.6335 27.175H37.4335V21.175H36.6335V27.175ZM40.4335 24.175V23.35H34.4335V24.175H40.4335ZM37.4335 26.35H51.6585V20.35H37.4335V26.35ZM54.6585 23.35V22.625H48.6585V23.35H54.6585ZM51.6585 19.625H37.4335V25.625H51.6585V19.625ZM40.4335 22.625V21.85H34.4335V22.625H40.4335ZM37.4335 18.85H36.6335V24.85H37.4335V18.85ZM39.6335 21.85V20.375H33.6335V21.85H39.6335ZM36.6335 23.375H37.4335V17.375H36.6335V23.375ZM40.4335 20.375V19.6H34.4335V20.375H40.4335ZM37.4335 22.6H44.0085V16.6H37.4335V22.6ZM47.0085 19.6V18.725H41.0085V19.6H47.0085ZM44.0085 15.725H36.4585V21.725H44.0085V15.725ZM39.4585 18.725V17.875H33.4585V18.725H39.4585ZM36.4585 14.875H35.6085V20.875H36.4585V14.875ZM38.6085 17.875V16.05H32.6085V17.875H38.6085ZM66.7505 12.35H69.7505V9.35H66.7505V12.35ZM63.3005 12.35H60.3005V15.35H63.3005V12.35ZM63.3005 11.45H66.3005V8.45H63.3005V11.45ZM62.3755 11.45H59.3755V14.45H62.3755V11.45ZM62.3755 9.325V6.325H59.3755V9.325H62.3755ZM63.3005 9.325V12.325H66.3005V9.325H63.3005ZM63.3005 8.4V5.4H60.3005V8.4H63.3005ZM66.7505 8.4V11.4H69.7505V8.4H66.7505ZM66.7505 6.55V3.55H63.7505V6.55H66.7505ZM67.8005 6.55V9.55H70.8005V6.55H67.8005ZM67.8005 5.7V2.7H64.8005V5.7H67.8005ZM71.4255 5.7H74.4255V2.7H71.4255V5.7ZM71.4255 6.55H68.4255V9.55H71.4255V6.55ZM72.4755 6.55H75.4755V3.55H72.4755V6.55ZM72.4755 8.4H69.4755V11.4H72.4755V8.4ZM75.9255 8.4H78.9255V5.4H75.9255V8.4ZM75.9255 9.325H72.9255V12.325H75.9255V9.325ZM76.8505 9.325H79.8505V6.325H76.8505V9.325ZM76.8505 11.45V14.45H79.8505V11.45H76.8505ZM75.9255 11.45V8.45H72.9255V11.45H75.9255ZM75.9255 12.35V15.35H78.9255V12.35H75.9255ZM72.4755 12.35V9.35H69.4755V12.35H72.4755ZM72.4755 13.225H69.4755V16.225H72.4755V13.225ZM73.5005 13.225H76.5005V10.225H73.5005V13.225ZM73.5005 13.925H70.5005V16.925H73.5005V13.925ZM74.6005 13.925H77.6005V10.925H74.6005V13.925ZM74.6005 14.7H71.6005V17.7H74.6005V14.7ZM75.7755 14.7H78.7755V11.7H75.7755V14.7ZM75.7755 15.55H72.7755V18.55H75.7755V15.55ZM77.0005 15.55H80.0005V12.55H77.0005V15.55ZM77.0005 18.225V21.225H80.0005V18.225H77.0005ZM76.0755 18.225V15.225H73.0755V18.225H76.0755ZM76.0755 19.075V22.075H79.0755V19.075H76.0755ZM73.1755 19.075H70.1755V22.075H73.1755V19.075ZM73.1755 18.225H76.1755V15.225H73.1755V18.225ZM72.1255 18.225H69.1255V21.225H72.1255V18.225ZM72.1255 17.45H75.1255V14.45H72.1255V17.45ZM71.1255 17.45H68.1255V20.45H71.1255V17.45ZM71.1255 16.725H74.1255V13.725H71.1255V16.725ZM70.1755 16.725H67.1755V19.725H70.1755V16.725ZM70.1755 16.025H73.1755V13.025H70.1755V16.025ZM69.1505 16.025V13.025H66.1505V16.025H69.1505ZM69.1505 16.725V19.725H72.1505V16.725H69.1505ZM68.2255 16.725V13.725H65.2255V16.725H68.2255ZM68.2255 17.45V20.45H71.2255V17.45H68.2255ZM67.2005 17.45V14.45H64.2005V17.45H67.2005ZM67.2005 18.225V21.225H70.2005V18.225H67.2005ZM66.1755 18.225V15.225H63.1755V18.225H66.1755ZM66.1755 19.075V22.075H69.1755V19.075H66.1755ZM63.1505 19.075H60.1505V22.075H63.1505V19.075ZM63.1505 18.225H66.1505V15.225H63.1505V18.225ZM62.2255 18.225H59.2255V21.225H62.2255V18.225ZM62.2255 15.55V12.55H59.2255V15.55H62.2255ZM63.4505 15.55V18.55H66.4505V15.55H63.4505ZM63.4505 14.7V11.7H60.4505V14.7H63.4505ZM64.6255 14.7V17.7H67.6255V14.7H64.6255ZM64.6255 13.925V10.925H61.6255V13.925H64.6255ZM65.7255 13.925V16.925H68.7255V13.925H65.7255ZM65.7255 13.225V10.225H62.7255V13.225H65.7255ZM66.7505 13.225V16.225H69.7505V13.225H66.7505ZM82.9255 8.225H79.9255V11.225H82.9255V8.225ZM83.8755 8.225H86.8755V5.225H83.8755V8.225ZM83.8755 10.675H80.8755V13.675H83.8755V10.675ZM85.4005 10.675H88.4005V7.675H85.4005V10.675ZM85.4005 11.6H82.4005V14.6H85.4005V11.6ZM86.1005 11.6H89.1005V8.6H86.1005V11.6ZM86.1005 14.425V17.425H89.1005V14.425H86.1005ZM85.4005 14.425V11.425H82.4005V14.425H85.4005ZM85.4005 15.325V18.325H88.4005V15.325H85.4005ZM83.8755 15.325V12.325H80.8755V15.325H83.8755ZM83.8755 18.225V21.225H86.8755V18.225H83.8755ZM82.9255 18.225V15.225H79.9255V18.225H82.9255ZM82.9255 19.225V22.225H85.9255V19.225H82.9255ZM79.4255 19.225H76.4255V22.225H79.4255V19.225ZM79.4255 18.225H82.4255V15.225H79.4255V18.225ZM78.4255 18.225H75.4255V21.225H78.4255V18.225ZM78.4255 8.225V5.225H75.4255V8.225H78.4255ZM79.4255 8.225V11.225H82.4255V8.225H79.4255ZM79.4255 7.225V4.225H76.4255V7.225H79.4255ZM82.9255 7.225H85.9255V4.225H82.9255V7.225ZM83.2755 20.25H86.2755V17.25H83.2755V20.25ZM83.2755 21.125H80.2755V24.125H83.2755V21.125ZM84.2005 21.125H87.2005V18.125H84.2005V21.125ZM84.2005 23.4V26.4H87.2005V23.4H84.2005ZM83.2755 23.4V20.4H80.2755V23.4H83.2755ZM83.2755 24.25V27.25H86.2755V24.25H83.2755ZM79.0255 24.25V21.25H76.0255V24.25H79.0255ZM79.0255 24.875H76.0255V27.875H79.0255V24.875ZM80.3005 24.875H83.3005V21.875H80.3005V24.875ZM80.3005 25.5H77.3005V28.5H80.3005V25.5ZM81.6755 25.5H84.6755V22.5H81.6755V25.5ZM81.6755 26.2H78.6755V29.2H81.6755V26.2ZM83.1005 26.2H86.1005V23.2H83.1005V26.2ZM83.1005 27.025H80.1005V30.025H83.1005V27.025ZM84.2005 27.025H87.2005V24.025H84.2005V27.025ZM84.2005 29.4V32.4H87.2005V29.4H84.2005ZM83.1005 29.4V26.4H80.1005V29.4H83.1005ZM83.1005 30.1V33.1H86.1005V30.1H83.1005ZM78.7505 30.1H75.7505V33.1H78.7505V30.1ZM78.7505 29.4H81.7505V26.4H78.7505V29.4ZM77.3005 29.4H74.3005V32.4H77.3005V29.4ZM77.3005 28.575H80.3005V25.575H77.3005V28.575ZM75.8755 28.575H72.8755V31.575H75.8755V28.575ZM75.8755 27.825H78.8755V24.825H75.8755V27.825ZM74.5005 27.825H71.5005V30.825H74.5005V27.825ZM74.5005 27.075H77.5005V24.075H74.5005V27.075ZM73.0505 27.075V24.075H70.0505V27.075H73.0505ZM73.0505 27.825V30.825H76.0505V27.825H73.0505ZM71.6755 27.825V24.825H68.6755V27.825H71.6755ZM71.6755 28.575V31.575H74.6755V28.575H71.6755ZM70.2505 28.575V25.575H67.2505V28.575H70.2505ZM70.2505 29.4V32.4H73.2505V29.4H70.2505ZM68.8005 29.4V26.4H65.8005V29.4H68.8005ZM68.8005 30.1V33.1H71.8005V30.1H68.8005ZM64.4505 30.1H61.4505V33.1H64.4505V30.1ZM64.4505 29.4H67.4505V26.4H64.4505V29.4ZM63.3505 29.4H60.3505V32.4H63.3505V29.4ZM63.3505 27.025V24.025H60.3505V27.025H63.3505ZM64.4505 27.025V30.025H67.4505V27.025H64.4505ZM64.4505 26.2V23.2H61.4505V26.2H64.4505ZM65.8755 26.2V29.2H68.8755V26.2H65.8755ZM65.8755 25.5V22.5H62.8755V25.5H65.8755ZM67.2505 25.5V28.5H70.2505V25.5H67.2505ZM67.2505 24.875V21.875H64.2505V24.875H67.2505ZM68.5255 24.875V27.875H71.5255V24.875H68.5255ZM68.5255 24.25H71.5255V21.25H68.5255V24.25ZM64.2755 24.25H61.2755V27.25H64.2755V24.25ZM64.2755 23.4H67.2755V20.4H64.2755V23.4ZM63.3505 23.4H60.3505V26.4H63.3505V23.4ZM63.3505 21.125V18.125H60.3505V21.125H63.3505ZM64.2755 21.125V24.125H67.2755V21.125H64.2755ZM64.2755 20.25V17.25H61.2755V20.25H64.2755ZM66.7505 9.35H63.3005V15.35H66.7505V9.35ZM66.3005 12.35V11.45H60.3005V12.35H66.3005ZM63.3005 8.45H62.3755V14.45H63.3005V8.45ZM65.3755 11.45V9.325H59.3755V11.45H65.3755ZM62.3755 12.325H63.3005V6.325H62.3755V12.325ZM66.3005 9.325V8.4H60.3005V9.325H66.3005ZM63.3005 11.4H66.7505V5.4H63.3005V11.4ZM69.7505 8.4V6.55H63.7505V8.4H69.7505ZM66.7505 9.55H67.8005V3.55H66.7505V9.55ZM70.8005 6.55V5.7H64.8005V6.55H70.8005ZM67.8005 8.7H71.4255V2.7H67.8005V8.7ZM68.4255 5.7V6.55H74.4255V5.7H68.4255ZM71.4255 9.55H72.4755V3.55H71.4255V9.55ZM69.4755 6.55V8.4H75.4755V6.55H69.4755ZM72.4755 11.4H75.9255V5.4H72.4755V11.4ZM72.9255 8.4V9.325H78.9255V8.4H72.9255ZM75.9255 12.325H76.8505V6.325H75.9255V12.325ZM73.8505 9.325V11.45H79.8505V9.325H73.8505ZM76.8505 8.45H75.9255V14.45H76.8505V8.45ZM72.9255 11.45V12.35H78.9255V11.45H72.9255ZM75.9255 9.35H72.4755V15.35H75.9255V9.35ZM69.4755 12.35V13.225H75.4755V12.35H69.4755ZM72.4755 16.225H73.5005V10.225H72.4755V16.225ZM70.5005 13.225V13.925H76.5005V13.225H70.5005ZM73.5005 16.925H74.6005V10.925H73.5005V16.925ZM71.6005 13.925V14.7H77.6005V13.925H71.6005ZM74.6005 17.7H75.7755V11.7H74.6005V17.7ZM72.7755 14.7V15.55H78.7755V14.7H72.7755ZM75.7755 18.55H77.0005V12.55H75.7755V18.55ZM74.0005 15.55V18.225H80.0005V15.55H74.0005ZM77.0005 15.225H76.0755V21.225H77.0005V15.225ZM73.0755 18.225V19.075H79.0755V18.225H73.0755ZM76.0755 16.075H73.1755V22.075H76.0755V16.075ZM76.1755 19.075V18.225H70.1755V19.075H76.1755ZM73.1755 15.225H72.1255V21.225H73.1755V15.225ZM75.1255 18.225V17.45H69.1255V18.225H75.1255ZM72.1255 14.45H71.1255V20.45H72.1255V14.45ZM74.1255 17.45V16.725H68.1255V17.45H74.1255ZM71.1255 13.725H70.1755V19.725H71.1255V13.725ZM73.1755 16.725V16.025H67.1755V16.725H73.1755ZM70.1755 13.025H69.1505V19.025H70.1755V13.025ZM66.1505 16.025V16.725H72.1505V16.025H66.1505ZM69.1505 13.725H68.2255V19.725H69.1505V13.725ZM65.2255 16.725V17.45H71.2255V16.725H65.2255ZM68.2255 14.45H67.2005V20.45H68.2255V14.45ZM64.2005 17.45V18.225H70.2005V17.45H64.2005ZM67.2005 15.225H66.1755V21.225H67.2005V15.225ZM63.1755 18.225V19.075H69.1755V18.225H63.1755ZM66.1755 16.075H63.1505V22.075H66.1755V16.075ZM66.1505 19.075V18.225H60.1505V19.075H66.1505ZM63.1505 15.225H62.2255V21.225H63.1505V15.225ZM65.2255 18.225V15.55H59.2255V18.225H65.2255ZM62.2255 18.55H63.4505V12.55H62.2255V18.55ZM66.4505 15.55V14.7H60.4505V15.55H66.4505ZM63.4505 17.7H64.6255V11.7H63.4505V17.7ZM67.6255 14.7V13.925H61.6255V14.7H67.6255ZM64.6255 16.925H65.7255V10.925H64.6255V16.925ZM68.7255 13.925V13.225H62.7255V13.925H68.7255ZM65.7255 16.225H66.7505V10.225H65.7255V16.225ZM69.7505 13.225V12.35H63.7505V13.225H69.7505ZM82.9255 11.225H83.8755V5.225H82.9255V11.225ZM80.8755 8.225V10.675H86.8755V8.225H80.8755ZM83.8755 13.675H85.4005V7.675H83.8755V13.675ZM82.4005 10.675V11.6H88.4005V10.675H82.4005ZM85.4005 14.6H86.1005V8.6H85.4005V14.6ZM83.1005 11.6V14.425H89.1005V11.6H83.1005ZM86.1005 11.425H85.4005V17.425H86.1005V11.425ZM82.4005 14.425V15.325H88.4005V14.425H82.4005ZM85.4005 12.325H83.8755V18.325H85.4005V12.325ZM80.8755 15.325V18.225H86.8755V15.325H80.8755ZM83.8755 15.225H82.9255V21.225H83.8755V15.225ZM79.9255 18.225V19.225H85.9255V18.225H79.9255ZM82.9255 16.225H79.4255V22.225H82.9255V16.225ZM82.4255 19.225V18.225H76.4255V19.225H82.4255ZM79.4255 15.225H78.4255V21.225H79.4255V15.225ZM81.4255 18.225V8.225H75.4255V18.225H81.4255ZM78.4255 11.225H79.4255V5.225H78.4255V11.225ZM82.4255 8.225V7.225H76.4255V8.225H82.4255ZM79.4255 10.225H82.9255V4.225H79.4255V10.225ZM79.9255 7.225V8.225H85.9255V7.225H79.9255ZM80.2755 20.25V21.125H86.2755V20.25H80.2755ZM83.2755 24.125H84.2005V18.125H83.2755V24.125ZM81.2005 21.125V23.4H87.2005V21.125H81.2005ZM84.2005 20.4H83.2755V26.4H84.2005V20.4ZM80.2755 23.4V24.25H86.2755V23.4H80.2755ZM83.2755 21.25H79.0255V27.25H83.2755V21.25ZM76.0255 24.25V24.875H82.0255V24.25H76.0255ZM79.0255 27.875H80.3005V21.875H79.0255V27.875ZM77.3005 24.875V25.5H83.3005V24.875H77.3005ZM80.3005 28.5H81.6755V22.5H80.3005V28.5ZM78.6755 25.5V26.2H84.6755V25.5H78.6755ZM81.6755 29.2H83.1005V23.2H81.6755V29.2ZM80.1005 26.2V27.025H86.1005V26.2H80.1005ZM83.1005 30.025H84.2005V24.025H83.1005V30.025ZM81.2005 27.025V29.4H87.2005V27.025H81.2005ZM84.2005 26.4H83.1005V32.4H84.2005V26.4ZM80.1005 29.4V30.1H86.1005V29.4H80.1005ZM83.1005 27.1H78.7505V33.1H83.1005V27.1ZM81.7505 30.1V29.4H75.7505V30.1H81.7505ZM78.7505 26.4H77.3005V32.4H78.7505V26.4ZM80.3005 29.4V28.575H74.3005V29.4H80.3005ZM77.3005 25.575H75.8755V31.575H77.3005V25.575ZM78.8755 28.575V27.825H72.8755V28.575H78.8755ZM75.8755 24.825H74.5005V30.825H75.8755V24.825ZM77.5005 27.825V27.075H71.5005V27.825H77.5005ZM74.5005 24.075H73.0505V30.075H74.5005V24.075ZM70.0505 27.075V27.825H76.0505V27.075H70.0505ZM73.0505 24.825H71.6755V30.825H73.0505V24.825ZM68.6755 27.825V28.575H74.6755V27.825H68.6755ZM71.6755 25.575H70.2505V31.575H71.6755V25.575ZM67.2505 28.575V29.4H73.2505V28.575H67.2505ZM70.2505 26.4H68.8005V32.4H70.2505V26.4ZM65.8005 29.4V30.1H71.8005V29.4H65.8005ZM68.8005 27.1H64.4505V33.1H68.8005V27.1ZM67.4505 30.1V29.4H61.4505V30.1H67.4505ZM64.4505 26.4H63.3505V32.4H64.4505V26.4ZM66.3505 29.4V27.025H60.3505V29.4H66.3505ZM63.3505 30.025H64.4505V24.025H63.3505V30.025ZM67.4505 27.025V26.2H61.4505V27.025H67.4505ZM64.4505 29.2H65.8755V23.2H64.4505V29.2ZM68.8755 26.2V25.5H62.8755V26.2H68.8755ZM65.8755 28.5H67.2505V22.5H65.8755V28.5ZM70.2505 25.5V24.875H64.2505V25.5H70.2505ZM67.2505 27.875H68.5255V21.875H67.2505V27.875ZM71.5255 24.875V24.25H65.5255V24.875H71.5255ZM68.5255 21.25H64.2755V27.25H68.5255V21.25ZM67.2755 24.25V23.4H61.2755V24.25H67.2755ZM64.2755 20.4H63.3505V26.4H64.2755V20.4ZM66.3505 23.4V21.125H60.3505V23.4H66.3505ZM63.3505 24.125H64.2755V18.125H63.3505V24.125ZM67.2755 21.125V20.25H61.2755V21.125H67.2755ZM64.2755 23.25H83.2755V17.25H64.2755V23.25ZM91.5175 7.225V4.225H88.5175V7.225H91.5175ZM109.367 7.225H112.367V4.225H109.367V7.225ZM109.367 8.225H106.367V11.225H109.367V8.225ZM110.367 8.225H113.367V5.225H110.367V8.225ZM110.367 20.55V23.55H113.367V20.55H110.367ZM109.367 20.55V17.55H106.367V20.55H109.367ZM109.367 21.55V24.55H112.367V21.55H109.367ZM105.942 21.55H102.942V24.55H105.942V21.55ZM105.942 20.55H108.942V17.55H105.942V20.55ZM104.942 20.55H101.942V23.55H104.942V20.55ZM104.942 12.05H107.942V9.05H104.942V12.05ZM91.5175 12.05H88.5175V15.05H91.5175V12.05ZM91.5175 11.05H94.5175V8.05H91.5175V11.05ZM90.5175 11.05H87.5175V14.05H90.5175V11.05ZM90.5175 8.225V5.225H87.5175V8.225H90.5175ZM91.5175 8.225V11.225H94.5175V8.225H91.5175ZM110.667 24.6H113.667V21.6H110.667V24.6ZM110.667 25.6H107.667V28.6H110.667V25.6ZM111.692 25.6H114.692V22.6H111.692V25.6ZM111.692 28.4V31.4H114.692V28.4H111.692ZM110.667 28.4V25.4H107.667V28.4H110.667ZM110.667 29.4V32.4H113.667V29.4H110.667ZM90.2175 29.4H87.2175V32.4H90.2175V29.4ZM90.2175 28.4H93.2175V25.4H90.2175V28.4ZM89.1925 28.4H86.1925V31.4H89.1925V28.4ZM89.1925 25.6V22.6H86.1925V25.6H89.1925ZM90.2175 25.6V28.6H93.2175V25.6H90.2175ZM90.2175 24.6V21.6H87.2175V24.6H90.2175ZM96.0425 24.6V27.6H99.0425V24.6H96.0425ZM96.0425 17.975V14.975H93.0425V17.975H96.0425ZM97.0425 17.975V20.975H100.042V17.975H97.0425ZM97.0425 16.975V13.975H94.0425V16.975H97.0425ZM100.492 16.975H103.492V13.975H100.492V16.975ZM100.492 17.975H97.4925V20.975H100.492V17.975ZM101.517 17.975H104.517V14.975H101.517V17.975ZM101.517 24.6H98.5175V27.6H101.517V24.6ZM91.5175 10.225H109.367V4.225H91.5175V10.225ZM106.367 7.225V8.225H112.367V7.225H106.367ZM109.367 11.225H110.367V5.225H109.367V11.225ZM107.367 8.225V20.55H113.367V8.225H107.367ZM110.367 17.55H109.367V23.55H110.367V17.55ZM106.367 20.55V21.55H112.367V20.55H106.367ZM109.367 18.55H105.942V24.55H109.367V18.55ZM108.942 21.55V20.55H102.942V21.55H108.942ZM105.942 17.55H104.942V23.55H105.942V17.55ZM107.942 20.55V12.05H101.942V20.55H107.942ZM104.942 9.05H91.5175V15.05H104.942V9.05ZM94.5175 12.05V11.05H88.5175V12.05H94.5175ZM91.5175 8.05H90.5175V14.05H91.5175V8.05ZM93.5175 11.05V8.225H87.5175V11.05H93.5175ZM90.5175 11.225H91.5175V5.225H90.5175V11.225ZM94.5175 8.225V7.225H88.5175V8.225H94.5175ZM107.667 24.6V25.6H113.667V24.6H107.667ZM110.667 28.6H111.692V22.6H110.667V28.6ZM108.692 25.6V28.4H114.692V25.6H108.692ZM111.692 25.4H110.667V31.4H111.692V25.4ZM107.667 28.4V29.4H113.667V28.4H107.667ZM110.667 26.4H90.2175V32.4H110.667V26.4ZM93.2175 29.4V28.4H87.2175V29.4H93.2175ZM90.2175 25.4H89.1925V31.4H90.2175V25.4ZM92.1925 28.4V25.6H86.1925V28.4H92.1925ZM89.1925 28.6H90.2175V22.6H89.1925V28.6ZM93.2175 25.6V24.6H87.2175V25.6H93.2175ZM90.2175 27.6H96.0425V21.6H90.2175V27.6ZM99.0425 24.6V17.975H93.0425V24.6H99.0425ZM96.0425 20.975H97.0425V14.975H96.0425V20.975ZM100.042 17.975V16.975H94.0425V17.975H100.042ZM97.0425 19.975H100.492V13.975H97.0425V19.975ZM97.4925 16.975V17.975H103.492V16.975H97.4925ZM100.492 20.975H101.517V14.975H100.492V20.975ZM98.5175 17.975V24.6H104.517V17.975H98.5175ZM101.517 27.6H110.667V21.6H101.517V27.6ZM145.717 20.95V23.95H148.717V20.95H145.717ZM139.517 20.95V17.95H136.517V20.95H139.517ZM139.517 24.6H136.517V27.6H139.517V24.6ZM146.942 24.6H149.942V21.6H146.942V24.6ZM146.942 25.6H143.942V28.6H146.942V25.6ZM147.967 25.6H150.967V22.6H147.967V25.6ZM147.967 28.4V31.4H150.967V28.4H147.967ZM146.942 28.4V25.4H143.942V28.4H146.942ZM146.942 29.4V32.4H149.942V29.4H146.942ZM126.492 29.4H123.492V32.4H126.492V29.4ZM126.492 28.4H129.492V25.4H126.492V28.4ZM125.467 28.4H122.467V31.4H125.467V28.4ZM125.467 25.6V22.6H122.467V25.6H125.467ZM126.492 25.6V28.6H129.492V25.6H126.492ZM126.492 24.6V21.6H123.492V24.6H126.492ZM133.917 24.6V27.6H136.917V24.6H133.917ZM133.917 20.95H136.917V17.95H133.917V20.95ZM127.792 20.95H124.792V23.95H127.792V20.95ZM127.792 19.95H130.792V16.95H127.792V19.95ZM126.792 19.95H123.792V22.95H126.792V19.95ZM126.792 8.225V5.225H123.792V8.225H126.792ZM127.792 8.225V11.225H130.792V8.225H127.792ZM127.792 7.225V4.225H124.792V7.225H127.792ZM145.567 7.225H148.567V4.225H145.567V7.225ZM145.567 8.225H142.567V11.225H145.567V8.225ZM146.567 8.225H149.567V5.225H146.567V8.225ZM146.567 10.975V13.975H149.567V10.975H146.567ZM145.567 10.975V7.975H142.567V10.975H145.567ZM145.567 12V15H148.567V12H145.567ZM132.217 12V9H129.217V12H132.217ZM132.217 16.175H129.217V19.175H132.217V16.175ZM145.717 16.175H148.717V13.175H145.717V16.175ZM145.717 17.175H142.717V20.175H145.717V17.175ZM146.717 17.175H149.717V14.175H146.717V17.175ZM146.717 19.95V22.95H149.717V19.95H146.717ZM145.717 19.95V16.95H142.717V19.95H145.717ZM145.717 17.95H139.517V23.95H145.717V17.95ZM136.517 20.95V24.6H142.517V20.95H136.517ZM139.517 27.6H146.942V21.6H139.517V27.6ZM143.942 24.6V25.6H149.942V24.6H143.942ZM146.942 28.6H147.967V22.6H146.942V28.6ZM144.967 25.6V28.4H150.967V25.6H144.967ZM147.967 25.4H146.942V31.4H147.967V25.4ZM143.942 28.4V29.4H149.942V28.4H143.942ZM146.942 26.4H126.492V32.4H146.942V26.4ZM129.492 29.4V28.4H123.492V29.4H129.492ZM126.492 25.4H125.467V31.4H126.492V25.4ZM128.467 28.4V25.6H122.467V28.4H128.467ZM125.467 28.6H126.492V22.6H125.467V28.6ZM129.492 25.6V24.6H123.492V25.6H129.492ZM126.492 27.6H133.917V21.6H126.492V27.6ZM136.917 24.6V20.95H130.917V24.6H136.917ZM133.917 17.95H127.792V23.95H133.917V17.95ZM130.792 20.95V19.95H124.792V20.95H130.792ZM127.792 16.95H126.792V22.95H127.792V16.95ZM129.792 19.95V8.225H123.792V19.95H129.792ZM126.792 11.225H127.792V5.225H126.792V11.225ZM130.792 8.225V7.225H124.792V8.225H130.792ZM127.792 10.225H145.567V4.225H127.792V10.225ZM142.567 7.225V8.225H148.567V7.225H142.567ZM145.567 11.225H146.567V5.225H145.567V11.225ZM143.567 8.225V10.975H149.567V8.225H143.567ZM146.567 7.975H145.567V13.975H146.567V7.975ZM142.567 10.975V12H148.567V10.975H142.567ZM145.567 9H132.217V15H145.567V9ZM129.217 12V16.175H135.217V12H129.217ZM132.217 19.175H145.717V13.175H132.217V19.175ZM142.717 16.175V17.175H148.717V16.175H142.717ZM145.717 20.175H146.717V14.175H145.717V20.175ZM143.717 17.175V19.95H149.717V17.175H143.717ZM146.717 16.95H145.717V22.95H146.717V16.95ZM142.717 19.95V20.95H148.717V19.95H142.717ZM166.859 24.25H169.859V21.25H166.859V24.25ZM166.859 28.075V31.075H169.859V28.075H166.859ZM165.884 28.075V25.075H162.884V28.075H165.884ZM165.884 29.15V32.15H168.884V29.15H165.884ZM162.859 29.15H159.859V32.15H162.859V29.15ZM162.859 28.075H165.859V25.075H162.859V28.075ZM161.909 28.075H158.909V31.075H161.909V28.075ZM161.909 26.925H164.909V23.925H161.909V26.925ZM160.984 26.925H157.984V29.925H160.984V26.925ZM160.984 25.85H163.984V22.85H160.984V25.85ZM160.134 25.85H157.134V28.85H160.134V25.85ZM160.134 24.825H163.134V21.825H160.134V24.825ZM158.934 24.825V21.825H155.934V24.825H158.934ZM158.934 25.85V28.85H161.934V25.85H158.934ZM158.084 25.85V22.85H155.084V25.85H158.084ZM158.084 26.925V29.925H161.084V26.925H158.084ZM157.159 26.925V23.925H154.159V26.925H157.159ZM157.159 28.075V31.075H160.159V28.075H157.159ZM156.184 28.075V25.075H153.184V28.075H156.184ZM156.184 29.15V32.15H159.184V29.15H156.184ZM153.059 29.15H150.059V32.15H153.059V29.15ZM153.059 28.075H156.059V25.075H153.059V28.075ZM152.084 28.075H149.084V31.075H152.084V28.075ZM152.084 24.25V21.25H149.084V24.25H152.084ZM152.959 24.25V27.25H155.959V24.25H152.959ZM152.959 23.175V20.175H149.959V23.175H152.959ZM153.909 23.175V26.175H156.909V23.175H153.909ZM153.909 22.125V19.125H150.909V22.125H153.909ZM154.784 22.125V25.125H157.784V22.125H154.784ZM154.784 21.15V18.15H151.784V21.15H154.784ZM155.634 21.15V24.15H158.634V21.15H155.634ZM155.634 20.3V17.3H152.634V20.3H155.634ZM156.434 20.3V23.3H159.434V20.3H156.434ZM156.434 8.25V5.25H153.434V8.25H156.434ZM157.459 8.25V11.25H160.459V8.25H157.459ZM157.459 7.225V4.225H154.459V7.225H157.459ZM161.484 7.225H164.484V4.225H161.484V7.225ZM161.484 8.25H158.484V11.25H161.484V8.25ZM162.509 8.25H165.509V5.25H162.509V8.25ZM162.509 20.3H159.509V23.3H162.509V20.3ZM163.284 20.3H166.284V17.3H163.284V20.3ZM163.284 21.15H160.284V24.15H163.284V21.15ZM164.159 21.15H167.159V18.15H164.159V21.15ZM164.159 22.125H161.159V25.125H164.159V22.125ZM165.034 22.125H168.034V19.125H165.034V22.125ZM165.034 23.175H162.034V26.175H165.034V23.175ZM165.959 23.175H168.959V20.175H165.959V23.175ZM165.959 24.25H162.959V27.25H165.959V24.25ZM164.934 18.725H161.934V21.725H164.934V18.725ZM164.934 17.725H167.934V14.725H164.934V17.725ZM163.934 17.725H160.934V20.725H163.934V17.725ZM163.934 14.925V11.925H160.934V14.925H163.934ZM164.934 14.925V17.925H167.934V14.925H164.934ZM164.934 13.925V10.925H161.934V13.925H164.934ZM168.609 13.925V16.925H171.609V13.925H168.609ZM168.609 8.225V5.225H165.609V8.225H168.609ZM169.609 8.225V11.225H172.609V8.225H169.609ZM169.609 7.225V4.225H166.609V7.225H169.609ZM173.134 7.225H176.134V4.225H173.134V7.225ZM173.134 8.225H170.134V11.225H173.134V8.225ZM174.134 8.225H177.134V5.225H174.134V8.225ZM174.134 29V32H177.134V29H174.134ZM173.134 29V26H170.134V29H173.134ZM173.134 30V33H176.134V30H173.134ZM169.609 30H166.609V33H169.609V30ZM169.609 29H172.609V26H169.609V29ZM168.609 29H165.609V32H168.609V29ZM168.609 18.725H171.609V15.725H168.609V18.725ZM163.859 24.25V28.075H169.859V24.25H163.859ZM166.859 25.075H165.884V31.075H166.859V25.075ZM162.884 28.075V29.15H168.884V28.075H162.884ZM165.884 26.15H162.859V32.15H165.884V26.15ZM165.859 29.15V28.075H159.859V29.15H165.859ZM162.859 25.075H161.909V31.075H162.859V25.075ZM164.909 28.075V26.925H158.909V28.075H164.909ZM161.909 23.925H160.984V29.925H161.909V23.925ZM163.984 26.925V25.85H157.984V26.925H163.984ZM160.984 22.85H160.134V28.85H160.984V22.85ZM163.134 25.85V24.825H157.134V25.85H163.134ZM160.134 21.825H158.934V27.825H160.134V21.825ZM155.934 24.825V25.85H161.934V24.825H155.934ZM158.934 22.85H158.084V28.85H158.934V22.85ZM155.084 25.85V26.925H161.084V25.85H155.084ZM158.084 23.925H157.159V29.925H158.084V23.925ZM154.159 26.925V28.075H160.159V26.925H154.159ZM157.159 25.075H156.184V31.075H157.159V25.075ZM153.184 28.075V29.15H159.184V28.075H153.184ZM156.184 26.15H153.059V32.15H156.184V26.15ZM156.059 29.15V28.075H150.059V29.15H156.059ZM153.059 25.075H152.084V31.075H153.059V25.075ZM155.084 28.075V24.25H149.084V28.075H155.084ZM152.084 27.25H152.959V21.25H152.084V27.25ZM155.959 24.25V23.175H149.959V24.25H155.959ZM152.959 26.175H153.909V20.175H152.959V26.175ZM156.909 23.175V22.125H150.909V23.175H156.909ZM153.909 25.125H154.784V19.125H153.909V25.125ZM157.784 22.125V21.15H151.784V22.125H157.784ZM154.784 24.15H155.634V18.15H154.784V24.15ZM158.634 21.15V20.3H152.634V21.15H158.634ZM155.634 23.3H156.434V17.3H155.634V23.3ZM159.434 20.3V8.25H153.434V20.3H159.434ZM156.434 11.25H157.459V5.25H156.434V11.25ZM160.459 8.25V7.225H154.459V8.25H160.459ZM157.459 10.225H161.484V4.225H157.459V10.225ZM158.484 7.225V8.25H164.484V7.225H158.484ZM161.484 11.25H162.509V5.25H161.484V11.25ZM159.509 8.25V20.3H165.509V8.25H159.509ZM162.509 23.3H163.284V17.3H162.509V23.3ZM160.284 20.3V21.15H166.284V20.3H160.284ZM163.284 24.15H164.159V18.15H163.284V24.15ZM161.159 21.15V22.125H167.159V21.15H161.159ZM164.159 25.125H165.034V19.125H164.159V25.125ZM162.034 22.125V23.175H168.034V22.125H162.034ZM165.034 26.175H165.959V20.175H165.034V26.175ZM162.959 23.175V24.25H168.959V23.175H162.959ZM165.959 27.25H166.859V21.25H165.959V27.25ZM167.934 18.725V17.725H161.934V18.725H167.934ZM164.934 14.725H163.934V20.725H164.934V14.725ZM166.934 17.725V14.925H160.934V17.725H166.934ZM163.934 17.925H164.934V11.925H163.934V17.925ZM167.934 14.925V13.925H161.934V14.925H167.934ZM164.934 16.925H168.609V10.925H164.934V16.925ZM171.609 13.925V8.225H165.609V13.925H171.609ZM168.609 11.225H169.609V5.225H168.609V11.225ZM172.609 8.225V7.225H166.609V8.225H172.609ZM169.609 10.225H173.134V4.225H169.609V10.225ZM170.134 7.225V8.225H176.134V7.225H170.134ZM173.134 11.225H174.134V5.225H173.134V11.225ZM171.134 8.225V29H177.134V8.225H171.134ZM174.134 26H173.134V32H174.134V26ZM170.134 29V30H176.134V29H170.134ZM173.134 27H169.609V33H173.134V27ZM172.609 30V29H166.609V30H172.609ZM169.609 26H168.609V32H169.609V26ZM171.609 29V18.725H165.609V29H171.609ZM168.609 15.725H164.934V21.725H168.609V15.725ZM192.801 7.225H195.801V4.225H192.801V7.225ZM192.801 8.225H189.801V11.225H192.801V8.225ZM193.801 8.225H196.801V5.225H193.801V8.225ZM193.801 14.825V17.825H196.801V14.825H193.801ZM192.801 14.825V11.825H189.801V14.825H192.801ZM192.801 15.825V18.825H195.801V15.825H192.801ZM189.501 15.825H186.501V18.825H189.501V15.825ZM189.501 14.825H192.501V11.825H189.501V14.825ZM188.501 14.825H185.501V17.825H188.501V14.825ZM188.501 11.65H191.501V8.65H188.501V11.65ZM180.651 11.65H177.651V14.65H180.651V11.65ZM180.651 10.7H183.651V7.7H180.651V10.7ZM179.651 10.7H176.651V13.7H179.651V10.7ZM179.651 8.15V5.15H176.651V8.15H179.651ZM180.651 8.15V11.15H183.651V8.15H180.651ZM180.651 7.225V4.225H177.651V7.225H180.651ZM199.651 7.225H202.651V4.225H199.651V7.225ZM199.651 8.225H196.651V11.225H199.651V8.225ZM200.626 8.225H203.626V5.225H200.626V8.225ZM200.626 12.5H197.626V15.5H200.626V12.5ZM202.051 12.5H205.051V9.5H202.051V12.5ZM202.051 13.425H199.051V16.425H202.051V13.425ZM202.751 13.425H205.751V10.425H202.751V13.425ZM202.751 16.3V19.3H205.751V16.3H202.751ZM202.051 16.3V13.3H199.051V16.3H202.051ZM202.051 17.2V20.2H205.051V17.2H202.051ZM200.626 17.2V14.2H197.626V17.2H200.626ZM200.626 21.75V24.75H203.626V21.75H200.626ZM199.651 21.75V18.75H196.651V21.75H199.651ZM199.651 22.75V25.75H202.651V22.75H199.651ZM196.226 22.75H193.226V25.75H196.226V22.75ZM196.226 21.75H199.226V18.75H196.226V21.75ZM195.226 21.75H192.226V24.75H195.226V21.75ZM195.226 8.225V5.225H192.226V8.225H195.226ZM196.226 8.225V11.225H199.226V8.225H196.226ZM196.226 7.225V4.225H193.226V7.225H196.226ZM193.501 16.875H196.501V13.875H193.501V16.875ZM193.501 17.875H190.501V20.875H193.501V17.875ZM194.401 17.875H197.401V14.875H194.401V17.875ZM194.401 20.25V23.25H197.401V20.25H194.401ZM193.501 20.25V17.25H190.501V20.25H193.501ZM193.501 21.25V24.25H196.501V21.25H193.501ZM179.676 21.25H176.676V24.25H179.676V21.25ZM179.676 20.25H182.676V17.25H179.676V20.25ZM178.751 20.25H175.751V23.25H178.751V20.25ZM178.751 17.875V14.875H175.751V17.875H178.751ZM179.676 17.875V20.875H182.676V17.875H179.676ZM179.676 16.875V13.875H176.676V16.875H179.676ZM182.001 16.875V19.875H185.001V16.875H182.001ZM182.001 13.875V10.875H179.001V13.875H182.001ZM183.001 13.875V16.875H186.001V13.875H183.001ZM183.001 12.95V9.95H180.001V12.95H183.001ZM186.251 12.95H189.251V9.95H186.251V12.95ZM186.251 13.875H183.251V16.875H186.251V13.875ZM187.251 13.875H190.251V10.875H187.251V13.875ZM187.251 16.875H184.251V19.875H187.251V16.875ZM181.201 30H178.201V33H181.201V30ZM181.201 29H184.201V26H181.201V29ZM180.176 29H177.176V32H180.176V29ZM180.176 23.25V20.25H177.176V23.25H180.176ZM181.201 23.25V26.25H184.201V23.25H181.201ZM181.201 22.25V19.25H178.201V22.25H181.201ZM184.651 22.25H187.651V19.25H184.651V22.25ZM184.651 23.25H181.651V26.25H184.651V23.25ZM185.651 23.25H188.651V20.25H185.651V23.25ZM185.651 25.65H182.651V28.65H185.651V25.65ZM200.176 25.65H203.176V22.65H200.176V25.65ZM200.176 26.65H197.176V29.65H200.176V26.65ZM201.176 26.65H204.176V23.65H201.176V26.65ZM201.176 29V32H204.176V29H201.176ZM200.176 29V26H197.176V29H200.176ZM200.176 30V33H203.176V30H200.176ZM189.801 7.225V8.225H195.801V7.225H189.801ZM192.801 11.225H193.801V5.225H192.801V11.225ZM190.801 8.225V14.825H196.801V8.225H190.801ZM193.801 11.825H192.801V17.825H193.801V11.825ZM189.801 14.825V15.825H195.801V14.825H189.801ZM192.801 12.825H189.501V18.825H192.801V12.825ZM192.501 15.825V14.825H186.501V15.825H192.501ZM189.501 11.825H188.501V17.825H189.501V11.825ZM191.501 14.825V11.65H185.501V14.825H191.501ZM188.501 8.65H180.651V14.65H188.501V8.65ZM183.651 11.65V10.7H177.651V11.65H183.651ZM180.651 7.7H179.651V13.7H180.651V7.7ZM182.651 10.7V8.15H176.651V10.7H182.651ZM179.651 11.15H180.651V5.15H179.651V11.15ZM183.651 8.15V7.225H177.651V8.15H183.651ZM180.651 10.225H192.801V4.225H180.651V10.225ZM196.651 7.225V8.225H202.651V7.225H196.651ZM199.651 11.225H200.626V5.225H199.651V11.225ZM197.626 8.225V12.5H203.626V8.225H197.626ZM200.626 15.5H202.051V9.5H200.626V15.5ZM199.051 12.5V13.425H205.051V12.5H199.051ZM202.051 16.425H202.751V10.425H202.051V16.425ZM199.751 13.425V16.3H205.751V13.425H199.751ZM202.751 13.3H202.051V19.3H202.751V13.3ZM199.051 16.3V17.2H205.051V16.3H199.051ZM202.051 14.2H200.626V20.2H202.051V14.2ZM197.626 17.2V21.75H203.626V17.2H197.626ZM200.626 18.75H199.651V24.75H200.626V18.75ZM196.651 21.75V22.75H202.651V21.75H196.651ZM199.651 19.75H196.226V25.75H199.651V19.75ZM199.226 22.75V21.75H193.226V22.75H199.226ZM196.226 18.75H195.226V24.75H196.226V18.75ZM198.226 21.75V8.225H192.226V21.75H198.226ZM195.226 11.225H196.226V5.225H195.226V11.225ZM199.226 8.225V7.225H193.226V8.225H199.226ZM196.226 10.225H199.651V4.225H196.226V10.225ZM190.501 16.875V17.875H196.501V16.875H190.501ZM193.501 20.875H194.401V14.875H193.501V20.875ZM191.401 17.875V20.25H197.401V17.875H191.401ZM194.401 17.25H193.501V23.25H194.401V17.25ZM190.501 20.25V21.25H196.501V20.25H190.501ZM193.501 18.25H179.676V24.25H193.501V18.25ZM182.676 21.25V20.25H176.676V21.25H182.676ZM179.676 17.25H178.751V23.25H179.676V17.25ZM181.751 20.25V17.875H175.751V20.25H181.751ZM178.751 20.875H179.676V14.875H178.751V20.875ZM182.676 17.875V16.875H176.676V17.875H182.676ZM179.676 19.875H182.001V13.875H179.676V19.875ZM185.001 16.875V13.875H179.001V16.875H185.001ZM182.001 16.875H183.001V10.875H182.001V16.875ZM186.001 13.875V12.95H180.001V13.875H186.001ZM183.001 15.95H186.251V9.95H183.001V15.95ZM183.251 12.95V13.875H189.251V12.95H183.251ZM186.251 16.875H187.251V10.875H186.251V16.875ZM184.251 13.875V16.875H190.251V13.875H184.251ZM187.251 19.875H193.501V13.875H187.251V19.875ZM184.201 30V29H178.201V30H184.201ZM181.201 26H180.176V32H181.201V26ZM183.176 29V23.25H177.176V29H183.176ZM180.176 26.25H181.201V20.25H180.176V26.25ZM184.201 23.25V22.25H178.201V23.25H184.201ZM181.201 25.25H184.651V19.25H181.201V25.25ZM181.651 22.25V23.25H187.651V22.25H181.651ZM184.651 26.25H185.651V20.25H184.651V26.25ZM182.651 23.25V25.65H188.651V23.25H182.651ZM185.651 28.65H200.176V22.65H185.651V28.65ZM197.176 25.65V26.65H203.176V25.65H197.176ZM200.176 29.65H201.176V23.65H200.176V29.65ZM198.176 26.65V29H204.176V26.65H198.176ZM201.176 26H200.176V32H201.176V26ZM197.176 29V30H203.176V29H197.176ZM200.176 27H181.201V33H200.176V27ZM207.043 20.925H204.043V23.925H207.043V20.925ZM207.043 19.925H210.043V16.925H207.043V19.925ZM206.043 19.925H203.043V22.925H206.043V19.925ZM206.043 17.175V14.175H203.043V17.175H206.043ZM207.043 17.175V20.175H210.043V17.175H207.043ZM207.043 16.175V13.175H204.043V16.175H207.043ZM214.043 16.175V19.175H217.043V16.175H214.043ZM214.043 11.95H217.043V8.95H214.043V11.95ZM207.043 11.95H204.043V14.95H207.043V11.95ZM207.043 10.95H210.043V7.95H207.043V10.95ZM206.043 10.95H203.043V13.95H206.043V10.95ZM206.043 8.225V5.225H203.043V8.225H206.043ZM207.043 8.225V11.225H210.043V8.225H207.043ZM207.043 7.225V4.225H204.043V7.225H207.043ZM218.418 7.225H221.418V4.225H218.418V7.225ZM218.418 8.225H215.418V11.225H218.418V8.225ZM219.443 8.225H222.443V5.225H219.443V8.225ZM219.443 28.175V31.175H222.443V28.175H219.443ZM218.418 28.175V25.175H215.418V28.175H218.418ZM218.418 29.175V32.175H221.418V29.175H218.418ZM215.068 29.175H212.068V32.175H215.068V29.175ZM215.068 28.175H218.068V25.175H215.068V28.175ZM214.043 28.175H211.043V31.175H214.043V28.175ZM214.043 20.925H217.043V17.925H214.043V20.925ZM226.368 7.225H229.368V4.225H226.368V7.225ZM226.368 8.225H223.368V11.225H226.368V8.225ZM227.318 8.225H230.318V5.225H227.318V8.225ZM227.318 15.575H224.318V18.575H227.318V15.575ZM228.943 15.575H231.943V12.575H228.943V15.575ZM228.943 16.475H225.943V19.475H228.943V16.475ZM229.693 16.475H232.693V13.475H229.693V16.475ZM229.693 19.525V22.525H232.693V19.525H229.693ZM228.943 19.525V16.525H225.943V19.525H228.943ZM228.943 20.425V23.425H231.943V20.425H228.943ZM227.318 20.425V17.425H224.318V20.425H227.318ZM227.318 29V32H230.318V29H227.318ZM226.368 29V26H223.368V29H226.368ZM226.368 30V33H229.368V30H226.368ZM222.768 30H219.768V33H222.768V30ZM222.768 29H225.768V26H222.768V29ZM221.793 29H218.793V32H221.793V29ZM221.793 8.225V5.225H218.793V8.225H221.793ZM222.768 8.225V11.225H225.768V8.225H222.768ZM222.768 7.225V4.225H219.768V7.225H222.768ZM210.043 20.925V19.925H204.043V20.925H210.043ZM207.043 16.925H206.043V22.925H207.043V16.925ZM209.043 19.925V17.175H203.043V19.925H209.043ZM206.043 20.175H207.043V14.175H206.043V20.175ZM210.043 17.175V16.175H204.043V17.175H210.043ZM207.043 19.175H214.043V13.175H207.043V19.175ZM217.043 16.175V11.95H211.043V16.175H217.043ZM214.043 8.95H207.043V14.95H214.043V8.95ZM210.043 11.95V10.95H204.043V11.95H210.043ZM207.043 7.95H206.043V13.95H207.043V7.95ZM209.043 10.95V8.225H203.043V10.95H209.043ZM206.043 11.225H207.043V5.225H206.043V11.225ZM210.043 8.225V7.225H204.043V8.225H210.043ZM207.043 10.225H218.418V4.225H207.043V10.225ZM215.418 7.225V8.225H221.418V7.225H215.418ZM218.418 11.225H219.443V5.225H218.418V11.225ZM216.443 8.225V28.175H222.443V8.225H216.443ZM219.443 25.175H218.418V31.175H219.443V25.175ZM215.418 28.175V29.175H221.418V28.175H215.418ZM218.418 26.175H215.068V32.175H218.418V26.175ZM218.068 29.175V28.175H212.068V29.175H218.068ZM215.068 25.175H214.043V31.175H215.068V25.175ZM217.043 28.175V20.925H211.043V28.175H217.043ZM214.043 17.925H207.043V23.925H214.043V17.925ZM223.368 7.225V8.225H229.368V7.225H223.368ZM226.368 11.225H227.318V5.225H226.368V11.225ZM224.318 8.225V15.575H230.318V8.225H224.318ZM227.318 18.575H228.943V12.575H227.318V18.575ZM225.943 15.575V16.475H231.943V15.575H225.943ZM228.943 19.475H229.693V13.475H228.943V19.475ZM226.693 16.475V19.525H232.693V16.475H226.693ZM229.693 16.525H228.943V22.525H229.693V16.525ZM225.943 19.525V20.425H231.943V19.525H225.943ZM228.943 17.425H227.318V23.425H228.943V17.425ZM224.318 20.425V29H230.318V20.425H224.318ZM227.318 26H226.368V32H227.318V26ZM223.368 29V30H229.368V29H223.368ZM226.368 27H222.768V33H226.368V27ZM225.768 30V29H219.768V30H225.768ZM222.768 26H221.793V32H222.768V26ZM224.793 29V8.225H218.793V29H224.793ZM221.793 11.225H222.768V5.225H221.793V11.225ZM225.768 8.225V7.225H219.768V8.225H225.768ZM222.768 10.225H226.368V4.225H222.768V10.225ZM243.485 8.075H240.485V11.075H243.485V8.075ZM244.11 8.075H247.11V5.075H244.11V8.075ZM244.11 10.975V13.975H247.11V10.975H244.11ZM243.485 10.975V7.975H240.485V10.975H243.485ZM243.485 11.825V14.825H246.485V11.825H243.485ZM242.56 11.825V8.825H239.56V11.825H242.56ZM242.56 16.35H239.56V19.35H242.56V16.35ZM243.31 16.35V19.35H246.31V16.35H243.31ZM243.31 15.45V12.45H240.31V15.45H243.31ZM244.835 15.45V18.45H247.835V15.45H244.835ZM244.835 8.225V5.225H241.835V8.225H244.835ZM245.735 8.225V11.225H248.735V8.225H245.735ZM245.735 7.225V4.225H242.735V7.225H245.735ZM248.435 7.225H251.435V4.225H248.435V7.225ZM248.435 8.225H245.435V11.225H248.435V8.225ZM249.36 8.225H252.36V5.225H249.36V8.225ZM249.36 29V32H252.36V29H249.36ZM248.435 29V26H245.435V29H248.435ZM248.435 30V33H251.435V30H248.435ZM245.735 30H242.735V33H245.735V30ZM245.735 29H248.735V26H245.735V29ZM244.835 29H241.835V32H244.835V29ZM244.835 20.25H247.835V17.25H244.835V20.25ZM243.31 20.25H240.31V23.25H243.31V20.25ZM243.31 19.35H246.31V16.35H243.31V19.35ZM242.56 19.35V16.35H239.56V19.35H242.56ZM242.56 24.4H239.56V27.4H242.56V24.4ZM243.485 24.4H246.485V21.4H243.485V24.4ZM243.485 25.3H240.485V28.3H243.485V25.3ZM244.11 25.3H247.11V22.3H244.11V25.3ZM244.11 28.2V31.2H247.11V28.2H244.11ZM243.485 28.2V25.2H240.485V28.2H243.485ZM243.485 29.05V32.05H246.485V29.05H243.485ZM233.01 29.05H230.01V32.05H233.01V29.05ZM233.01 28.2H236.01V25.2H233.01V28.2ZM232.285 28.2H229.285V31.2H232.285V28.2ZM232.285 25.3V22.3H229.285V25.3H232.285ZM233.01 25.3V28.3H236.01V25.3H233.01ZM233.01 24.4V21.4H230.01V24.4H233.01ZM233.96 24.4V27.4H236.96V24.4H233.96ZM233.96 11.825H236.96V8.825H233.96V11.825ZM233.01 11.825H230.01V14.825H233.01V11.825ZM233.01 10.975H236.01V7.975H233.01V10.975ZM232.285 10.975H229.285V13.975H232.285V10.975ZM232.285 8.075V5.075H229.285V8.075H232.285ZM233.01 8.075V11.075H236.01V8.075H233.01ZM233.01 7.225V4.225H230.01V7.225H233.01ZM243.485 7.225H246.485V4.225H243.485V7.225ZM254.06 29V26H251.06V29H254.06ZM254.06 30V33H257.06V30H254.06ZM251.335 30H248.335V33H251.335V30ZM251.335 29H254.335V26H251.335V29ZM250.41 29H247.41V32H250.41V29ZM250.41 8.225V5.225H247.41V8.225H250.41ZM251.335 8.225V11.225H254.335V8.225H251.335ZM251.335 7.225V4.225H248.335V7.225H251.335ZM254.06 7.225H257.06V4.225H254.06V7.225ZM254.06 8.225H251.06V11.225H254.06V8.225ZM254.96 8.225H257.96V5.225H254.96V8.225ZM254.96 29V32H257.96V29H254.96ZM238.71 11.825H241.71V8.825H238.71V11.825ZM237.785 11.825V8.825H234.785V11.825H237.785ZM237.785 24.4H234.785V27.4H237.785V24.4ZM238.71 24.4V27.4H241.71V24.4H238.71ZM243.485 11.075H244.11V5.075H243.485V11.075ZM241.11 8.075V10.975H247.11V8.075H241.11ZM244.11 7.975H243.485V13.975H244.11V7.975ZM240.485 10.975V11.825H246.485V10.975H240.485ZM243.485 8.825H242.56V14.825H243.485V8.825ZM239.56 11.825V16.35H245.56V11.825H239.56ZM242.56 19.35H243.31V13.35H242.56V19.35ZM246.31 16.35V15.45H240.31V16.35H246.31ZM243.31 18.45H244.835V12.45H243.31V18.45ZM247.835 15.45V8.225H241.835V15.45H247.835ZM244.835 11.225H245.735V5.225H244.835V11.225ZM248.735 8.225V7.225H242.735V8.225H248.735ZM245.735 10.225H248.435V4.225H245.735V10.225ZM245.435 7.225V8.225H251.435V7.225H245.435ZM248.435 11.225H249.36V5.225H248.435V11.225ZM246.36 8.225V29H252.36V8.225H246.36ZM249.36 26H248.435V32H249.36V26ZM245.435 29V30H251.435V29H245.435ZM248.435 27H245.735V33H248.435V27ZM248.735 30V29H242.735V30H248.735ZM245.735 26H244.835V32H245.735V26ZM247.835 29V20.25H241.835V29H247.835ZM244.835 17.25H243.31V23.25H244.835V17.25ZM246.31 20.25V19.35H240.31V20.25H246.31ZM243.31 16.35H242.56V22.35H243.31V16.35ZM239.56 19.35V24.4H245.56V19.35H239.56ZM242.56 27.4H243.485V21.4H242.56V27.4ZM240.485 24.4V25.3H246.485V24.4H240.485ZM243.485 28.3H244.11V22.3H243.485V28.3ZM241.11 25.3V28.2H247.11V25.3H241.11ZM244.11 25.2H243.485V31.2H244.11V25.2ZM240.485 28.2V29.05H246.485V28.2H240.485ZM243.485 26.05H233.01V32.05H243.485V26.05ZM236.01 29.05V28.2H230.01V29.05H236.01ZM233.01 25.2H232.285V31.2H233.01V25.2ZM235.285 28.2V25.3H229.285V28.2H235.285ZM232.285 28.3H233.01V22.3H232.285V28.3ZM236.01 25.3V24.4H230.01V25.3H236.01ZM233.01 27.4H233.96V21.4H233.01V27.4ZM236.96 24.4V11.825H230.96V24.4H236.96ZM233.96 8.825H233.01V14.825H233.96V8.825ZM236.01 11.825V10.975H230.01V11.825H236.01ZM233.01 7.975H232.285V13.975H233.01V7.975ZM235.285 10.975V8.075H229.285V10.975H235.285ZM232.285 11.075H233.01V5.075H232.285V11.075ZM236.01 8.075V7.225H230.01V8.075H236.01ZM233.01 10.225H243.485V4.225H233.01V10.225ZM240.485 7.225V8.075H246.485V7.225H240.485ZM251.06 29V30H257.06V29H251.06ZM254.06 27H251.335V33H254.06V27ZM254.335 30V29H248.335V30H254.335ZM251.335 26H250.41V32H251.335V26ZM253.41 29V8.225H247.41V29H253.41ZM250.41 11.225H251.335V5.225H250.41V11.225ZM254.335 8.225V7.225H248.335V8.225H254.335ZM251.335 10.225H254.06V4.225H251.335V10.225ZM251.06 7.225V8.225H257.06V7.225H251.06ZM254.06 11.225H254.96V5.225H254.06V11.225ZM251.96 8.225V29H257.96V8.225H251.96ZM254.96 26H254.06V32H254.96V26ZM238.71 8.825H237.785V14.825H238.71V8.825ZM234.785 11.825V24.4H240.785V11.825H234.785ZM237.785 27.4H238.71V21.4H237.785V27.4ZM241.71 24.4V11.825H235.71V24.4H241.71ZM271.134 17.825H268.134V20.825H271.134V17.825ZM271.134 16.825H274.134V13.825H271.134V16.825ZM270.134 16.825H267.134V19.825H270.134V16.825ZM270.134 14.325V11.325H267.134V14.325H270.134ZM271.134 14.325V17.325H274.134V14.325H271.134ZM271.134 13.325V10.325H268.134V13.325H271.134ZM284.684 13.325V16.325H287.684V13.325H284.684ZM284.684 11.775H287.684V8.775H284.684V11.775ZM271.134 11.775H268.134V14.775H271.134V11.775ZM271.134 10.775H274.134V7.775H271.134V10.775ZM270.134 10.775H267.134V13.775H270.134V10.775ZM270.134 8.225V5.225H267.134V8.225H270.134ZM271.134 8.225V11.225H274.134V8.225H271.134ZM271.134 7.225V4.225H268.134V7.225H271.134ZM289.084 7.225H292.084V4.225H289.084V7.225ZM289.084 8.225H286.084V11.225H289.084V8.225ZM290.084 8.225H293.084V5.225H290.084V8.225ZM290.084 18.675V21.675H293.084V18.675H290.084ZM289.084 18.675V15.675H286.084V18.675H289.084ZM289.084 19.675V22.675H292.084V19.675H289.084ZM285.684 19.675H282.684V22.675H285.684V19.675ZM285.684 18.875H288.684V15.875H285.684V18.875ZM284.684 18.875H281.684V21.875H284.684V18.875ZM284.684 17.825H287.684V14.825H284.684V17.825ZM269.934 25.2H266.934V28.2H269.934V25.2ZM269.934 24.225H272.934V21.225H269.934V24.225ZM268.909 24.225H265.909V27.225H268.909V24.225ZM268.909 21.475V18.475H265.909V21.475H268.909ZM269.934 21.475V24.475H272.934V21.475H269.934ZM269.934 20.45V17.45H266.934V20.45H269.934ZM290.384 20.45H293.384V17.45H290.384V20.45ZM290.384 21.475H287.384V24.475H290.384V21.475ZM291.409 21.475H294.409V18.475H291.409V21.475ZM291.409 24.225V27.225H294.409V24.225H291.409ZM290.384 24.225V21.225H287.384V24.225H290.384ZM290.384 25.2V28.2H293.384V25.2H290.384ZM282.984 25.2V22.2H279.984V25.2H282.984ZM282.984 29.15V32.15H285.984V29.15H282.984ZM281.984 29.15V26.15H278.984V29.15H281.984ZM281.984 30.15V33.15H284.984V30.15H281.984ZM278.334 30.15H275.334V33.15H278.334V30.15ZM278.334 29.15H281.334V26.15H278.334V29.15ZM277.334 29.15H274.334V32.15H277.334V29.15ZM277.334 25.2H280.334V22.2H277.334V25.2ZM274.134 17.825V16.825H268.134V17.825H274.134ZM271.134 13.825H270.134V19.825H271.134V13.825ZM273.134 16.825V14.325H267.134V16.825H273.134ZM270.134 17.325H271.134V11.325H270.134V17.325ZM274.134 14.325V13.325H268.134V14.325H274.134ZM271.134 16.325H284.684V10.325H271.134V16.325ZM287.684 13.325V11.775H281.684V13.325H287.684ZM284.684 8.775H271.134V14.775H284.684V8.775ZM274.134 11.775V10.775H268.134V11.775H274.134ZM271.134 7.775H270.134V13.775H271.134V7.775ZM273.134 10.775V8.225H267.134V10.775H273.134ZM270.134 11.225H271.134V5.225H270.134V11.225ZM274.134 8.225V7.225H268.134V8.225H274.134ZM271.134 10.225H289.084V4.225H271.134V10.225ZM286.084 7.225V8.225H292.084V7.225H286.084ZM289.084 11.225H290.084V5.225H289.084V11.225ZM287.084 8.225V18.675H293.084V8.225H287.084ZM290.084 15.675H289.084V21.675H290.084V15.675ZM286.084 18.675V19.675H292.084V18.675H286.084ZM289.084 16.675H285.684V22.675H289.084V16.675ZM288.684 19.675V18.875H282.684V19.675H288.684ZM285.684 15.875H284.684V21.875H285.684V15.875ZM287.684 18.875V17.825H281.684V18.875H287.684ZM284.684 14.825H271.134V20.825H284.684V14.825ZM272.934 25.2V24.225H266.934V25.2H272.934ZM269.934 21.225H268.909V27.225H269.934V21.225ZM271.909 24.225V21.475H265.909V24.225H271.909ZM268.909 24.475H269.934V18.475H268.909V24.475ZM272.934 21.475V20.45H266.934V21.475H272.934ZM269.934 23.45H290.384V17.45H269.934V23.45ZM287.384 20.45V21.475H293.384V20.45H287.384ZM290.384 24.475H291.409V18.475H290.384V24.475ZM288.409 21.475V24.225H294.409V21.475H288.409ZM291.409 21.225H290.384V27.225H291.409V21.225ZM287.384 24.225V25.2H293.384V24.225H287.384ZM290.384 22.2H282.984V28.2H290.384V22.2ZM279.984 25.2V29.15H285.984V25.2H279.984ZM282.984 26.15H281.984V32.15H282.984V26.15ZM278.984 29.15V30.15H284.984V29.15H278.984ZM281.984 27.15H278.334V33.15H281.984V27.15ZM281.334 30.15V29.15H275.334V30.15H281.334ZM278.334 26.15H277.334V32.15H278.334V26.15ZM280.334 29.15V25.2H274.334V29.15H280.334ZM277.334 22.2H269.934V28.2H277.334V22.2ZM316.576 16.7V19.7H319.576V16.7H316.576ZM309.726 16.7V13.7H306.726V16.7H309.726ZM309.726 17.975H306.726V20.975H309.726V17.975ZM317.351 17.975H320.351V14.975H317.351V17.975ZM317.351 18.825H314.351V21.825H317.351V18.825ZM318.201 18.825H321.201V15.825H318.201V18.825ZM318.201 21.25V24.25H321.201V21.25H318.201ZM317.351 21.25V18.25H314.351V21.25H317.351ZM317.351 22.1V25.1H320.351V22.1H317.351ZM296.551 22.1H293.551V25.1H296.551V22.1ZM296.551 21.25H299.551V18.25H296.551V21.25ZM295.701 21.25H292.701V24.25H295.701V21.25ZM295.701 18.825V15.825H292.701V18.825H295.701ZM296.551 18.825V21.825H299.551V18.825H296.551ZM296.551 17.975V14.975H293.551V17.975H296.551ZM304.176 17.975V20.975H307.176V17.975H304.176ZM304.176 16.7H307.176V13.7H304.176V16.7ZM297.326 16.7H294.326V19.7H297.326V16.7ZM297.326 15.85H300.326V12.85H297.326V15.85ZM296.526 15.85H293.526V18.85H296.526V15.85ZM296.526 13.725V10.725H293.526V13.725H296.526ZM297.326 13.725V16.725H300.326V13.725H297.326ZM297.326 12.85V9.85H294.326V12.85H297.326ZM299.451 12.85V15.85H302.451V12.85H299.451ZM299.451 11.075H302.451V8.075H299.451V11.075ZM297.326 11.075H294.326V14.075H297.326V11.075ZM297.326 10.225H300.326V7.225H297.326V10.225ZM296.526 10.225H293.526V13.225H296.526V10.225ZM296.526 8.075V5.075H293.526V8.075H296.526ZM297.326 8.075V11.075H300.326V8.075H297.326ZM297.326 7.225V4.225H294.326V7.225H297.326ZM316.576 7.225H319.576V4.225H316.576V7.225ZM316.576 8.075H313.576V11.075H316.576V8.075ZM317.376 8.075H320.376V5.075H317.376V8.075ZM317.376 10.225V13.225H320.376V10.225H317.376ZM316.576 10.225V7.225H313.576V10.225H316.576ZM316.576 11.075V14.075H319.576V11.075H316.576ZM314.476 11.075V8.075H311.476V11.075H314.476ZM314.476 12.85H311.476V15.85H314.476V12.85ZM316.576 12.85H319.576V9.85H316.576V12.85ZM316.576 13.725H313.576V16.725H316.576V13.725ZM317.376 13.725H320.376V10.725H317.376V13.725ZM317.376 15.85V18.85H320.376V15.85H317.376ZM316.576 15.85V12.85H313.576V15.85H316.576ZM308.976 11.075H311.976V8.075H308.976V11.075ZM304.951 11.075V8.075H301.951V11.075H304.951ZM304.951 12.85H301.951V15.85H304.951V12.85ZM308.976 12.85V15.85H311.976V12.85H308.976ZM297.726 30H294.726V33H297.726V30ZM297.726 29H300.726V26H297.726V29ZM296.726 29H293.726V32H296.726V29ZM296.726 23.875V20.875H293.726V23.875H296.726ZM297.726 23.875V26.875H300.726V23.875H297.726ZM297.726 22.95V19.95H294.726V22.95H297.726ZM301.176 22.95H304.176V19.95H301.176V22.95ZM301.176 23.875H298.176V26.875H301.176V23.875ZM302.176 23.875H305.176V20.875H302.176V23.875ZM302.176 25.8H299.176V28.8H302.176V25.8ZM316.576 25.8H319.576V22.8H316.576V25.8ZM316.576 26.8H313.576V29.8H316.576V26.8ZM317.576 26.8H320.576V23.8H317.576V26.8ZM317.576 29V32H320.576V29H317.576ZM316.576 29V26H313.576V29H316.576ZM316.576 30V33H319.576V30H316.576ZM316.576 13.7H309.726V19.7H316.576V13.7ZM306.726 16.7V17.975H312.726V16.7H306.726ZM309.726 20.975H317.351V14.975H309.726V20.975ZM314.351 17.975V18.825H320.351V17.975H314.351ZM317.351 21.825H318.201V15.825H317.351V21.825ZM315.201 18.825V21.25H321.201V18.825H315.201ZM318.201 18.25H317.351V24.25H318.201V18.25ZM314.351 21.25V22.1H320.351V21.25H314.351ZM317.351 19.1H296.551V25.1H317.351V19.1ZM299.551 22.1V21.25H293.551V22.1H299.551ZM296.551 18.25H295.701V24.25H296.551V18.25ZM298.701 21.25V18.825H292.701V21.25H298.701ZM295.701 21.825H296.551V15.825H295.701V21.825ZM299.551 18.825V17.975H293.551V18.825H299.551ZM296.551 20.975H304.176V14.975H296.551V20.975ZM307.176 17.975V16.7H301.176V17.975H307.176ZM304.176 13.7H297.326V19.7H304.176V13.7ZM300.326 16.7V15.85H294.326V16.7H300.326ZM297.326 12.85H296.526V18.85H297.326V12.85ZM299.526 15.85V13.725H293.526V15.85H299.526ZM296.526 16.725H297.326V10.725H296.526V16.725ZM300.326 13.725V12.85H294.326V13.725H300.326ZM297.326 15.85H299.451V9.85H297.326V15.85ZM302.451 12.85V11.075H296.451V12.85H302.451ZM299.451 8.075H297.326V14.075H299.451V8.075ZM300.326 11.075V10.225H294.326V11.075H300.326ZM297.326 7.225H296.526V13.225H297.326V7.225ZM299.526 10.225V8.075H293.526V10.225H299.526ZM296.526 11.075H297.326V5.075H296.526V11.075ZM300.326 8.075V7.225H294.326V8.075H300.326ZM297.326 10.225H316.576V4.225H297.326V10.225ZM313.576 7.225V8.075H319.576V7.225H313.576ZM316.576 11.075H317.376V5.075H316.576V11.075ZM314.376 8.075V10.225H320.376V8.075H314.376ZM317.376 7.225H316.576V13.225H317.376V7.225ZM313.576 10.225V11.075H319.576V10.225H313.576ZM316.576 8.075H314.476V14.075H316.576V8.075ZM311.476 11.075V12.85H317.476V11.075H311.476ZM314.476 15.85H316.576V9.85H314.476V15.85ZM313.576 12.85V13.725H319.576V12.85H313.576ZM316.576 16.725H317.376V10.725H316.576V16.725ZM314.376 13.725V15.85H320.376V13.725H314.376ZM317.376 12.85H316.576V18.85H317.376V12.85ZM313.576 15.85V16.7H319.576V15.85H313.576ZM308.976 8.075H304.951V14.075H308.976V8.075ZM301.951 11.075V12.85H307.951V11.075H301.951ZM304.951 15.85H308.976V9.85H304.951V15.85ZM311.976 12.85V11.075H305.976V12.85H311.976ZM300.726 30V29H294.726V30H300.726ZM297.726 26H296.726V32H297.726V26ZM299.726 29V23.875H293.726V29H299.726ZM296.726 26.875H297.726V20.875H296.726V26.875ZM300.726 23.875V22.95H294.726V23.875H300.726ZM297.726 25.95H301.176V19.95H297.726V25.95ZM298.176 22.95V23.875H304.176V22.95H298.176ZM301.176 26.875H302.176V20.875H301.176V26.875ZM299.176 23.875V25.8H305.176V23.875H299.176ZM302.176 28.8H316.576V22.8H302.176V28.8ZM313.576 25.8V26.8H319.576V25.8H313.576ZM316.576 29.8H317.576V23.8H316.576V29.8ZM314.576 26.8V29H320.576V26.8H314.576ZM317.576 26H316.576V32H317.576V26ZM313.576 29V30H319.576V29H313.576ZM316.576 27H297.726V33H316.576V27ZM344.876 8.225H341.876V11.225H344.876V8.225ZM345.876 8.225H348.876V5.225H345.876V8.225ZM345.876 18.6V21.6H348.876V18.6H345.876ZM344.876 18.6V15.6H341.876V18.6H344.876ZM344.876 19.6V22.6H347.876V19.6H344.876ZM333.451 19.6H330.451V22.6H333.451V19.6ZM333.451 18.6H336.451V15.6H333.451V18.6ZM332.451 18.6H329.451V21.6H332.451V18.6ZM332.451 8.225V5.225H329.451V8.225H332.451ZM333.451 8.225V11.225H336.451V8.225H333.451ZM333.451 7.225V4.225H330.451V7.225H333.451ZM336.551 7.225H339.551V4.225H336.551V7.225ZM336.551 8.225H333.551V11.225H336.551V8.225ZM337.551 8.225H340.551V5.225H337.551V8.225ZM337.551 10.05H334.551V13.05H337.551V10.05ZM340.776 10.05V13.05H343.776V10.05H340.776ZM340.776 8.225V5.225H337.776V8.225H340.776ZM341.776 8.225V11.225H344.776V8.225H341.776ZM341.776 7.225V4.225H338.776V7.225H341.776ZM344.876 7.225H347.876V4.225H344.876V7.225ZM352.501 7.225H355.501V4.225H352.501V7.225ZM352.501 8.225H349.501V11.225H352.501V8.225ZM353.451 8.225H356.451V5.225H353.451V8.225ZM353.451 11.025H350.451V14.025H353.451V11.025ZM354.926 11.025H357.926V8.025H354.926V11.025ZM354.926 11.925H351.926V14.925H354.926V11.925ZM355.676 11.925H358.676V8.925H355.676V11.925ZM355.676 14.825V17.825H358.676V14.825H355.676ZM354.926 14.825V11.825H351.926V14.825H354.926ZM354.926 15.725V18.725H357.926V15.725H354.926ZM353.451 15.725V12.725H350.451V15.725H353.451ZM353.451 18.675V21.675H356.451V18.675H353.451ZM352.501 18.675V15.675H349.501V18.675H352.501ZM352.501 19.675V22.675H355.501V19.675H352.501ZM349.001 19.675H346.001V22.675H349.001V19.675ZM349.001 18.675H352.001V15.675H349.001V18.675ZM348.001 18.675H345.001V21.675H348.001V18.675ZM348.001 8.225V5.225H345.001V8.225H348.001ZM349.001 8.225V11.225H352.001V8.225H349.001ZM349.001 7.225V4.225H346.001V7.225H349.001ZM337.476 13.85V10.85H334.476V13.85H337.476ZM337.476 15.7H334.476V18.7H337.476V15.7ZM340.826 15.7V18.7H343.826V15.7H340.826ZM340.826 13.85H343.826V10.85H340.826V13.85ZM334.076 21.9V24.9H337.076V21.9H334.076ZM334.076 20.9V17.9H331.076V20.9H334.076ZM352.926 20.9H355.926V17.9H352.926V20.9ZM352.926 21.8H349.926V24.8H352.926V21.8ZM353.926 21.8H356.926V18.8H353.926V21.8ZM353.926 23.95V26.95H356.926V23.95H353.926ZM352.926 23.95V20.95H349.926V23.95H352.926ZM352.926 24.875V27.875H355.926V24.875H352.926ZM338.476 24.875V21.875H335.476V24.875H338.476ZM338.476 26H335.476V29H338.476V26ZM353.076 26H356.076V23H353.076V26ZM353.076 26.9H350.076V29.9H353.076V26.9ZM354.076 26.9H357.076V23.9H354.076V26.9ZM354.076 29.1V32.1H357.076V29.1H354.076ZM353.076 29.1V26.1H350.076V29.1H353.076ZM353.076 30V33H356.076V30H353.076ZM334.076 30H331.076V33H334.076V30ZM334.076 29H337.076V26H334.076V29ZM333.076 29H330.076V32H333.076V29ZM333.076 21.9V18.9H330.076V21.9H333.076ZM344.876 11.225H345.876V5.225H344.876V11.225ZM342.876 8.225V18.6H348.876V8.225H342.876ZM345.876 15.6H344.876V21.6H345.876V15.6ZM341.876 18.6V19.6H347.876V18.6H341.876ZM344.876 16.6H333.451V22.6H344.876V16.6ZM336.451 19.6V18.6H330.451V19.6H336.451ZM333.451 15.6H332.451V21.6H333.451V15.6ZM335.451 18.6V8.225H329.451V18.6H335.451ZM332.451 11.225H333.451V5.225H332.451V11.225ZM336.451 8.225V7.225H330.451V8.225H336.451ZM333.451 10.225H336.551V4.225H333.451V10.225ZM333.551 7.225V8.225H339.551V7.225H333.551ZM336.551 11.225H337.551V5.225H336.551V11.225ZM334.551 8.225V10.05H340.551V8.225H334.551ZM337.551 13.05H340.776V7.05H337.551V13.05ZM343.776 10.05V8.225H337.776V10.05H343.776ZM340.776 11.225H341.776V5.225H340.776V11.225ZM344.776 8.225V7.225H338.776V8.225H344.776ZM341.776 10.225H344.876V4.225H341.776V10.225ZM341.876 7.225V8.225H347.876V7.225H341.876ZM349.501 7.225V8.225H355.501V7.225H349.501ZM352.501 11.225H353.451V5.225H352.501V11.225ZM350.451 8.225V11.025H356.451V8.225H350.451ZM353.451 14.025H354.926V8.025H353.451V14.025ZM351.926 11.025V11.925H357.926V11.025H351.926ZM354.926 14.925H355.676V8.925H354.926V14.925ZM352.676 11.925V14.825H358.676V11.925H352.676ZM355.676 11.825H354.926V17.825H355.676V11.825ZM351.926 14.825V15.725H357.926V14.825H351.926ZM354.926 12.725H353.451V18.725H354.926V12.725ZM350.451 15.725V18.675H356.451V15.725H350.451ZM353.451 15.675H352.501V21.675H353.451V15.675ZM349.501 18.675V19.675H355.501V18.675H349.501ZM352.501 16.675H349.001V22.675H352.501V16.675ZM352.001 19.675V18.675H346.001V19.675H352.001ZM349.001 15.675H348.001V21.675H349.001V15.675ZM351.001 18.675V8.225H345.001V18.675H351.001ZM348.001 11.225H349.001V5.225H348.001V11.225ZM352.001 8.225V7.225H346.001V8.225H352.001ZM349.001 10.225H352.501V4.225H349.001V10.225ZM334.476 13.85V15.7H340.476V13.85H334.476ZM337.476 18.7H340.826V12.7H337.476V18.7ZM343.826 15.7V13.85H337.826V15.7H343.826ZM340.826 10.85H337.476V16.85H340.826V10.85ZM337.076 21.9V20.9H331.076V21.9H337.076ZM334.076 23.9H352.926V17.9H334.076V23.9ZM349.926 20.9V21.8H355.926V20.9H349.926ZM352.926 24.8H353.926V18.8H352.926V24.8ZM350.926 21.8V23.95H356.926V21.8H350.926ZM353.926 20.95H352.926V26.95H353.926V20.95ZM349.926 23.95V24.875H355.926V23.95H349.926ZM352.926 21.875H338.476V27.875H352.926V21.875ZM335.476 24.875V26H341.476V24.875H335.476ZM338.476 29H353.076V23H338.476V29ZM350.076 26V26.9H356.076V26H350.076ZM353.076 29.9H354.076V23.9H353.076V29.9ZM351.076 26.9V29.1H357.076V26.9H351.076ZM354.076 26.1H353.076V32.1H354.076V26.1ZM350.076 29.1V30H356.076V29.1H350.076ZM353.076 27H334.076V33H353.076V27ZM337.076 30V29H331.076V30H337.076ZM334.076 26H333.076V32H334.076V26ZM336.076 29V21.9H330.076V29H336.076ZM333.076 24.9H334.076V18.9H333.076V24.9ZM362.918 11.925H365.918V8.925H362.918V11.925ZM359.743 11.925H356.743V14.925H359.743V11.925ZM359.743 10.925H362.743V7.925H359.743V10.925ZM358.743 10.925H355.743V13.925H358.743V10.925ZM358.743 8.225V5.225H355.743V8.225H358.743ZM359.743 8.225V11.225H362.743V8.225H359.743ZM359.743 7.225V4.225H356.743V7.225H359.743ZM372.193 7.225H375.193V4.225H372.193V7.225ZM372.193 8.225H369.193V11.225H372.193V8.225ZM373.218 8.225H376.218V5.225H373.218V8.225ZM373.218 10.925V13.925H376.218V10.925H373.218ZM372.193 10.925V7.925H369.193V10.925H372.193ZM372.193 11.925V14.925H375.193V11.925H372.193ZM369.043 11.925V8.925H366.043V11.925H369.043ZM369.043 21.075H366.043V24.075H369.043V21.075ZM370.043 21.075H373.043V18.075H370.043V21.075ZM370.043 22.125H367.043V25.125H370.043V22.125ZM371.143 22.125H374.143V19.125H371.143V22.125ZM371.143 23.275H368.143V26.275H371.143V23.275ZM372.293 23.275H375.293V20.275H372.293V23.275ZM372.293 24.5H369.293V27.5H372.293V24.5ZM373.368 24.5H376.368V21.5H373.368V24.5ZM373.368 28.075V31.075H376.368V28.075H373.368ZM372.418 28.075V25.075H369.418V28.075H372.418ZM372.418 29.15V32.15H375.418V29.15H372.418ZM369.418 29.15H366.418V32.15H369.418V29.15ZM369.418 28.075H372.418V25.075H369.418V28.075ZM368.418 28.075H365.418V31.075H368.418V28.075ZM368.418 27.025H371.418V24.025H368.418V27.025ZM367.443 27.025H364.443V30.025H367.443V27.025ZM367.443 26.05H370.443V23.05H367.443V26.05ZM366.593 26.05H363.593V29.05H366.593V26.05ZM366.593 25.15H369.593V22.15H366.593V25.15ZM365.493 25.15V22.15H362.493V25.15H365.493ZM365.493 26.05V29.05H368.493V26.05H365.493ZM364.643 26.05V23.05H361.643V26.05H364.643ZM364.643 27.025V30.025H367.643V27.025H364.643ZM363.668 27.025V24.025H360.668V27.025H363.668ZM363.668 28.075V31.075H366.668V28.075H363.668ZM362.668 28.075V25.075H359.668V28.075H362.668ZM362.668 29.15V32.15H365.668V29.15H362.668ZM359.543 29.15H356.543V32.15H359.543V29.15ZM359.543 28.075H362.543V25.075H359.543V28.075ZM358.593 28.075H355.593V31.075H358.593V28.075ZM358.593 24.5V21.5H355.593V24.5H358.593ZM359.668 24.5V27.5H362.668V24.5H359.668ZM359.668 23.275V20.275H356.668V23.275H359.668ZM360.818 23.275V26.275H363.818V23.275H360.818ZM360.818 22.125V19.125H357.818V22.125H360.818ZM361.918 22.125V25.125H364.918V22.125H361.918ZM361.918 21.075V18.075H358.918V21.075H361.918ZM362.918 21.075V24.075H365.918V21.075H362.918ZM379.293 8.225H376.293V11.225H379.293V8.225ZM380.243 8.225H383.243V5.225H380.243V8.225ZM380.243 15.575H377.243V18.575H380.243V15.575ZM381.868 15.575H384.868V12.575H381.868V15.575ZM381.868 16.475H378.868V19.475H381.868V16.475ZM382.618 16.475H385.618V13.475H382.618V16.475ZM382.618 19.525V22.525H385.618V19.525H382.618ZM381.868 19.525V16.525H378.868V19.525H381.868ZM381.868 20.425V23.425H384.868V20.425H381.868ZM380.243 20.425V17.425H377.243V20.425H380.243ZM380.243 29V32H383.243V29H380.243ZM379.293 29V26H376.293V29H379.293ZM379.293 30V33H382.293V30H379.293ZM375.693 30H372.693V33H375.693V30ZM375.693 29H378.693V26H375.693V29ZM374.718 29H371.718V32H374.718V29ZM374.718 8.225V5.225H371.718V8.225H374.718ZM375.693 8.225V11.225H378.693V8.225H375.693ZM375.693 7.225V4.225H372.693V7.225H375.693ZM379.293 7.225H382.293V4.225H379.293V7.225ZM362.918 8.925H359.743V14.925H362.918V8.925ZM362.743 11.925V10.925H356.743V11.925H362.743ZM359.743 7.925H358.743V13.925H359.743V7.925ZM361.743 10.925V8.225H355.743V10.925H361.743ZM358.743 11.225H359.743V5.225H358.743V11.225ZM362.743 8.225V7.225H356.743V8.225H362.743ZM359.743 10.225H372.193V4.225H359.743V10.225ZM369.193 7.225V8.225H375.193V7.225H369.193ZM372.193 11.225H373.218V5.225H372.193V11.225ZM370.218 8.225V10.925H376.218V8.225H370.218ZM373.218 7.925H372.193V13.925H373.218V7.925ZM369.193 10.925V11.925H375.193V10.925H369.193ZM372.193 8.925H369.043V14.925H372.193V8.925ZM366.043 11.925V21.075H372.043V11.925H366.043ZM369.043 24.075H370.043V18.075H369.043V24.075ZM367.043 21.075V22.125H373.043V21.075H367.043ZM370.043 25.125H371.143V19.125H370.043V25.125ZM368.143 22.125V23.275H374.143V22.125H368.143ZM371.143 26.275H372.293V20.275H371.143V26.275ZM369.293 23.275V24.5H375.293V23.275H369.293ZM372.293 27.5H373.368V21.5H372.293V27.5ZM370.368 24.5V28.075H376.368V24.5H370.368ZM373.368 25.075H372.418V31.075H373.368V25.075ZM369.418 28.075V29.15H375.418V28.075H369.418ZM372.418 26.15H369.418V32.15H372.418V26.15ZM372.418 29.15V28.075H366.418V29.15H372.418ZM369.418 25.075H368.418V31.075H369.418V25.075ZM371.418 28.075V27.025H365.418V28.075H371.418ZM368.418 24.025H367.443V30.025H368.418V24.025ZM370.443 27.025V26.05H364.443V27.025H370.443ZM367.443 23.05H366.593V29.05H367.443V23.05ZM369.593 26.05V25.15H363.593V26.05H369.593ZM366.593 22.15H365.493V28.15H366.593V22.15ZM362.493 25.15V26.05H368.493V25.15H362.493ZM365.493 23.05H364.643V29.05H365.493V23.05ZM361.643 26.05V27.025H367.643V26.05H361.643ZM364.643 24.025H363.668V30.025H364.643V24.025ZM360.668 27.025V28.075H366.668V27.025H360.668ZM363.668 25.075H362.668V31.075H363.668V25.075ZM359.668 28.075V29.15H365.668V28.075H359.668ZM362.668 26.15H359.543V32.15H362.668V26.15ZM362.543 29.15V28.075H356.543V29.15H362.543ZM359.543 25.075H358.593V31.075H359.543V25.075ZM361.593 28.075V24.5H355.593V28.075H361.593ZM358.593 27.5H359.668V21.5H358.593V27.5ZM362.668 24.5V23.275H356.668V24.5H362.668ZM359.668 26.275H360.818V20.275H359.668V26.275ZM363.818 23.275V22.125H357.818V23.275H363.818ZM360.818 25.125H361.918V19.125H360.818V25.125ZM364.918 22.125V21.075H358.918V22.125H364.918ZM361.918 24.075H362.918V18.075H361.918V24.075ZM365.918 21.075V11.925H359.918V21.075H365.918ZM379.293 11.225H380.243V5.225H379.293V11.225ZM377.243 8.225V15.575H383.243V8.225H377.243ZM380.243 18.575H381.868V12.575H380.243V18.575ZM378.868 15.575V16.475H384.868V15.575H378.868ZM381.868 19.475H382.618V13.475H381.868V19.475ZM379.618 16.475V19.525H385.618V16.475H379.618ZM382.618 16.525H381.868V22.525H382.618V16.525ZM378.868 19.525V20.425H384.868V19.525H378.868ZM381.868 17.425H380.243V23.425H381.868V17.425ZM377.243 20.425V29H383.243V20.425H377.243ZM380.243 26H379.293V32H380.243V26ZM376.293 29V30H382.293V29H376.293ZM379.293 27H375.693V33H379.293V27ZM378.693 30V29H372.693V30H378.693ZM375.693 26H374.718V32H375.693V26ZM377.718 29V8.225H371.718V29H377.718ZM374.718 11.225H375.693V5.225H374.718V11.225ZM378.693 8.225V7.225H372.693V8.225H378.693ZM375.693 10.225H379.293V4.225H375.693V10.225ZM376.293 7.225V8.225H382.293V7.225H376.293ZM391.135 8.125H388.135V11.125H391.135V8.125ZM392.11 8.125H395.11V5.125H392.11V8.125ZM392.11 21.75V24.75H395.11V21.75H392.11ZM391.185 21.75V18.75H388.185V21.75H391.185ZM391.185 22.65V25.65H394.185V22.65H391.185ZM387.535 22.65H384.535V25.65H387.535V22.65ZM387.535 21.75H390.535V18.75H387.535V21.75ZM386.635 21.75H383.635V24.75H386.635V21.75ZM386.635 8.125V5.125H383.635V8.125H386.635ZM387.61 8.125V11.125H390.61V8.125H387.61ZM387.61 7.225V4.225H384.61V7.225H387.61ZM391.135 7.225H394.135V4.225H391.135V7.225ZM391.185 25.35H388.185V28.35H391.185V25.35ZM392.11 25.35H395.11V22.35H392.11V25.35ZM392.11 29.1V32.1H395.11V29.1H392.11ZM391.185 29.1V26.1H388.185V29.1H391.185ZM391.185 30V33H394.185V30H391.185ZM387.535 30H384.535V33H387.535V30ZM387.535 29.1H390.535V26.1H387.535V29.1ZM386.635 29.1H383.635V32.1H386.635V29.1ZM386.635 25.35V22.35H383.635V25.35H386.635ZM387.535 25.35V28.35H390.535V25.35H387.535ZM387.535 24.45V21.45H384.535V24.45H387.535ZM391.185 24.45H394.185V21.45H391.185V24.45ZM391.135 11.125H392.11V5.125H391.135V11.125ZM389.11 8.125V21.75H395.11V8.125H389.11ZM392.11 18.75H391.185V24.75H392.11V18.75ZM388.185 21.75V22.65H394.185V21.75H388.185ZM391.185 19.65H387.535V25.65H391.185V19.65ZM390.535 22.65V21.75H384.535V22.65H390.535ZM387.535 18.75H386.635V24.75H387.535V18.75ZM389.635 21.75V8.125H383.635V21.75H389.635ZM386.635 11.125H387.61V5.125H386.635V11.125ZM390.61 8.125V7.225H384.61V8.125H390.61ZM387.61 10.225H391.135V4.225H387.61V10.225ZM388.135 7.225V8.125H394.135V7.225H388.135ZM391.185 28.35H392.11V22.35H391.185V28.35ZM389.11 25.35V29.1H395.11V25.35H389.11ZM392.11 26.1H391.185V32.1H392.11V26.1ZM388.185 29.1V30H394.185V29.1H388.185ZM391.185 27H387.535V33H391.185V27ZM390.535 30V29.1H384.535V30H390.535ZM387.535 26.1H386.635V32.1H387.535V26.1ZM389.635 29.1V25.35H383.635V29.1H389.635ZM386.635 28.35H387.535V22.35H386.635V28.35ZM390.535 25.35V24.45H384.535V25.35H390.535ZM387.535 27.45H391.185V21.45H387.535V27.45ZM388.185 24.45V25.35H394.185V24.45H388.185Z" fill="black" mask="url(#path-1-outside-1_3_34)"/>
</svg>
