<svg width="134" height="55" viewBox="0 0 134 55" fill="none" xmlns="http://www.w3.org/2000/svg">
<mask id="path-1-outside-1_3_2" maskUnits="userSpaceOnUse" x="4" y="7" width="127" height="42" fill="black">
<rect fill="white" x="4" y="7" width="127" height="42"/>
<path d="M14.1617 43.861H11.7047V41.677H9.4037V39.337H7.2197V17.146H9.4037V14.767H11.7047V12.583H14.1617V10.711H31.4777V12.661H33.5447V17.185H31.4777V18.979H18.8027V21.046H16.4237V35.476H18.8027V37.504H26.4857V32.551H23.1707V30.874H21.4937V25.96H23.1707V24.283H33.3887V25.96H35.0657V43.861H32.9207V45.772H14.1617V43.861Z"/>
<path d="M59.9809 37.504V39.337H61.7749V43.978H59.9809V45.772H43.2109V43.978H41.3779V39.337H43.2109V37.504H46.9549V18.901H43.2109V17.107H41.3779V12.466H43.2109V10.672H59.9809V12.466H61.7749V17.107H59.9809V18.901H56.2369V37.504H59.9809ZM74.3152 32.2V30.523H72.2092V28.69H70.1032V26.779H67.9192V16.132H70.1032V14.143H72.1312V12.349H74.0422V10.711H91.4752V12.505H93.5812V17.224H91.4752V19.057H79.2292V20.461H77.7862V22.801H79.2292V24.205H87.6922V25.921H89.7592V27.715H91.9042V29.665H94.0882V40.273H91.9042V42.262H89.8372V44.056H87.9652V45.733H70.4152V43.9H68.3872V39.181H70.4152V37.387H82.6612V35.944H84.1042V33.643H82.6612V32.2H74.3152ZM125.875 12.505H127.669V17.302H125.875V19.096H118.66V43.978H116.866V45.772H111.094V43.978H109.3V19.096H101.968V17.302H100.174V12.505H101.968V10.711H125.875V12.505Z"/>
</mask>
<path d="M14.1617 43.861H11.7047V41.677H9.4037V39.337H7.2197V17.146H9.4037V14.767H11.7047V12.583H14.1617V10.711H31.4777V12.661H33.5447V17.185H31.4777V18.979H18.8027V21.046H16.4237V35.476H18.8027V37.504H26.4857V32.551H23.1707V30.874H21.4937V25.96H23.1707V24.283H33.3887V25.96H35.0657V43.861H32.9207V45.772H14.1617V43.861Z" fill="#DC3F3F"/>
<path d="M59.9809 37.504V39.337H61.7749V43.978H59.9809V45.772H43.2109V43.978H41.3779V39.337H43.2109V37.504H46.9549V18.901H43.2109V17.107H41.3779V12.466H43.2109V10.672H59.9809V12.466H61.7749V17.107H59.9809V18.901H56.2369V37.504H59.9809ZM74.3152 32.2V30.523H72.2092V28.69H70.1032V26.779H67.9192V16.132H70.1032V14.143H72.1312V12.349H74.0422V10.711H91.4752V12.505H93.5812V17.224H91.4752V19.057H79.2292V20.461H77.7862V22.801H79.2292V24.205H87.6922V25.921H89.7592V27.715H91.9042V29.665H94.0882V40.273H91.9042V42.262H89.8372V44.056H87.9652V45.733H70.4152V43.9H68.3872V39.181H70.4152V37.387H82.6612V35.944H84.1042V33.643H82.6612V32.2H74.3152ZM125.875 12.505H127.669V17.302H125.875V19.096H118.66V43.978H116.866V45.772H111.094V43.978H109.3V19.096H101.968V17.302H100.174V12.505H101.968V10.711H125.875V12.505Z" fill="#DADADA"/>
<path d="M14.1617 43.861H17.1617V40.861H14.1617V43.861ZM11.7047 43.861H8.7047V46.861H11.7047V43.861ZM11.7047 41.677H14.7047V38.677H11.7047V41.677ZM9.4037 41.677H6.4037V44.677H9.4037V41.677ZM9.4037 39.337H12.4037V36.337H9.4037V39.337ZM7.2197 39.337H4.2197V42.337H7.2197V39.337ZM7.2197 17.146V14.146H4.2197V17.146H7.2197ZM9.4037 17.146V20.146H12.4037V17.146H9.4037ZM9.4037 14.767V11.767H6.4037V14.767H9.4037ZM11.7047 14.767V17.767H14.7047V14.767H11.7047ZM11.7047 12.583V9.583H8.7047V12.583H11.7047ZM14.1617 12.583V15.583H17.1617V12.583H14.1617ZM14.1617 10.711V7.711H11.1617V10.711H14.1617ZM31.4777 10.711H34.4777V7.711H31.4777V10.711ZM31.4777 12.661H28.4777V15.661H31.4777V12.661ZM33.5447 12.661H36.5447V9.661H33.5447V12.661ZM33.5447 17.185V20.185H36.5447V17.185H33.5447ZM31.4777 17.185V14.185H28.4777V17.185H31.4777ZM31.4777 18.979V21.979H34.4777V18.979H31.4777ZM18.8027 18.979V15.979H15.8027V18.979H18.8027ZM18.8027 21.046V24.046H21.8027V21.046H18.8027ZM16.4237 21.046V18.046H13.4237V21.046H16.4237ZM16.4237 35.476H13.4237V38.476H16.4237V35.476ZM18.8027 35.476H21.8027V32.476H18.8027V35.476ZM18.8027 37.504H15.8027V40.504H18.8027V37.504ZM26.4857 37.504V40.504H29.4857V37.504H26.4857ZM26.4857 32.551H29.4857V29.551H26.4857V32.551ZM23.1707 32.551H20.1707V35.551H23.1707V32.551ZM23.1707 30.874H26.1707V27.874H23.1707V30.874ZM21.4937 30.874H18.4937V33.874H21.4937V30.874ZM21.4937 25.96V22.96H18.4937V25.96H21.4937ZM23.1707 25.96V28.96H26.1707V25.96H23.1707ZM23.1707 24.283V21.283H20.1707V24.283H23.1707ZM33.3887 24.283H36.3887V21.283H33.3887V24.283ZM33.3887 25.96H30.3887V28.96H33.3887V25.96ZM35.0657 25.96H38.0657V22.96H35.0657V25.96ZM35.0657 43.861V46.861H38.0657V43.861H35.0657ZM32.9207 43.861V40.861H29.9207V43.861H32.9207ZM32.9207 45.772V48.772H35.9207V45.772H32.9207ZM14.1617 45.772H11.1617V48.772H14.1617V45.772ZM14.1617 40.861H11.7047V46.861H14.1617V40.861ZM14.7047 43.861V41.677H8.7047V43.861H14.7047ZM11.7047 38.677H9.4037V44.677H11.7047V38.677ZM12.4037 41.677V39.337H6.4037V41.677H12.4037ZM9.4037 36.337H7.2197V42.337H9.4037V36.337ZM10.2197 39.337V17.146H4.2197V39.337H10.2197ZM7.2197 20.146H9.4037V14.146H7.2197V20.146ZM12.4037 17.146V14.767H6.4037V17.146H12.4037ZM9.4037 17.767H11.7047V11.767H9.4037V17.767ZM14.7047 14.767V12.583H8.7047V14.767H14.7047ZM11.7047 15.583H14.1617V9.583H11.7047V15.583ZM17.1617 12.583V10.711H11.1617V12.583H17.1617ZM14.1617 13.711H31.4777V7.711H14.1617V13.711ZM28.4777 10.711V12.661H34.4777V10.711H28.4777ZM31.4777 15.661H33.5447V9.661H31.4777V15.661ZM30.5447 12.661V17.185H36.5447V12.661H30.5447ZM33.5447 14.185H31.4777V20.185H33.5447V14.185ZM28.4777 17.185V18.979H34.4777V17.185H28.4777ZM31.4777 15.979H18.8027V21.979H31.4777V15.979ZM15.8027 18.979V21.046H21.8027V18.979H15.8027ZM18.8027 18.046H16.4237V24.046H18.8027V18.046ZM13.4237 21.046V35.476H19.4237V21.046H13.4237ZM16.4237 38.476H18.8027V32.476H16.4237V38.476ZM15.8027 35.476V37.504H21.8027V35.476H15.8027ZM18.8027 40.504H26.4857V34.504H18.8027V40.504ZM29.4857 37.504V32.551H23.4857V37.504H29.4857ZM26.4857 29.551H23.1707V35.551H26.4857V29.551ZM26.1707 32.551V30.874H20.1707V32.551H26.1707ZM23.1707 27.874H21.4937V33.874H23.1707V27.874ZM24.4937 30.874V25.96H18.4937V30.874H24.4937ZM21.4937 28.96H23.1707V22.96H21.4937V28.96ZM26.1707 25.96V24.283H20.1707V25.96H26.1707ZM23.1707 27.283H33.3887V21.283H23.1707V27.283ZM30.3887 24.283V25.96H36.3887V24.283H30.3887ZM33.3887 28.96H35.0657V22.96H33.3887V28.96ZM32.0657 25.96V43.861H38.0657V25.96H32.0657ZM35.0657 40.861H32.9207V46.861H35.0657V40.861ZM29.9207 43.861V45.772H35.9207V43.861H29.9207ZM32.9207 42.772H14.1617V48.772H32.9207V42.772ZM17.1617 45.772V43.861H11.1617V45.772H17.1617ZM59.9809 37.504H62.9809V34.504H59.9809V37.504ZM59.9809 39.337H56.9809V42.337H59.9809V39.337ZM61.7749 39.337H64.7749V36.337H61.7749V39.337ZM61.7749 43.978V46.978H64.7749V43.978H61.7749ZM59.9809 43.978V40.978H56.9809V43.978H59.9809ZM59.9809 45.772V48.772H62.9809V45.772H59.9809ZM43.2109 45.772H40.2109V48.772H43.2109V45.772ZM43.2109 43.978H46.2109V40.978H43.2109V43.978ZM41.3779 43.978H38.3779V46.978H41.3779V43.978ZM41.3779 39.337V36.337H38.3779V39.337H41.3779ZM43.2109 39.337V42.337H46.2109V39.337H43.2109ZM43.2109 37.504V34.504H40.2109V37.504H43.2109ZM46.9549 37.504V40.504H49.9549V37.504H46.9549ZM46.9549 18.901H49.9549V15.901H46.9549V18.901ZM43.2109 18.901H40.2109V21.901H43.2109V18.901ZM43.2109 17.107H46.2109V14.107H43.2109V17.107ZM41.3779 17.107H38.3779V20.107H41.3779V17.107ZM41.3779 12.466V9.466H38.3779V12.466H41.3779ZM43.2109 12.466V15.466H46.2109V12.466H43.2109ZM43.2109 10.672V7.672H40.2109V10.672H43.2109ZM59.9809 10.672H62.9809V7.672H59.9809V10.672ZM59.9809 12.466H56.9809V15.466H59.9809V12.466ZM61.7749 12.466H64.7749V9.466H61.7749V12.466ZM61.7749 17.107V20.107H64.7749V17.107H61.7749ZM59.9809 17.107V14.107H56.9809V17.107H59.9809ZM59.9809 18.901V21.901H62.9809V18.901H59.9809ZM56.2369 18.901V15.901H53.2369V18.901H56.2369ZM56.2369 37.504H53.2369V40.504H56.2369V37.504ZM56.9809 37.504V39.337H62.9809V37.504H56.9809ZM59.9809 42.337H61.7749V36.337H59.9809V42.337ZM58.7749 39.337V43.978H64.7749V39.337H58.7749ZM61.7749 40.978H59.9809V46.978H61.7749V40.978ZM56.9809 43.978V45.772H62.9809V43.978H56.9809ZM59.9809 42.772H43.2109V48.772H59.9809V42.772ZM46.2109 45.772V43.978H40.2109V45.772H46.2109ZM43.2109 40.978H41.3779V46.978H43.2109V40.978ZM44.3779 43.978V39.337H38.3779V43.978H44.3779ZM41.3779 42.337H43.2109V36.337H41.3779V42.337ZM46.2109 39.337V37.504H40.2109V39.337H46.2109ZM43.2109 40.504H46.9549V34.504H43.2109V40.504ZM49.9549 37.504V18.901H43.9549V37.504H49.9549ZM46.9549 15.901H43.2109V21.901H46.9549V15.901ZM46.2109 18.901V17.107H40.2109V18.901H46.2109ZM43.2109 14.107H41.3779V20.107H43.2109V14.107ZM44.3779 17.107V12.466H38.3779V17.107H44.3779ZM41.3779 15.466H43.2109V9.466H41.3779V15.466ZM46.2109 12.466V10.672H40.2109V12.466H46.2109ZM43.2109 13.672H59.9809V7.672H43.2109V13.672ZM56.9809 10.672V12.466H62.9809V10.672H56.9809ZM59.9809 15.466H61.7749V9.466H59.9809V15.466ZM58.7749 12.466V17.107H64.7749V12.466H58.7749ZM61.7749 14.107H59.9809V20.107H61.7749V14.107ZM56.9809 17.107V18.901H62.9809V17.107H56.9809ZM59.9809 15.901H56.2369V21.901H59.9809V15.901ZM53.2369 18.901V37.504H59.2369V18.901H53.2369ZM56.2369 40.504H59.9809V34.504H56.2369V40.504ZM74.3152 32.2H71.3152V35.2H74.3152V32.2ZM74.3152 30.523H77.3152V27.523H74.3152V30.523ZM72.2092 30.523H69.2092V33.523H72.2092V30.523ZM72.2092 28.69H75.2092V25.69H72.2092V28.69ZM70.1032 28.69H67.1032V31.69H70.1032V28.69ZM70.1032 26.779H73.1032V23.779H70.1032V26.779ZM67.9192 26.779H64.9192V29.779H67.9192V26.779ZM67.9192 16.132V13.132H64.9192V16.132H67.9192ZM70.1032 16.132V19.132H73.1032V16.132H70.1032ZM70.1032 14.143V11.143H67.1032V14.143H70.1032ZM72.1312 14.143V17.143H75.1312V14.143H72.1312ZM72.1312 12.349V9.349H69.1312V12.349H72.1312ZM74.0422 12.349V15.349H77.0422V12.349H74.0422ZM74.0422 10.711V7.711H71.0422V10.711H74.0422ZM91.4752 10.711H94.4752V7.711H91.4752V10.711ZM91.4752 12.505H88.4752V15.505H91.4752V12.505ZM93.5812 12.505H96.5812V9.505H93.5812V12.505ZM93.5812 17.224V20.224H96.5812V17.224H93.5812ZM91.4752 17.224V14.224H88.4752V17.224H91.4752ZM91.4752 19.057V22.057H94.4752V19.057H91.4752ZM79.2292 19.057V16.057H76.2292V19.057H79.2292ZM79.2292 20.461V23.461H82.2292V20.461H79.2292ZM77.7862 20.461V17.461H74.7862V20.461H77.7862ZM77.7862 22.801H74.7862V25.801H77.7862V22.801ZM79.2292 22.801H82.2292V19.801H79.2292V22.801ZM79.2292 24.205H76.2292V27.205H79.2292V24.205ZM87.6922 24.205H90.6922V21.205H87.6922V24.205ZM87.6922 25.921H84.6922V28.921H87.6922V25.921ZM89.7592 25.921H92.7592V22.921H89.7592V25.921ZM89.7592 27.715H86.7592V30.715H89.7592V27.715ZM91.9042 27.715H94.9042V24.715H91.9042V27.715ZM91.9042 29.665H88.9042V32.665H91.9042V29.665ZM94.0882 29.665H97.0882V26.665H94.0882V29.665ZM94.0882 40.273V43.273H97.0882V40.273H94.0882ZM91.9042 40.273V37.273H88.9042V40.273H91.9042ZM91.9042 42.262V45.262H94.9042V42.262H91.9042ZM89.8372 42.262V39.262H86.8372V42.262H89.8372ZM89.8372 44.056V47.056H92.8372V44.056H89.8372ZM87.9652 44.056V41.056H84.9652V44.056H87.9652ZM87.9652 45.733V48.733H90.9652V45.733H87.9652ZM70.4152 45.733H67.4152V48.733H70.4152V45.733ZM70.4152 43.9H73.4152V40.9H70.4152V43.9ZM68.3872 43.9H65.3872V46.9H68.3872V43.9ZM68.3872 39.181V36.181H65.3872V39.181H68.3872ZM70.4152 39.181V42.181H73.4152V39.181H70.4152ZM70.4152 37.387V34.387H67.4152V37.387H70.4152ZM82.6612 37.387V40.387H85.6612V37.387H82.6612ZM82.6612 35.944V32.944H79.6612V35.944H82.6612ZM84.1042 35.944V38.944H87.1042V35.944H84.1042ZM84.1042 33.643H87.1042V30.643H84.1042V33.643ZM82.6612 33.643H79.6612V36.643H82.6612V33.643ZM82.6612 32.2H85.6612V29.2H82.6612V32.2ZM77.3152 32.2V30.523H71.3152V32.2H77.3152ZM74.3152 27.523H72.2092V33.523H74.3152V27.523ZM75.2092 30.523V28.69H69.2092V30.523H75.2092ZM72.2092 25.69H70.1032V31.69H72.2092V25.69ZM73.1032 28.69V26.779H67.1032V28.69H73.1032ZM70.1032 23.779H67.9192V29.779H70.1032V23.779ZM70.9192 26.779V16.132H64.9192V26.779H70.9192ZM67.9192 19.132H70.1032V13.132H67.9192V19.132ZM73.1032 16.132V14.143H67.1032V16.132H73.1032ZM70.1032 17.143H72.1312V11.143H70.1032V17.143ZM75.1312 14.143V12.349H69.1312V14.143H75.1312ZM72.1312 15.349H74.0422V9.349H72.1312V15.349ZM77.0422 12.349V10.711H71.0422V12.349H77.0422ZM74.0422 13.711H91.4752V7.711H74.0422V13.711ZM88.4752 10.711V12.505H94.4752V10.711H88.4752ZM91.4752 15.505H93.5812V9.505H91.4752V15.505ZM90.5812 12.505V17.224H96.5812V12.505H90.5812ZM93.5812 14.224H91.4752V20.224H93.5812V14.224ZM88.4752 17.224V19.057H94.4752V17.224H88.4752ZM91.4752 16.057H79.2292V22.057H91.4752V16.057ZM76.2292 19.057V20.461H82.2292V19.057H76.2292ZM79.2292 17.461H77.7862V23.461H79.2292V17.461ZM74.7862 20.461V22.801H80.7862V20.461H74.7862ZM77.7862 25.801H79.2292V19.801H77.7862V25.801ZM76.2292 22.801V24.205H82.2292V22.801H76.2292ZM79.2292 27.205H87.6922V21.205H79.2292V27.205ZM84.6922 24.205V25.921H90.6922V24.205H84.6922ZM87.6922 28.921H89.7592V22.921H87.6922V28.921ZM86.7592 25.921V27.715H92.7592V25.921H86.7592ZM89.7592 30.715H91.9042V24.715H89.7592V30.715ZM88.9042 27.715V29.665H94.9042V27.715H88.9042ZM91.9042 32.665H94.0882V26.665H91.9042V32.665ZM91.0882 29.665V40.273H97.0882V29.665H91.0882ZM94.0882 37.273H91.9042V43.273H94.0882V37.273ZM88.9042 40.273V42.262H94.9042V40.273H88.9042ZM91.9042 39.262H89.8372V45.262H91.9042V39.262ZM86.8372 42.262V44.056H92.8372V42.262H86.8372ZM89.8372 41.056H87.9652V47.056H89.8372V41.056ZM84.9652 44.056V45.733H90.9652V44.056H84.9652ZM87.9652 42.733H70.4152V48.733H87.9652V42.733ZM73.4152 45.733V43.9H67.4152V45.733H73.4152ZM70.4152 40.9H68.3872V46.9H70.4152V40.9ZM71.3872 43.9V39.181H65.3872V43.9H71.3872ZM68.3872 42.181H70.4152V36.181H68.3872V42.181ZM73.4152 39.181V37.387H67.4152V39.181H73.4152ZM70.4152 40.387H82.6612V34.387H70.4152V40.387ZM85.6612 37.387V35.944H79.6612V37.387H85.6612ZM82.6612 38.944H84.1042V32.944H82.6612V38.944ZM87.1042 35.944V33.643H81.1042V35.944H87.1042ZM84.1042 30.643H82.6612V36.643H84.1042V30.643ZM85.6612 33.643V32.2H79.6612V33.643H85.6612ZM82.6612 29.2H74.3152V35.2H82.6612V29.2ZM125.875 12.505H122.875V15.505H125.875V12.505ZM127.669 12.505H130.669V9.505H127.669V12.505ZM127.669 17.302V20.302H130.669V17.302H127.669ZM125.875 17.302V14.302H122.875V17.302H125.875ZM125.875 19.096V22.096H128.875V19.096H125.875ZM118.66 19.096V16.096H115.66V19.096H118.66ZM118.66 43.978V46.978H121.66V43.978H118.66ZM116.866 43.978V40.978H113.866V43.978H116.866ZM116.866 45.772V48.772H119.866V45.772H116.866ZM111.094 45.772H108.094V48.772H111.094V45.772ZM111.094 43.978H114.094V40.978H111.094V43.978ZM109.3 43.978H106.3V46.978H109.3V43.978ZM109.3 19.096H112.3V16.096H109.3V19.096ZM101.968 19.096H98.9681V22.096H101.968V19.096ZM101.968 17.302H104.968V14.302H101.968V17.302ZM100.174 17.302H97.1741V20.302H100.174V17.302ZM100.174 12.505V9.505H97.1741V12.505H100.174ZM101.968 12.505V15.505H104.968V12.505H101.968ZM101.968 10.711V7.711H98.9681V10.711H101.968ZM125.875 10.711H128.875V7.711H125.875V10.711ZM125.875 15.505H127.669V9.505H125.875V15.505ZM124.669 12.505V17.302H130.669V12.505H124.669ZM127.669 14.302H125.875V20.302H127.669V14.302ZM122.875 17.302V19.096H128.875V17.302H122.875ZM125.875 16.096H118.66V22.096H125.875V16.096ZM115.66 19.096V43.978H121.66V19.096H115.66ZM118.66 40.978H116.866V46.978H118.66V40.978ZM113.866 43.978V45.772H119.866V43.978H113.866ZM116.866 42.772H111.094V48.772H116.866V42.772ZM114.094 45.772V43.978H108.094V45.772H114.094ZM111.094 40.978H109.3V46.978H111.094V40.978ZM112.3 43.978V19.096H106.3V43.978H112.3ZM109.3 16.096H101.968V22.096H109.3V16.096ZM104.968 19.096V17.302H98.9681V19.096H104.968ZM101.968 14.302H100.174V20.302H101.968V14.302ZM103.174 17.302V12.505H97.1741V17.302H103.174ZM100.174 15.505H101.968V9.505H100.174V15.505ZM104.968 12.505V10.711H98.9681V12.505H104.968ZM101.968 13.711H125.875V7.711H101.968V13.711ZM122.875 10.711V12.505H128.875V10.711H122.875Z" fill="black" mask="url(#path-1-outside-1_3_2)"/>
</svg>
