<svg width="348" height="82" viewBox="0 0 348 82" fill="none" xmlns="http://www.w3.org/2000/svg">
<mask id="path-1-outside-1_212_3" maskUnits="userSpaceOnUse" x="12" y="13" width="324" height="59" fill="black">
<rect fill="white" x="12" y="13" width="324" height="59"/>
<path d="M61.3197 48.17H47.4117V55.808H64.3407V58.088H66.6777V64.472H64.3407V66.752H17.7147V64.472H15.3777V58.088H17.7147V55.808H34.6437V48.17H20.6787V45.89H18.3987V18.473H20.6787V16.193H28.4307V18.473H30.7677V22.805H51.2877V18.473H53.5677V16.193H61.3197V18.473H63.6567V45.89H61.3197V48.17ZM51.2877 32.951H30.7677V37.91H51.2877V32.951ZM81.1944 18.473V16.193H123.089V18.473H125.369V30.5H123.089V32.78H81.1944V30.5H78.9144V18.473H81.1944ZM90.8844 23.318V25.655H113.399V23.318H90.8844ZM76.4634 36.314H78.4014V34.376H125.825V36.314H127.763V40.475H125.825V42.413H108.611V44.408H123.374V46.289H125.255V57.575H123.374V59.456H90.9414V61.166H124.856V62.933H126.68V66.41H124.856V68.12H80.6244V66.239H78.8004V54.839H80.6244V52.958H113.057V51.305H80.6244V49.538H78.8004V46.175H80.6244V44.408H95.6154V42.413H78.4014V40.475H76.4634V36.314ZM171.994 55.181H189.208V57.461H191.545V63.617H189.208V65.897H162.247V63.617H159.91V37.796H162.247V35.516H178.378V26.909H162.247V24.629H159.91V18.473H162.247V16.193H188.125V18.473H190.519V43.895H188.125V46.175H171.994V55.181ZM206.821 16.193V18.473H209.044V65.84H206.821V68.12H198.67V65.84H196.447V18.473H198.67V16.193H206.821ZM247.387 36.143H244.423V38.423H241.744V40.817H238.951V43.382H236.044V46.118H232.966V48.512H224.929V46.289H222.022L222.136 37.91H225.043V35.459H228.292V33.008H231.313V30.671H234.049V28.391H236.614V26.168H238.951V18.302H241.174V16.193H250.636V18.302H252.802V26.168H255.196V28.391H257.761V30.671H260.497V33.008H263.518V35.459H266.767V37.91H269.674V46.289H266.881V48.512H258.844V46.118H255.766V43.382H252.802V40.817H250.066V38.423H247.387V36.143ZM269.218 55.637V57.917H271.555V64.472H269.218V66.752H222.592V64.472H220.255V57.917H222.592V55.637H269.218ZM327.91 51.704H286.642V49.424H284.362V18.473H286.642V16.193H327.568V18.473H329.848V23.717H327.568V25.997H296.674V29.075H327.226V31.355H329.506V36.485H327.226V38.765H296.674V41.9H327.91V44.18H330.19V49.424H327.91V51.704ZM330.304 56.093V58.373H332.641V64.472H330.304V66.752H283.678V64.472H281.341V58.373H283.678V56.093H330.304Z"/>
</mask>
<path d="M61.3197 48.17H47.4117V55.808H64.3407V58.088H66.6777V64.472H64.3407V66.752H17.7147V64.472H15.3777V58.088H17.7147V55.808H34.6437V48.17H20.6787V45.89H18.3987V18.473H20.6787V16.193H28.4307V18.473H30.7677V22.805H51.2877V18.473H53.5677V16.193H61.3197V18.473H63.6567V45.89H61.3197V48.17ZM51.2877 32.951H30.7677V37.91H51.2877V32.951ZM81.1944 18.473V16.193H123.089V18.473H125.369V30.5H123.089V32.78H81.1944V30.5H78.9144V18.473H81.1944ZM90.8844 23.318V25.655H113.399V23.318H90.8844ZM76.4634 36.314H78.4014V34.376H125.825V36.314H127.763V40.475H125.825V42.413H108.611V44.408H123.374V46.289H125.255V57.575H123.374V59.456H90.9414V61.166H124.856V62.933H126.68V66.41H124.856V68.12H80.6244V66.239H78.8004V54.839H80.6244V52.958H113.057V51.305H80.6244V49.538H78.8004V46.175H80.6244V44.408H95.6154V42.413H78.4014V40.475H76.4634V36.314ZM171.994 55.181H189.208V57.461H191.545V63.617H189.208V65.897H162.247V63.617H159.91V37.796H162.247V35.516H178.378V26.909H162.247V24.629H159.91V18.473H162.247V16.193H188.125V18.473H190.519V43.895H188.125V46.175H171.994V55.181ZM206.821 16.193V18.473H209.044V65.84H206.821V68.12H198.67V65.84H196.447V18.473H198.67V16.193H206.821ZM247.387 36.143H244.423V38.423H241.744V40.817H238.951V43.382H236.044V46.118H232.966V48.512H224.929V46.289H222.022L222.136 37.91H225.043V35.459H228.292V33.008H231.313V30.671H234.049V28.391H236.614V26.168H238.951V18.302H241.174V16.193H250.636V18.302H252.802V26.168H255.196V28.391H257.761V30.671H260.497V33.008H263.518V35.459H266.767V37.91H269.674V46.289H266.881V48.512H258.844V46.118H255.766V43.382H252.802V40.817H250.066V38.423H247.387V36.143ZM269.218 55.637V57.917H271.555V64.472H269.218V66.752H222.592V64.472H220.255V57.917H222.592V55.637H269.218ZM327.91 51.704H286.642V49.424H284.362V18.473H286.642V16.193H327.568V18.473H329.848V23.717H327.568V25.997H296.674V29.075H327.226V31.355H329.506V36.485H327.226V38.765H296.674V41.9H327.91V44.18H330.19V49.424H327.91V51.704ZM330.304 56.093V58.373H332.641V64.472H330.304V66.752H283.678V64.472H281.341V58.373H283.678V56.093H330.304Z" fill="white"/>
<path d="M61.3197 48.17V51.17H64.3197V48.17H61.3197ZM47.4117 48.17V45.17H44.4117V48.17H47.4117ZM47.4117 55.808H44.4117V58.808H47.4117V55.808ZM64.3407 55.808H67.3407V52.808H64.3407V55.808ZM64.3407 58.088H61.3407V61.088H64.3407V58.088ZM66.6777 58.088H69.6777V55.088H66.6777V58.088ZM66.6777 64.472V67.472H69.6777V64.472H66.6777ZM64.3407 64.472V61.472H61.3407V64.472H64.3407ZM64.3407 66.752V69.752H67.3407V66.752H64.3407ZM17.7147 66.752H14.7147V69.752H17.7147V66.752ZM17.7147 64.472H20.7147V61.472H17.7147V64.472ZM15.3777 64.472H12.3777V67.472H15.3777V64.472ZM15.3777 58.088V55.088H12.3777V58.088H15.3777ZM17.7147 58.088V61.088H20.7147V58.088H17.7147ZM17.7147 55.808V52.808H14.7147V55.808H17.7147ZM34.6437 55.808V58.808H37.6437V55.808H34.6437ZM34.6437 48.17H37.6437V45.17H34.6437V48.17ZM20.6787 48.17H17.6787V51.17H20.6787V48.17ZM20.6787 45.89H23.6787V42.89H20.6787V45.89ZM18.3987 45.89H15.3987V48.89H18.3987V45.89ZM18.3987 18.473V15.473H15.3987V18.473H18.3987ZM20.6787 18.473V21.473H23.6787V18.473H20.6787ZM20.6787 16.193V13.193H17.6787V16.193H20.6787ZM28.4307 16.193H31.4307V13.193H28.4307V16.193ZM28.4307 18.473H25.4307V21.473H28.4307V18.473ZM30.7677 18.473H33.7677V15.473H30.7677V18.473ZM30.7677 22.805H27.7677V25.805H30.7677V22.805ZM51.2877 22.805V25.805H54.2877V22.805H51.2877ZM51.2877 18.473V15.473H48.2877V18.473H51.2877ZM53.5677 18.473V21.473H56.5677V18.473H53.5677ZM53.5677 16.193V13.193H50.5677V16.193H53.5677ZM61.3197 16.193H64.3197V13.193H61.3197V16.193ZM61.3197 18.473H58.3197V21.473H61.3197V18.473ZM63.6567 18.473H66.6567V15.473H63.6567V18.473ZM63.6567 45.89V48.89H66.6567V45.89H63.6567ZM61.3197 45.89V42.89H58.3197V45.89H61.3197ZM51.2877 32.951H54.2877V29.951H51.2877V32.951ZM30.7677 32.951V29.951H27.7677V32.951H30.7677ZM30.7677 37.91H27.7677V40.91H30.7677V37.91ZM51.2877 37.91V40.91H54.2877V37.91H51.2877ZM61.3197 45.17H47.4117V51.17H61.3197V45.17ZM44.4117 48.17V55.808H50.4117V48.17H44.4117ZM47.4117 58.808H64.3407V52.808H47.4117V58.808ZM61.3407 55.808V58.088H67.3407V55.808H61.3407ZM64.3407 61.088H66.6777V55.088H64.3407V61.088ZM63.6777 58.088V64.472H69.6777V58.088H63.6777ZM66.6777 61.472H64.3407V67.472H66.6777V61.472ZM61.3407 64.472V66.752H67.3407V64.472H61.3407ZM64.3407 63.752H17.7147V69.752H64.3407V63.752ZM20.7147 66.752V64.472H14.7147V66.752H20.7147ZM17.7147 61.472H15.3777V67.472H17.7147V61.472ZM18.3777 64.472V58.088H12.3777V64.472H18.3777ZM15.3777 61.088H17.7147V55.088H15.3777V61.088ZM20.7147 58.088V55.808H14.7147V58.088H20.7147ZM17.7147 58.808H34.6437V52.808H17.7147V58.808ZM37.6437 55.808V48.17H31.6437V55.808H37.6437ZM34.6437 45.17H20.6787V51.17H34.6437V45.17ZM23.6787 48.17V45.89H17.6787V48.17H23.6787ZM20.6787 42.89H18.3987V48.89H20.6787V42.89ZM21.3987 45.89V18.473H15.3987V45.89H21.3987ZM18.3987 21.473H20.6787V15.473H18.3987V21.473ZM23.6787 18.473V16.193H17.6787V18.473H23.6787ZM20.6787 19.193H28.4307V13.193H20.6787V19.193ZM25.4307 16.193V18.473H31.4307V16.193H25.4307ZM28.4307 21.473H30.7677V15.473H28.4307V21.473ZM27.7677 18.473V22.805H33.7677V18.473H27.7677ZM30.7677 25.805H51.2877V19.805H30.7677V25.805ZM54.2877 22.805V18.473H48.2877V22.805H54.2877ZM51.2877 21.473H53.5677V15.473H51.2877V21.473ZM56.5677 18.473V16.193H50.5677V18.473H56.5677ZM53.5677 19.193H61.3197V13.193H53.5677V19.193ZM58.3197 16.193V18.473H64.3197V16.193H58.3197ZM61.3197 21.473H63.6567V15.473H61.3197V21.473ZM60.6567 18.473V45.89H66.6567V18.473H60.6567ZM63.6567 42.89H61.3197V48.89H63.6567V42.89ZM58.3197 45.89V48.17H64.3197V45.89H58.3197ZM51.2877 29.951H30.7677V35.951H51.2877V29.951ZM27.7677 32.951V37.91H33.7677V32.951H27.7677ZM30.7677 40.91H51.2877V34.91H30.7677V40.91ZM54.2877 37.91V32.951H48.2877V37.91H54.2877ZM81.1944 18.473V21.473H84.1944V18.473H81.1944ZM81.1944 16.193V13.193H78.1944V16.193H81.1944ZM123.089 16.193H126.089V13.193H123.089V16.193ZM123.089 18.473H120.089V21.473H123.089V18.473ZM125.369 18.473H128.369V15.473H125.369V18.473ZM125.369 30.5V33.5H128.369V30.5H125.369ZM123.089 30.5V27.5H120.089V30.5H123.089ZM123.089 32.78V35.78H126.089V32.78H123.089ZM81.1944 32.78H78.1944V35.78H81.1944V32.78ZM81.1944 30.5H84.1944V27.5H81.1944V30.5ZM78.9144 30.5H75.9144V33.5H78.9144V30.5ZM78.9144 18.473V15.473H75.9144V18.473H78.9144ZM90.8844 23.318V20.318H87.8844V23.318H90.8844ZM90.8844 25.655H87.8844V28.655H90.8844V25.655ZM113.399 25.655V28.655H116.399V25.655H113.399ZM113.399 23.318H116.399V20.318H113.399V23.318ZM76.4634 36.314V33.314H73.4634V36.314H76.4634ZM78.4014 36.314V39.314H81.4014V36.314H78.4014ZM78.4014 34.376V31.376H75.4014V34.376H78.4014ZM125.825 34.376H128.825V31.376H125.825V34.376ZM125.825 36.314H122.825V39.314H125.825V36.314ZM127.763 36.314H130.763V33.314H127.763V36.314ZM127.763 40.475V43.475H130.763V40.475H127.763ZM125.825 40.475V37.475H122.825V40.475H125.825ZM125.825 42.413V45.413H128.825V42.413H125.825ZM108.611 42.413V39.413H105.611V42.413H108.611ZM108.611 44.408H105.611V47.408H108.611V44.408ZM123.374 44.408H126.374V41.408H123.374V44.408ZM123.374 46.289H120.374V49.289H123.374V46.289ZM125.255 46.289H128.255V43.289H125.255V46.289ZM125.255 57.575V60.575H128.255V57.575H125.255ZM123.374 57.575V54.575H120.374V57.575H123.374ZM123.374 59.456V62.456H126.374V59.456H123.374ZM90.9414 59.456V56.456H87.9414V59.456H90.9414ZM90.9414 61.166H87.9414V64.166H90.9414V61.166ZM124.856 61.166H127.856V58.166H124.856V61.166ZM124.856 62.933H121.856V65.933H124.856V62.933ZM126.68 62.933H129.68V59.933H126.68V62.933ZM126.68 66.41V69.41H129.68V66.41H126.68ZM124.856 66.41V63.41H121.856V66.41H124.856ZM124.856 68.12V71.12H127.856V68.12H124.856ZM80.6244 68.12H77.6244V71.12H80.6244V68.12ZM80.6244 66.239H83.6244V63.239H80.6244V66.239ZM78.8004 66.239H75.8004V69.239H78.8004V66.239ZM78.8004 54.839V51.839H75.8004V54.839H78.8004ZM80.6244 54.839V57.839H83.6244V54.839H80.6244ZM80.6244 52.958V49.958H77.6244V52.958H80.6244ZM113.057 52.958V55.958H116.057V52.958H113.057ZM113.057 51.305H116.057V48.305H113.057V51.305ZM80.6244 51.305H77.6244V54.305H80.6244V51.305ZM80.6244 49.538H83.6244V46.538H80.6244V49.538ZM78.8004 49.538H75.8004V52.538H78.8004V49.538ZM78.8004 46.175V43.175H75.8004V46.175H78.8004ZM80.6244 46.175V49.175H83.6244V46.175H80.6244ZM80.6244 44.408V41.408H77.6244V44.408H80.6244ZM95.6154 44.408V47.408H98.6154V44.408H95.6154ZM95.6154 42.413H98.6154V39.413H95.6154V42.413ZM78.4014 42.413H75.4014V45.413H78.4014V42.413ZM78.4014 40.475H81.4014V37.475H78.4014V40.475ZM76.4634 40.475H73.4634V43.475H76.4634V40.475ZM84.1944 18.473V16.193H78.1944V18.473H84.1944ZM81.1944 19.193H123.089V13.193H81.1944V19.193ZM120.089 16.193V18.473H126.089V16.193H120.089ZM123.089 21.473H125.369V15.473H123.089V21.473ZM122.369 18.473V30.5H128.369V18.473H122.369ZM125.369 27.5H123.089V33.5H125.369V27.5ZM120.089 30.5V32.78H126.089V30.5H120.089ZM123.089 29.78H81.1944V35.78H123.089V29.78ZM84.1944 32.78V30.5H78.1944V32.78H84.1944ZM81.1944 27.5H78.9144V33.5H81.1944V27.5ZM81.9144 30.5V18.473H75.9144V30.5H81.9144ZM78.9144 21.473H81.1944V15.473H78.9144V21.473ZM87.8844 23.318V25.655H93.8844V23.318H87.8844ZM90.8844 28.655H113.399V22.655H90.8844V28.655ZM116.399 25.655V23.318H110.399V25.655H116.399ZM113.399 20.318H90.8844V26.318H113.399V20.318ZM76.4634 39.314H78.4014V33.314H76.4634V39.314ZM81.4014 36.314V34.376H75.4014V36.314H81.4014ZM78.4014 37.376H125.825V31.376H78.4014V37.376ZM122.825 34.376V36.314H128.825V34.376H122.825ZM125.825 39.314H127.763V33.314H125.825V39.314ZM124.763 36.314V40.475H130.763V36.314H124.763ZM127.763 37.475H125.825V43.475H127.763V37.475ZM122.825 40.475V42.413H128.825V40.475H122.825ZM125.825 39.413H108.611V45.413H125.825V39.413ZM105.611 42.413V44.408H111.611V42.413H105.611ZM108.611 47.408H123.374V41.408H108.611V47.408ZM120.374 44.408V46.289H126.374V44.408H120.374ZM123.374 49.289H125.255V43.289H123.374V49.289ZM122.255 46.289V57.575H128.255V46.289H122.255ZM125.255 54.575H123.374V60.575H125.255V54.575ZM120.374 57.575V59.456H126.374V57.575H120.374ZM123.374 56.456H90.9414V62.456H123.374V56.456ZM87.9414 59.456V61.166H93.9414V59.456H87.9414ZM90.9414 64.166H124.856V58.166H90.9414V64.166ZM121.856 61.166V62.933H127.856V61.166H121.856ZM124.856 65.933H126.68V59.933H124.856V65.933ZM123.68 62.933V66.41H129.68V62.933H123.68ZM126.68 63.41H124.856V69.41H126.68V63.41ZM121.856 66.41V68.12H127.856V66.41H121.856ZM124.856 65.12H80.6244V71.12H124.856V65.12ZM83.6244 68.12V66.239H77.6244V68.12H83.6244ZM80.6244 63.239H78.8004V69.239H80.6244V63.239ZM81.8004 66.239V54.839H75.8004V66.239H81.8004ZM78.8004 57.839H80.6244V51.839H78.8004V57.839ZM83.6244 54.839V52.958H77.6244V54.839H83.6244ZM80.6244 55.958H113.057V49.958H80.6244V55.958ZM116.057 52.958V51.305H110.057V52.958H116.057ZM113.057 48.305H80.6244V54.305H113.057V48.305ZM83.6244 51.305V49.538H77.6244V51.305H83.6244ZM80.6244 46.538H78.8004V52.538H80.6244V46.538ZM81.8004 49.538V46.175H75.8004V49.538H81.8004ZM78.8004 49.175H80.6244V43.175H78.8004V49.175ZM83.6244 46.175V44.408H77.6244V46.175H83.6244ZM80.6244 47.408H95.6154V41.408H80.6244V47.408ZM98.6154 44.408V42.413H92.6154V44.408H98.6154ZM95.6154 39.413H78.4014V45.413H95.6154V39.413ZM81.4014 42.413V40.475H75.4014V42.413H81.4014ZM78.4014 37.475H76.4634V43.475H78.4014V37.475ZM79.4634 40.475V36.314H73.4634V40.475H79.4634ZM171.994 55.181H168.994V58.181H171.994V55.181ZM189.208 55.181H192.208V52.181H189.208V55.181ZM189.208 57.461H186.208V60.461H189.208V57.461ZM191.545 57.461H194.545V54.461H191.545V57.461ZM191.545 63.617V66.617H194.545V63.617H191.545ZM189.208 63.617V60.617H186.208V63.617H189.208ZM189.208 65.897V68.897H192.208V65.897H189.208ZM162.247 65.897H159.247V68.897H162.247V65.897ZM162.247 63.617H165.247V60.617H162.247V63.617ZM159.91 63.617H156.91V66.617H159.91V63.617ZM159.91 37.796V34.796H156.91V37.796H159.91ZM162.247 37.796V40.796H165.247V37.796H162.247ZM162.247 35.516V32.516H159.247V35.516H162.247ZM178.378 35.516V38.516H181.378V35.516H178.378ZM178.378 26.909H181.378V23.909H178.378V26.909ZM162.247 26.909H159.247V29.909H162.247V26.909ZM162.247 24.629H165.247V21.629H162.247V24.629ZM159.91 24.629H156.91V27.629H159.91V24.629ZM159.91 18.473V15.473H156.91V18.473H159.91ZM162.247 18.473V21.473H165.247V18.473H162.247ZM162.247 16.193V13.193H159.247V16.193H162.247ZM188.125 16.193H191.125V13.193H188.125V16.193ZM188.125 18.473H185.125V21.473H188.125V18.473ZM190.519 18.473H193.519V15.473H190.519V18.473ZM190.519 43.895V46.895H193.519V43.895H190.519ZM188.125 43.895V40.895H185.125V43.895H188.125ZM188.125 46.175V49.175H191.125V46.175H188.125ZM171.994 46.175V43.175H168.994V46.175H171.994ZM206.821 16.193H209.821V13.193H206.821V16.193ZM206.821 18.473H203.821V21.473H206.821V18.473ZM209.044 18.473H212.044V15.473H209.044V18.473ZM209.044 65.84V68.84H212.044V65.84H209.044ZM206.821 65.84V62.84H203.821V65.84H206.821ZM206.821 68.12V71.12H209.821V68.12H206.821ZM198.67 68.12H195.67V71.12H198.67V68.12ZM198.67 65.84H201.67V62.84H198.67V65.84ZM196.447 65.84H193.447V68.84H196.447V65.84ZM196.447 18.473V15.473H193.447V18.473H196.447ZM198.67 18.473V21.473H201.67V18.473H198.67ZM198.67 16.193V13.193H195.67V16.193H198.67ZM171.994 58.181H189.208V52.181H171.994V58.181ZM186.208 55.181V57.461H192.208V55.181H186.208ZM189.208 60.461H191.545V54.461H189.208V60.461ZM188.545 57.461V63.617H194.545V57.461H188.545ZM191.545 60.617H189.208V66.617H191.545V60.617ZM186.208 63.617V65.897H192.208V63.617H186.208ZM189.208 62.897H162.247V68.897H189.208V62.897ZM165.247 65.897V63.617H159.247V65.897H165.247ZM162.247 60.617H159.91V66.617H162.247V60.617ZM162.91 63.617V37.796H156.91V63.617H162.91ZM159.91 40.796H162.247V34.796H159.91V40.796ZM165.247 37.796V35.516H159.247V37.796H165.247ZM162.247 38.516H178.378V32.516H162.247V38.516ZM181.378 35.516V26.909H175.378V35.516H181.378ZM178.378 23.909H162.247V29.909H178.378V23.909ZM165.247 26.909V24.629H159.247V26.909H165.247ZM162.247 21.629H159.91V27.629H162.247V21.629ZM162.91 24.629V18.473H156.91V24.629H162.91ZM159.91 21.473H162.247V15.473H159.91V21.473ZM165.247 18.473V16.193H159.247V18.473H165.247ZM162.247 19.193H188.125V13.193H162.247V19.193ZM185.125 16.193V18.473H191.125V16.193H185.125ZM188.125 21.473H190.519V15.473H188.125V21.473ZM187.519 18.473V43.895H193.519V18.473H187.519ZM190.519 40.895H188.125V46.895H190.519V40.895ZM185.125 43.895V46.175H191.125V43.895H185.125ZM188.125 43.175H171.994V49.175H188.125V43.175ZM168.994 46.175V55.181H174.994V46.175H168.994ZM203.821 16.193V18.473H209.821V16.193H203.821ZM206.821 21.473H209.044V15.473H206.821V21.473ZM206.044 18.473V65.84H212.044V18.473H206.044ZM209.044 62.84H206.821V68.84H209.044V62.84ZM203.821 65.84V68.12H209.821V65.84H203.821ZM206.821 65.12H198.67V71.12H206.821V65.12ZM201.67 68.12V65.84H195.67V68.12H201.67ZM198.67 62.84H196.447V68.84H198.67V62.84ZM199.447 65.84V18.473H193.447V65.84H199.447ZM196.447 21.473H198.67V15.473H196.447V21.473ZM201.67 18.473V16.193H195.67V18.473H201.67ZM198.67 19.193H206.821V13.193H198.67V19.193ZM247.387 36.143H250.387V33.143H247.387V36.143ZM244.423 36.143V33.143H241.423V36.143H244.423ZM244.423 38.423V41.423H247.423V38.423H244.423ZM241.744 38.423V35.423H238.744V38.423H241.744ZM241.744 40.817V43.817H244.744V40.817H241.744ZM238.951 40.817V37.817H235.951V40.817H238.951ZM238.951 43.382V46.382H241.951V43.382H238.951ZM236.044 43.382V40.382H233.044V43.382H236.044ZM236.044 46.118V49.118H239.044V46.118H236.044ZM232.966 46.118V43.118H229.966V46.118H232.966ZM232.966 48.512V51.512H235.966V48.512H232.966ZM224.929 48.512H221.929V51.512H224.929V48.512ZM224.929 46.289H227.929V43.289H224.929V46.289ZM222.022 46.289L219.022 46.2482L218.981 49.289H222.022V46.289ZM222.136 37.91V34.91H219.176L219.136 37.8692L222.136 37.91ZM225.043 37.91V40.91H228.043V37.91H225.043ZM225.043 35.459V32.459H222.043V35.459H225.043ZM228.292 35.459V38.459H231.292V35.459H228.292ZM228.292 33.008V30.008H225.292V33.008H228.292ZM231.313 33.008V36.008H234.313V33.008H231.313ZM231.313 30.671V27.671H228.313V30.671H231.313ZM234.049 30.671V33.671H237.049V30.671H234.049ZM234.049 28.391V25.391H231.049V28.391H234.049ZM236.614 28.391V31.391H239.614V28.391H236.614ZM236.614 26.168V23.168H233.614V26.168H236.614ZM238.951 26.168V29.168H241.951V26.168H238.951ZM238.951 18.302V15.302H235.951V18.302H238.951ZM241.174 18.302V21.302H244.174V18.302H241.174ZM241.174 16.193V13.193H238.174V16.193H241.174ZM250.636 16.193H253.636V13.193H250.636V16.193ZM250.636 18.302H247.636V21.302H250.636V18.302ZM252.802 18.302H255.802V15.302H252.802V18.302ZM252.802 26.168H249.802V29.168H252.802V26.168ZM255.196 26.168H258.196V23.168H255.196V26.168ZM255.196 28.391H252.196V31.391H255.196V28.391ZM257.761 28.391H260.761V25.391H257.761V28.391ZM257.761 30.671H254.761V33.671H257.761V30.671ZM260.497 30.671H263.497V27.671H260.497V30.671ZM260.497 33.008H257.497V36.008H260.497V33.008ZM263.518 33.008H266.518V30.008H263.518V33.008ZM263.518 35.459H260.518V38.459H263.518V35.459ZM266.767 35.459H269.767V32.459H266.767V35.459ZM266.767 37.91H263.767V40.91H266.767V37.91ZM269.674 37.91H272.674V34.91H269.674V37.91ZM269.674 46.289V49.289H272.674V46.289H269.674ZM266.881 46.289V43.289H263.881V46.289H266.881ZM266.881 48.512V51.512H269.881V48.512H266.881ZM258.844 48.512H255.844V51.512H258.844V48.512ZM258.844 46.118H261.844V43.118H258.844V46.118ZM255.766 46.118H252.766V49.118H255.766V46.118ZM255.766 43.382H258.766V40.382H255.766V43.382ZM252.802 43.382H249.802V46.382H252.802V43.382ZM252.802 40.817H255.802V37.817H252.802V40.817ZM250.066 40.817H247.066V43.817H250.066V40.817ZM250.066 38.423H253.066V35.423H250.066V38.423ZM247.387 38.423H244.387V41.423H247.387V38.423ZM269.218 55.637H272.218V52.637H269.218V55.637ZM269.218 57.917H266.218V60.917H269.218V57.917ZM271.555 57.917H274.555V54.917H271.555V57.917ZM271.555 64.472V67.472H274.555V64.472H271.555ZM269.218 64.472V61.472H266.218V64.472H269.218ZM269.218 66.752V69.752H272.218V66.752H269.218ZM222.592 66.752H219.592V69.752H222.592V66.752ZM222.592 64.472H225.592V61.472H222.592V64.472ZM220.255 64.472H217.255V67.472H220.255V64.472ZM220.255 57.917V54.917H217.255V57.917H220.255ZM222.592 57.917V60.917H225.592V57.917H222.592ZM222.592 55.637V52.637H219.592V55.637H222.592ZM247.387 33.143H244.423V39.143H247.387V33.143ZM241.423 36.143V38.423H247.423V36.143H241.423ZM244.423 35.423H241.744V41.423H244.423V35.423ZM238.744 38.423V40.817H244.744V38.423H238.744ZM241.744 37.817H238.951V43.817H241.744V37.817ZM235.951 40.817V43.382H241.951V40.817H235.951ZM238.951 40.382H236.044V46.382H238.951V40.382ZM233.044 43.382V46.118H239.044V43.382H233.044ZM236.044 43.118H232.966V49.118H236.044V43.118ZM229.966 46.118V48.512H235.966V46.118H229.966ZM232.966 45.512H224.929V51.512H232.966V45.512ZM227.929 48.512V46.289H221.929V48.512H227.929ZM224.929 43.289H222.022V49.289H224.929V43.289ZM225.022 46.3298L225.136 37.9508L219.136 37.8692L219.022 46.2482L225.022 46.3298ZM222.136 40.91H225.043V34.91H222.136V40.91ZM228.043 37.91V35.459H222.043V37.91H228.043ZM225.043 38.459H228.292V32.459H225.043V38.459ZM231.292 35.459V33.008H225.292V35.459H231.292ZM228.292 36.008H231.313V30.008H228.292V36.008ZM234.313 33.008V30.671H228.313V33.008H234.313ZM231.313 33.671H234.049V27.671H231.313V33.671ZM237.049 30.671V28.391H231.049V30.671H237.049ZM234.049 31.391H236.614V25.391H234.049V31.391ZM239.614 28.391V26.168H233.614V28.391H239.614ZM236.614 29.168H238.951V23.168H236.614V29.168ZM241.951 26.168V18.302H235.951V26.168H241.951ZM238.951 21.302H241.174V15.302H238.951V21.302ZM244.174 18.302V16.193H238.174V18.302H244.174ZM241.174 19.193H250.636V13.193H241.174V19.193ZM247.636 16.193V18.302H253.636V16.193H247.636ZM250.636 21.302H252.802V15.302H250.636V21.302ZM249.802 18.302V26.168H255.802V18.302H249.802ZM252.802 29.168H255.196V23.168H252.802V29.168ZM252.196 26.168V28.391H258.196V26.168H252.196ZM255.196 31.391H257.761V25.391H255.196V31.391ZM254.761 28.391V30.671H260.761V28.391H254.761ZM257.761 33.671H260.497V27.671H257.761V33.671ZM257.497 30.671V33.008H263.497V30.671H257.497ZM260.497 36.008H263.518V30.008H260.497V36.008ZM260.518 33.008V35.459H266.518V33.008H260.518ZM263.518 38.459H266.767V32.459H263.518V38.459ZM263.767 35.459V37.91H269.767V35.459H263.767ZM266.767 40.91H269.674V34.91H266.767V40.91ZM266.674 37.91V46.289H272.674V37.91H266.674ZM269.674 43.289H266.881V49.289H269.674V43.289ZM263.881 46.289V48.512H269.881V46.289H263.881ZM266.881 45.512H258.844V51.512H266.881V45.512ZM261.844 48.512V46.118H255.844V48.512H261.844ZM258.844 43.118H255.766V49.118H258.844V43.118ZM258.766 46.118V43.382H252.766V46.118H258.766ZM255.766 40.382H252.802V46.382H255.766V40.382ZM255.802 43.382V40.817H249.802V43.382H255.802ZM252.802 37.817H250.066V43.817H252.802V37.817ZM253.066 40.817V38.423H247.066V40.817H253.066ZM250.066 35.423H247.387V41.423H250.066V35.423ZM250.387 38.423V36.143H244.387V38.423H250.387ZM266.218 55.637V57.917H272.218V55.637H266.218ZM269.218 60.917H271.555V54.917H269.218V60.917ZM268.555 57.917V64.472H274.555V57.917H268.555ZM271.555 61.472H269.218V67.472H271.555V61.472ZM266.218 64.472V66.752H272.218V64.472H266.218ZM269.218 63.752H222.592V69.752H269.218V63.752ZM225.592 66.752V64.472H219.592V66.752H225.592ZM222.592 61.472H220.255V67.472H222.592V61.472ZM223.255 64.472V57.917H217.255V64.472H223.255ZM220.255 60.917H222.592V54.917H220.255V60.917ZM225.592 57.917V55.637H219.592V57.917H225.592ZM222.592 58.637H269.218V52.637H222.592V58.637ZM327.91 51.704V54.704H330.91V51.704H327.91ZM286.642 51.704H283.642V54.704H286.642V51.704ZM286.642 49.424H289.642V46.424H286.642V49.424ZM284.362 49.424H281.362V52.424H284.362V49.424ZM284.362 18.473V15.473H281.362V18.473H284.362ZM286.642 18.473V21.473H289.642V18.473H286.642ZM286.642 16.193V13.193H283.642V16.193H286.642ZM327.568 16.193H330.568V13.193H327.568V16.193ZM327.568 18.473H324.568V21.473H327.568V18.473ZM329.848 18.473H332.848V15.473H329.848V18.473ZM329.848 23.717V26.717H332.848V23.717H329.848ZM327.568 23.717V20.717H324.568V23.717H327.568ZM327.568 25.997V28.997H330.568V25.997H327.568ZM296.674 25.997V22.997H293.674V25.997H296.674ZM296.674 29.075H293.674V32.075H296.674V29.075ZM327.226 29.075H330.226V26.075H327.226V29.075ZM327.226 31.355H324.226V34.355H327.226V31.355ZM329.506 31.355H332.506V28.355H329.506V31.355ZM329.506 36.485V39.485H332.506V36.485H329.506ZM327.226 36.485V33.485H324.226V36.485H327.226ZM327.226 38.765V41.765H330.226V38.765H327.226ZM296.674 38.765V35.765H293.674V38.765H296.674ZM296.674 41.9H293.674V44.9H296.674V41.9ZM327.91 41.9H330.91V38.9H327.91V41.9ZM327.91 44.18H324.91V47.18H327.91V44.18ZM330.19 44.18H333.19V41.18H330.19V44.18ZM330.19 49.424V52.424H333.19V49.424H330.19ZM327.91 49.424V46.424H324.91V49.424H327.91ZM330.304 56.093H333.304V53.093H330.304V56.093ZM330.304 58.373H327.304V61.373H330.304V58.373ZM332.641 58.373H335.641V55.373H332.641V58.373ZM332.641 64.472V67.472H335.641V64.472H332.641ZM330.304 64.472V61.472H327.304V64.472H330.304ZM330.304 66.752V69.752H333.304V66.752H330.304ZM283.678 66.752H280.678V69.752H283.678V66.752ZM283.678 64.472H286.678V61.472H283.678V64.472ZM281.341 64.472H278.341V67.472H281.341V64.472ZM281.341 58.373V55.373H278.341V58.373H281.341ZM283.678 58.373V61.373H286.678V58.373H283.678ZM283.678 56.093V53.093H280.678V56.093H283.678ZM327.91 48.704H286.642V54.704H327.91V48.704ZM289.642 51.704V49.424H283.642V51.704H289.642ZM286.642 46.424H284.362V52.424H286.642V46.424ZM287.362 49.424V18.473H281.362V49.424H287.362ZM284.362 21.473H286.642V15.473H284.362V21.473ZM289.642 18.473V16.193H283.642V18.473H289.642ZM286.642 19.193H327.568V13.193H286.642V19.193ZM324.568 16.193V18.473H330.568V16.193H324.568ZM327.568 21.473H329.848V15.473H327.568V21.473ZM326.848 18.473V23.717H332.848V18.473H326.848ZM329.848 20.717H327.568V26.717H329.848V20.717ZM324.568 23.717V25.997H330.568V23.717H324.568ZM327.568 22.997H296.674V28.997H327.568V22.997ZM293.674 25.997V29.075H299.674V25.997H293.674ZM296.674 32.075H327.226V26.075H296.674V32.075ZM324.226 29.075V31.355H330.226V29.075H324.226ZM327.226 34.355H329.506V28.355H327.226V34.355ZM326.506 31.355V36.485H332.506V31.355H326.506ZM329.506 33.485H327.226V39.485H329.506V33.485ZM324.226 36.485V38.765H330.226V36.485H324.226ZM327.226 35.765H296.674V41.765H327.226V35.765ZM293.674 38.765V41.9H299.674V38.765H293.674ZM296.674 44.9H327.91V38.9H296.674V44.9ZM324.91 41.9V44.18H330.91V41.9H324.91ZM327.91 47.18H330.19V41.18H327.91V47.18ZM327.19 44.18V49.424H333.19V44.18H327.19ZM330.19 46.424H327.91V52.424H330.19V46.424ZM324.91 49.424V51.704H330.91V49.424H324.91ZM327.304 56.093V58.373H333.304V56.093H327.304ZM330.304 61.373H332.641V55.373H330.304V61.373ZM329.641 58.373V64.472H335.641V58.373H329.641ZM332.641 61.472H330.304V67.472H332.641V61.472ZM327.304 64.472V66.752H333.304V64.472H327.304ZM330.304 63.752H283.678V69.752H330.304V63.752ZM286.678 66.752V64.472H280.678V66.752H286.678ZM283.678 61.472H281.341V67.472H283.678V61.472ZM284.341 64.472V58.373H278.341V64.472H284.341ZM281.341 61.373H283.678V55.373H281.341V61.373ZM286.678 58.373V56.093H280.678V58.373H286.678ZM283.678 59.093H330.304V53.093H283.678V59.093Z" fill="black" mask="url(#path-1-outside-1_212_3)"/>
</svg>
