<svg width="154" height="70" viewBox="0 0 154 70" fill="none" xmlns="http://www.w3.org/2000/svg">
<mask id="path-1-outside-1_212_16" maskUnits="userSpaceOnUse" x="1" y="8" width="152" height="53" fill="black">
<rect fill="white" x="1" y="8" width="152" height="53"/>
<path d="M7.08706 36.232V34.264H5.16706V14.872H7.08706V12.952H13.9991V14.872H15.9671V27.304H29.0231V29.224H30.9431V34.264H29.0231V36.232H7.08706ZM44.0951 12.952V14.872H45.9671V35.224H44.0951V37.144H37.4231V35.224H35.5031V14.872H37.4231V12.952H44.0951ZM43.4711 39.88V41.8H45.3911V54.76H43.4711V56.68H36.5111V54.76H34.5911V48.616H7.90306V46.696H5.98306V41.8H7.90306V39.88H43.4711ZM57.7117 54.808V52.888H55.7917V14.872H57.7117V12.952H63.9997V14.872H65.9197V45.736H74.1277V47.656H76.0957V52.888H74.1277V54.808H57.7117ZM96.5437 54.76V56.68H91.3117V54.76H89.5357V14.872H91.3117V12.952H96.5437V14.872H98.2717V54.76H96.5437ZM71.8237 27.016H78.8317V14.872H80.5597V12.952H85.7437V14.872H87.5197V54.76H85.7437V56.68H80.5597V54.76H78.8317V36.232H71.8237V34.456H70.0477V28.744H71.8237V27.016ZM133.632 18.52V30.568H131.664V32.488H129.696V34.36H127.632V36.136H113.808V34.36H111.696V32.488H109.728V30.568H107.76V18.52H109.728V16.6H111.696V14.728H113.808V12.952H127.632V14.728H129.696V16.6H131.664V18.52H133.632ZM146.976 12.952V14.872H148.848V34.36H146.976V36.28H140.304V34.36H138.384V14.872H140.304V12.952H146.976ZM124.128 21.784H122.496V20.392H118.848V21.784H117.264V27.352H118.848V28.696H122.496V27.352H124.128V21.784ZM111.072 40.504V38.584H146.352V40.504H148.272V54.76H146.352V56.68H111.072V54.76H109.152V40.504H111.072ZM119.232 46.312V49H138.192V46.312H119.232Z"/>
</mask>
<path d="M7.08706 36.232V34.264H5.16706V14.872H7.08706V12.952H13.9991V14.872H15.9671V27.304H29.0231V29.224H30.9431V34.264H29.0231V36.232H7.08706ZM44.0951 12.952V14.872H45.9671V35.224H44.0951V37.144H37.4231V35.224H35.5031V14.872H37.4231V12.952H44.0951ZM43.4711 39.88V41.8H45.3911V54.76H43.4711V56.68H36.5111V54.76H34.5911V48.616H7.90306V46.696H5.98306V41.8H7.90306V39.88H43.4711ZM57.7117 54.808V52.888H55.7917V14.872H57.7117V12.952H63.9997V14.872H65.9197V45.736H74.1277V47.656H76.0957V52.888H74.1277V54.808H57.7117ZM96.5437 54.76V56.68H91.3117V54.76H89.5357V14.872H91.3117V12.952H96.5437V14.872H98.2717V54.76H96.5437ZM71.8237 27.016H78.8317V14.872H80.5597V12.952H85.7437V14.872H87.5197V54.76H85.7437V56.68H80.5597V54.76H78.8317V36.232H71.8237V34.456H70.0477V28.744H71.8237V27.016ZM133.632 18.52V30.568H131.664V32.488H129.696V34.36H127.632V36.136H113.808V34.36H111.696V32.488H109.728V30.568H107.76V18.52H109.728V16.6H111.696V14.728H113.808V12.952H127.632V14.728H129.696V16.6H131.664V18.52H133.632ZM146.976 12.952V14.872H148.848V34.36H146.976V36.28H140.304V34.36H138.384V14.872H140.304V12.952H146.976ZM124.128 21.784H122.496V20.392H118.848V21.784H117.264V27.352H118.848V28.696H122.496V27.352H124.128V21.784ZM111.072 40.504V38.584H146.352V40.504H148.272V54.76H146.352V56.68H111.072V54.76H109.152V40.504H111.072ZM119.232 46.312V49H138.192V46.312H119.232Z" fill="white"/>
<path d="M7.08706 36.232H3.08706V40.232H7.08706V36.232ZM7.08706 34.264H11.0871V30.264H7.08706V34.264ZM5.16706 34.264H1.16706V38.264H5.16706V34.264ZM5.16706 14.872V10.872H1.16706V14.872H5.16706ZM7.08706 14.872V18.872H11.0871V14.872H7.08706ZM7.08706 12.952V8.952H3.08706V12.952H7.08706ZM13.9991 12.952H17.9991V8.952H13.9991V12.952ZM13.9991 14.872H9.99906V18.872H13.9991V14.872ZM15.9671 14.872H19.9671V10.872H15.9671V14.872ZM15.9671 27.304H11.9671V31.304H15.9671V27.304ZM29.0231 27.304H33.0231V23.304H29.0231V27.304ZM29.0231 29.224H25.0231V33.224H29.0231V29.224ZM30.9431 29.224H34.9431V25.224H30.9431V29.224ZM30.9431 34.264V38.264H34.9431V34.264H30.9431ZM29.0231 34.264V30.264H25.0231V34.264H29.0231ZM29.0231 36.232V40.232H33.0231V36.232H29.0231ZM44.0951 12.952H48.0951V8.952H44.0951V12.952ZM44.0951 14.872H40.0951V18.872H44.0951V14.872ZM45.9671 14.872H49.9671V10.872H45.9671V14.872ZM45.9671 35.224V39.224H49.9671V35.224H45.9671ZM44.0951 35.224V31.224H40.0951V35.224H44.0951ZM44.0951 37.144V41.144H48.0951V37.144H44.0951ZM37.4231 37.144H33.4231V41.144H37.4231V37.144ZM37.4231 35.224H41.4231V31.224H37.4231V35.224ZM35.5031 35.224H31.5031V39.224H35.5031V35.224ZM35.5031 14.872V10.872H31.5031V14.872H35.5031ZM37.4231 14.872V18.872H41.4231V14.872H37.4231ZM37.4231 12.952V8.952H33.4231V12.952H37.4231ZM43.4711 39.88H47.4711V35.88H43.4711V39.88ZM43.4711 41.8H39.4711V45.8H43.4711V41.8ZM45.3911 41.8H49.3911V37.8H45.3911V41.8ZM45.3911 54.76V58.76H49.3911V54.76H45.3911ZM43.4711 54.76V50.76H39.4711V54.76H43.4711ZM43.4711 56.68V60.68H47.4711V56.68H43.4711ZM36.5111 56.68H32.5111V60.68H36.5111V56.68ZM36.5111 54.76H40.5111V50.76H36.5111V54.76ZM34.5911 54.76H30.5911V58.76H34.5911V54.76ZM34.5911 48.616H38.5911V44.616H34.5911V48.616ZM7.90306 48.616H3.90306V52.616H7.90306V48.616ZM7.90306 46.696H11.9031V42.696H7.90306V46.696ZM5.98306 46.696H1.98306V50.696H5.98306V46.696ZM5.98306 41.8V37.8H1.98306V41.8H5.98306ZM7.90306 41.8V45.8H11.9031V41.8H7.90306ZM7.90306 39.88V35.88H3.90306V39.88H7.90306ZM11.0871 36.232V34.264H3.08706V36.232H11.0871ZM7.08706 30.264H5.16706V38.264H7.08706V30.264ZM9.16706 34.264V14.872H1.16706V34.264H9.16706ZM5.16706 18.872H7.08706V10.872H5.16706V18.872ZM11.0871 14.872V12.952H3.08706V14.872H11.0871ZM7.08706 16.952H13.9991V8.952H7.08706V16.952ZM9.99906 12.952V14.872H17.9991V12.952H9.99906ZM13.9991 18.872H15.9671V10.872H13.9991V18.872ZM11.9671 14.872V27.304H19.9671V14.872H11.9671ZM15.9671 31.304H29.0231V23.304H15.9671V31.304ZM25.0231 27.304V29.224H33.0231V27.304H25.0231ZM29.0231 33.224H30.9431V25.224H29.0231V33.224ZM26.9431 29.224V34.264H34.9431V29.224H26.9431ZM30.9431 30.264H29.0231V38.264H30.9431V30.264ZM25.0231 34.264V36.232H33.0231V34.264H25.0231ZM29.0231 32.232H7.08706V40.232H29.0231V32.232ZM40.0951 12.952V14.872H48.0951V12.952H40.0951ZM44.0951 18.872H45.9671V10.872H44.0951V18.872ZM41.9671 14.872V35.224H49.9671V14.872H41.9671ZM45.9671 31.224H44.0951V39.224H45.9671V31.224ZM40.0951 35.224V37.144H48.0951V35.224H40.0951ZM44.0951 33.144H37.4231V41.144H44.0951V33.144ZM41.4231 37.144V35.224H33.4231V37.144H41.4231ZM37.4231 31.224H35.5031V39.224H37.4231V31.224ZM39.5031 35.224V14.872H31.5031V35.224H39.5031ZM35.5031 18.872H37.4231V10.872H35.5031V18.872ZM41.4231 14.872V12.952H33.4231V14.872H41.4231ZM37.4231 16.952H44.0951V8.952H37.4231V16.952ZM39.4711 39.88V41.8H47.4711V39.88H39.4711ZM43.4711 45.8H45.3911V37.8H43.4711V45.8ZM41.3911 41.8V54.76H49.3911V41.8H41.3911ZM45.3911 50.76H43.4711V58.76H45.3911V50.76ZM39.4711 54.76V56.68H47.4711V54.76H39.4711ZM43.4711 52.68H36.5111V60.68H43.4711V52.68ZM40.5111 56.68V54.76H32.5111V56.68H40.5111ZM36.5111 50.76H34.5911V58.76H36.5111V50.76ZM38.5911 54.76V48.616H30.5911V54.76H38.5911ZM34.5911 44.616H7.90306V52.616H34.5911V44.616ZM11.9031 48.616V46.696H3.90306V48.616H11.9031ZM7.90306 42.696H5.98306V50.696H7.90306V42.696ZM9.98306 46.696V41.8H1.98306V46.696H9.98306ZM5.98306 45.8H7.90306V37.8H5.98306V45.8ZM11.9031 41.8V39.88H3.90306V41.8H11.9031ZM7.90306 43.88H43.4711V35.88H7.90306V43.88ZM57.7117 54.808H53.7117V58.808H57.7117V54.808ZM57.7117 52.888H61.7117V48.888H57.7117V52.888ZM55.7917 52.888H51.7917V56.888H55.7917V52.888ZM55.7917 14.872V10.872H51.7917V14.872H55.7917ZM57.7117 14.872V18.872H61.7117V14.872H57.7117ZM57.7117 12.952V8.952H53.7117V12.952H57.7117ZM63.9997 12.952H67.9997V8.952H63.9997V12.952ZM63.9997 14.872H59.9997V18.872H63.9997V14.872ZM65.9197 14.872H69.9197V10.872H65.9197V14.872ZM65.9197 45.736H61.9197V49.736H65.9197V45.736ZM74.1277 45.736H78.1277V41.736H74.1277V45.736ZM74.1277 47.656H70.1277V51.656H74.1277V47.656ZM76.0957 47.656H80.0957V43.656H76.0957V47.656ZM76.0957 52.888V56.888H80.0957V52.888H76.0957ZM74.1277 52.888V48.888H70.1277V52.888H74.1277ZM74.1277 54.808V58.808H78.1277V54.808H74.1277ZM96.5437 54.76V50.76H92.5437V54.76H96.5437ZM96.5437 56.68V60.68H100.544V56.68H96.5437ZM91.3117 56.68H87.3117V60.68H91.3117V56.68ZM91.3117 54.76H95.3117V50.76H91.3117V54.76ZM89.5357 54.76H85.5357V58.76H89.5357V54.76ZM89.5357 14.872V10.872H85.5357V14.872H89.5357ZM91.3117 14.872V18.872H95.3117V14.872H91.3117ZM91.3117 12.952V8.952H87.3117V12.952H91.3117ZM96.5437 12.952H100.544V8.952H96.5437V12.952ZM96.5437 14.872H92.5437V18.872H96.5437V14.872ZM98.2717 14.872H102.272V10.872H98.2717V14.872ZM98.2717 54.76V58.76H102.272V54.76H98.2717ZM71.8237 27.016V23.016H67.8237V27.016H71.8237ZM78.8317 27.016V31.016H82.8317V27.016H78.8317ZM78.8317 14.872V10.872H74.8317V14.872H78.8317ZM80.5597 14.872V18.872H84.5597V14.872H80.5597ZM80.5597 12.952V8.952H76.5597V12.952H80.5597ZM85.7437 12.952H89.7437V8.952H85.7437V12.952ZM85.7437 14.872H81.7437V18.872H85.7437V14.872ZM87.5197 14.872H91.5197V10.872H87.5197V14.872ZM87.5197 54.76V58.76H91.5197V54.76H87.5197ZM85.7437 54.76V50.76H81.7437V54.76H85.7437ZM85.7437 56.68V60.68H89.7437V56.68H85.7437ZM80.5597 56.68H76.5597V60.68H80.5597V56.68ZM80.5597 54.76H84.5597V50.76H80.5597V54.76ZM78.8317 54.76H74.8317V58.76H78.8317V54.76ZM78.8317 36.232H82.8317V32.232H78.8317V36.232ZM71.8237 36.232H67.8237V40.232H71.8237V36.232ZM71.8237 34.456H75.8237V30.456H71.8237V34.456ZM70.0477 34.456H66.0477V38.456H70.0477V34.456ZM70.0477 28.744V24.744H66.0477V28.744H70.0477ZM71.8237 28.744V32.744H75.8237V28.744H71.8237ZM61.7117 54.808V52.888H53.7117V54.808H61.7117ZM57.7117 48.888H55.7917V56.888H57.7117V48.888ZM59.7917 52.888V14.872H51.7917V52.888H59.7917ZM55.7917 18.872H57.7117V10.872H55.7917V18.872ZM61.7117 14.872V12.952H53.7117V14.872H61.7117ZM57.7117 16.952H63.9997V8.952H57.7117V16.952ZM59.9997 12.952V14.872H67.9997V12.952H59.9997ZM63.9997 18.872H65.9197V10.872H63.9997V18.872ZM61.9197 14.872V45.736H69.9197V14.872H61.9197ZM65.9197 49.736H74.1277V41.736H65.9197V49.736ZM70.1277 45.736V47.656H78.1277V45.736H70.1277ZM74.1277 51.656H76.0957V43.656H74.1277V51.656ZM72.0957 47.656V52.888H80.0957V47.656H72.0957ZM76.0957 48.888H74.1277V56.888H76.0957V48.888ZM70.1277 52.888V54.808H78.1277V52.888H70.1277ZM74.1277 50.808H57.7117V58.808H74.1277V50.808ZM92.5437 54.76V56.68H100.544V54.76H92.5437ZM96.5437 52.68H91.3117V60.68H96.5437V52.68ZM95.3117 56.68V54.76H87.3117V56.68H95.3117ZM91.3117 50.76H89.5357V58.76H91.3117V50.76ZM93.5357 54.76V14.872H85.5357V54.76H93.5357ZM89.5357 18.872H91.3117V10.872H89.5357V18.872ZM95.3117 14.872V12.952H87.3117V14.872H95.3117ZM91.3117 16.952H96.5437V8.952H91.3117V16.952ZM92.5437 12.952V14.872H100.544V12.952H92.5437ZM96.5437 18.872H98.2717V10.872H96.5437V18.872ZM94.2717 14.872V54.76H102.272V14.872H94.2717ZM98.2717 50.76H96.5437V58.76H98.2717V50.76ZM71.8237 31.016H78.8317V23.016H71.8237V31.016ZM82.8317 27.016V14.872H74.8317V27.016H82.8317ZM78.8317 18.872H80.5597V10.872H78.8317V18.872ZM84.5597 14.872V12.952H76.5597V14.872H84.5597ZM80.5597 16.952H85.7437V8.952H80.5597V16.952ZM81.7437 12.952V14.872H89.7437V12.952H81.7437ZM85.7437 18.872H87.5197V10.872H85.7437V18.872ZM83.5197 14.872V54.76H91.5197V14.872H83.5197ZM87.5197 50.76H85.7437V58.76H87.5197V50.76ZM81.7437 54.76V56.68H89.7437V54.76H81.7437ZM85.7437 52.68H80.5597V60.68H85.7437V52.68ZM84.5597 56.68V54.76H76.5597V56.68H84.5597ZM80.5597 50.76H78.8317V58.76H80.5597V50.76ZM82.8317 54.76V36.232H74.8317V54.76H82.8317ZM78.8317 32.232H71.8237V40.232H78.8317V32.232ZM75.8237 36.232V34.456H67.8237V36.232H75.8237ZM71.8237 30.456H70.0477V38.456H71.8237V30.456ZM74.0477 34.456V28.744H66.0477V34.456H74.0477ZM70.0477 32.744H71.8237V24.744H70.0477V32.744ZM75.8237 28.744V27.016H67.8237V28.744H75.8237ZM133.632 18.52H137.632V14.52H133.632V18.52ZM133.632 30.568V34.568H137.632V30.568H133.632ZM131.664 30.568V26.568H127.664V30.568H131.664ZM131.664 32.488V36.488H135.664V32.488H131.664ZM129.696 32.488V28.488H125.696V32.488H129.696ZM129.696 34.36V38.36H133.696V34.36H129.696ZM127.632 34.36V30.36H123.632V34.36H127.632ZM127.632 36.136V40.136H131.632V36.136H127.632ZM113.808 36.136H109.808V40.136H113.808V36.136ZM113.808 34.36H117.808V30.36H113.808V34.36ZM111.696 34.36H107.696V38.36H111.696V34.36ZM111.696 32.488H115.696V28.488H111.696V32.488ZM109.728 32.488H105.728V36.488H109.728V32.488ZM109.728 30.568H113.728V26.568H109.728V30.568ZM107.76 30.568H103.76V34.568H107.76V30.568ZM107.76 18.52V14.52H103.76V18.52H107.76ZM109.728 18.52V22.52H113.728V18.52H109.728ZM109.728 16.6V12.6H105.728V16.6H109.728ZM111.696 16.6V20.6H115.696V16.6H111.696ZM111.696 14.728V10.728H107.696V14.728H111.696ZM113.808 14.728V18.728H117.808V14.728H113.808ZM113.808 12.952V8.952H109.808V12.952H113.808ZM127.632 12.952H131.632V8.952H127.632V12.952ZM127.632 14.728H123.632V18.728H127.632V14.728ZM129.696 14.728H133.696V10.728H129.696V14.728ZM129.696 16.6H125.696V20.6H129.696V16.6ZM131.664 16.6H135.664V12.6H131.664V16.6ZM131.664 18.52H127.664V22.52H131.664V18.52ZM146.976 12.952H150.976V8.952H146.976V12.952ZM146.976 14.872H142.976V18.872H146.976V14.872ZM148.848 14.872H152.848V10.872H148.848V14.872ZM148.848 34.36V38.36H152.848V34.36H148.848ZM146.976 34.36V30.36H142.976V34.36H146.976ZM146.976 36.28V40.28H150.976V36.28H146.976ZM140.304 36.28H136.304V40.28H140.304V36.28ZM140.304 34.36H144.304V30.36H140.304V34.36ZM138.384 34.36H134.384V38.36H138.384V34.36ZM138.384 14.872V10.872H134.384V14.872H138.384ZM140.304 14.872V18.872H144.304V14.872H140.304ZM140.304 12.952V8.952H136.304V12.952H140.304ZM124.128 21.784H128.128V17.784H124.128V21.784ZM122.496 21.784H118.496V25.784H122.496V21.784ZM122.496 20.392H126.496V16.392H122.496V20.392ZM118.848 20.392V16.392H114.848V20.392H118.848ZM118.848 21.784V25.784H122.848V21.784H118.848ZM117.264 21.784V17.784H113.264V21.784H117.264ZM117.264 27.352H113.264V31.352H117.264V27.352ZM118.848 27.352H122.848V23.352H118.848V27.352ZM118.848 28.696H114.848V32.696H118.848V28.696ZM122.496 28.696V32.696H126.496V28.696H122.496ZM122.496 27.352V23.352H118.496V27.352H122.496ZM124.128 27.352V31.352H128.128V27.352H124.128ZM111.072 40.504V44.504H115.072V40.504H111.072ZM111.072 38.584V34.584H107.072V38.584H111.072ZM146.352 38.584H150.352V34.584H146.352V38.584ZM146.352 40.504H142.352V44.504H146.352V40.504ZM148.272 40.504H152.272V36.504H148.272V40.504ZM148.272 54.76V58.76H152.272V54.76H148.272ZM146.352 54.76V50.76H142.352V54.76H146.352ZM146.352 56.68V60.68H150.352V56.68H146.352ZM111.072 56.68H107.072V60.68H111.072V56.68ZM111.072 54.76H115.072V50.76H111.072V54.76ZM109.152 54.76H105.152V58.76H109.152V54.76ZM109.152 40.504V36.504H105.152V40.504H109.152ZM119.232 46.312V42.312H115.232V46.312H119.232ZM119.232 49H115.232V53H119.232V49ZM138.192 49V53H142.192V49H138.192ZM138.192 46.312H142.192V42.312H138.192V46.312ZM129.632 18.52V30.568H137.632V18.52H129.632ZM133.632 26.568H131.664V34.568H133.632V26.568ZM127.664 30.568V32.488H135.664V30.568H127.664ZM131.664 28.488H129.696V36.488H131.664V28.488ZM125.696 32.488V34.36H133.696V32.488H125.696ZM129.696 30.36H127.632V38.36H129.696V30.36ZM123.632 34.36V36.136H131.632V34.36H123.632ZM127.632 32.136H113.808V40.136H127.632V32.136ZM117.808 36.136V34.36H109.808V36.136H117.808ZM113.808 30.36H111.696V38.36H113.808V30.36ZM115.696 34.36V32.488H107.696V34.36H115.696ZM111.696 28.488H109.728V36.488H111.696V28.488ZM113.728 32.488V30.568H105.728V32.488H113.728ZM109.728 26.568H107.76V34.568H109.728V26.568ZM111.76 30.568V18.52H103.76V30.568H111.76ZM107.76 22.52H109.728V14.52H107.76V22.52ZM113.728 18.52V16.6H105.728V18.52H113.728ZM109.728 20.6H111.696V12.6H109.728V20.6ZM115.696 16.6V14.728H107.696V16.6H115.696ZM111.696 18.728H113.808V10.728H111.696V18.728ZM117.808 14.728V12.952H109.808V14.728H117.808ZM113.808 16.952H127.632V8.952H113.808V16.952ZM123.632 12.952V14.728H131.632V12.952H123.632ZM127.632 18.728H129.696V10.728H127.632V18.728ZM125.696 14.728V16.6H133.696V14.728H125.696ZM129.696 20.6H131.664V12.6H129.696V20.6ZM127.664 16.6V18.52H135.664V16.6H127.664ZM131.664 22.52H133.632V14.52H131.664V22.52ZM142.976 12.952V14.872H150.976V12.952H142.976ZM146.976 18.872H148.848V10.872H146.976V18.872ZM144.848 14.872V34.36H152.848V14.872H144.848ZM148.848 30.36H146.976V38.36H148.848V30.36ZM142.976 34.36V36.28H150.976V34.36H142.976ZM146.976 32.28H140.304V40.28H146.976V32.28ZM144.304 36.28V34.36H136.304V36.28H144.304ZM140.304 30.36H138.384V38.36H140.304V30.36ZM142.384 34.36V14.872H134.384V34.36H142.384ZM138.384 18.872H140.304V10.872H138.384V18.872ZM144.304 14.872V12.952H136.304V14.872H144.304ZM140.304 16.952H146.976V8.952H140.304V16.952ZM124.128 17.784H122.496V25.784H124.128V17.784ZM126.496 21.784V20.392H118.496V21.784H126.496ZM122.496 16.392H118.848V24.392H122.496V16.392ZM114.848 20.392V21.784H122.848V20.392H114.848ZM118.848 17.784H117.264V25.784H118.848V17.784ZM113.264 21.784V27.352H121.264V21.784H113.264ZM117.264 31.352H118.848V23.352H117.264V31.352ZM114.848 27.352V28.696H122.848V27.352H114.848ZM118.848 32.696H122.496V24.696H118.848V32.696ZM126.496 28.696V27.352H118.496V28.696H126.496ZM122.496 31.352H124.128V23.352H122.496V31.352ZM128.128 27.352V21.784H120.128V27.352H128.128ZM115.072 40.504V38.584H107.072V40.504H115.072ZM111.072 42.584H146.352V34.584H111.072V42.584ZM142.352 38.584V40.504H150.352V38.584H142.352ZM146.352 44.504H148.272V36.504H146.352V44.504ZM144.272 40.504V54.76H152.272V40.504H144.272ZM148.272 50.76H146.352V58.76H148.272V50.76ZM142.352 54.76V56.68H150.352V54.76H142.352ZM146.352 52.68H111.072V60.68H146.352V52.68ZM115.072 56.68V54.76H107.072V56.68H115.072ZM111.072 50.76H109.152V58.76H111.072V50.76ZM113.152 54.76V40.504H105.152V54.76H113.152ZM109.152 44.504H111.072V36.504H109.152V44.504ZM115.232 46.312V49H123.232V46.312H115.232ZM119.232 53H138.192V45H119.232V53ZM142.192 49V46.312H134.192V49H142.192ZM138.192 42.312H119.232V50.312H138.192V42.312Z" fill="black" mask="url(#path-1-outside-1_212_16)"/>
</svg>
